SplineFontDB: 3.2
FontName: Caudex
FullName: Caudex
FamilyName: Caudex
Weight: Book
Copyright: Copyright (c) The Caudex Project Authors https://github.com/nidud/caudex
Version: 2.0
ItalicAngle: 0
UnderlinePosition: -100
UnderlineWidth: 30
Ascent: 1638
Descent: 410
InvalidEm: 0
sfntRevision: 0x00020000
LayerCount: 2
Layer: 0 1 "Back" 1
Layer: 1 1 "Fore" 0
XUID: [1021 646 -1554209282 20416]
StyleMap: 0x0040
FSType: 0
OS2Version: 0
OS2_WeightWidthSlopeOnly: 0
OS2_UseTypoMetrics: 0
CreationTime: 1305227018
ModificationTime: 1711535986
PfmFamily: 17
TTFWeight: 400
TTFWidth: 5
LineGap: 0
VLineGap: 0
Panose: 2 4 5 2 5 5 5 3 3 4
OS2TypoAscent: 2034
OS2TypoAOffset: 0
OS2TypoDescent: -606
OS2TypoDOffset: 0
OS2TypoLinegap: 0
OS2WinAscent: 2034
OS2WinAOffset: 0
OS2WinDescent: 606
OS2WinDOffset: 0
HheadAscent: 2034
HheadAOffset: 0
HheadDescent: -606
HheadDOffset: 0
OS2SubXSize: 1285
OS2SubYSize: 1230
OS2SubXOff: 0
OS2SubYOff: 0
OS2SupXSize: 655
OS2SupYSize: 860
OS2SupXOff: 0
OS2SupYOff: 550
OS2StrikeYSize: 100
OS2StrikeYPos: 530
OS2CapHeight: 1405
OS2XHeight: 931
OS2FamilyClass: 260
OS2Vendor: 'PfEd'
OS2CodePages: e000009f.dfd70000
OS2UnicodeRanges: e40002ff.5000f8fb.00008008.00000000
Lookup: 1 0 0 "'smcp' Lowercase to Small Capitals in Latin lookup 1" { "'smcp' Lowercase to Small Capitals in Latin lookup 1 subtable"  } ['smcp' ('latn' <'ROM ' 'TRK ' 'dflt' > ) ]
Lookup: 1 0 0 "'ordn' Ordinals in Latin lookup 2" { "'ordn' Ordinals in Latin lookup 2 subtable" ("superior") } ['ordn' ('latn' <'ROM ' 'TRK ' 'dflt' > ) 'sups' ('cyrl' <'dflt' > 'grek' <'dflt' > 'latn' <'ROM ' 'TRK ' 'dflt' > ) ]

StartChar: .notdef
Encoding: 65536 -1 0
Width: 772
GlyphClass: 1
Flags: W
LayerCount: 2
Fore
SplineSet
0 1404 m 1,0,-1
 772 1404 l 1,1,-1
 772 0 l 1,2,-1
 0 0 l 1,3,-1
 0 1404 l 1,0,-1
272 244 m 2,5,-1
 272 175 l 2,6,7
 272 102 272 102 364 102 c 256,8,9
 456 102 456 102 456 175 c 2,10,-1
 456 244 l 2,11,12
 456 317 456 317 364 317 c 256,13,4
 272 317 272 317 272 244 c 2,5,-1
399 504 m 2,14,-1
 402 653 l 2,15,16
 403 713 403 713 420 744 c 0,17,18
 436 773 436 773 487 805 c 0,19,20
 508 819 508 819 524 829 c 0,21,22
 668 917 668 917 668 1059 c 0,23,24
 668 1172 668 1172 593 1237 c 0,25,26
 517 1302 517 1302 383 1302 c 0,27,28
 253 1302 253 1302 179 1235 c 0,29,30
 104 1169 104 1169 104 1054 c 0,31,32
 104 1028 104 1028 118 1016 c 0,33,34
 132 1005 132 1005 162 1005 c 0,35,36
 188 1005 188 1005 206 1016 c 0,37,38
 221 1026 221 1026 223 1046 c 0,39,40
 232 1162 232 1162 264 1204 c 0,41,42
 295 1248 295 1248 363 1248 c 0,43,44
 440 1248 440 1248 480 1201 c 0,45,46
 518 1154 518 1154 518 1059 c 0,47,48
 518 971 518 971 478 908 c 0,49,50
 436 844 436 844 331 771 c 1,51,-1
 331 505 l 2,52,53
 331 464 331 464 341 436 c 0,54,55
 349 411 349 411 364 411 c 0,56,57
 381 411 381 411 390 433 c 256,58,59
 399 455 399 455 399 504 c 2,14,-1
EndSplineSet
EndChar

StartChar: exclam
Encoding: 33 33 4
Width: 550
GlyphClass: 2
Flags: W
LayerCount: 2
Fore
SplineSet
257 230 m 256,0,1
 367 230 367 230 367 143 c 2,2,-1
 367 61 l 2,3,4
 367 -25 367 -25 257 -25 c 256,5,6
 147 -25 147 -25 147 61 c 2,7,-1
 147 143 l 2,8,9
 147 230 147 230 257 230 c 256,0,1
297 386 m 2,10,11
 297 360 297 360 270 361 c 2,12,-1
 249 361 l 2,13,14
 224 361 224 361 224 386 c 2,15,-1
 151 1332 l 1,16,-1
 151 1341 l 2,17,18
 151 1405 151 1405 227 1405 c 2,19,-1
 293 1405 l 2,20,21
 368 1405 368 1405 368 1345 c 0,22,23
 368 1344 368 1344 368 1343 c 2,24,-1
 368 1332 l 1,25,-1
 297 386 l 2,10,11
EndSplineSet
EndChar

StartChar: numbersign
Encoding: 35 35 6
Width: 1100
GlyphClass: 2
Flags: W
LayerCount: 2
Fore
SplineSet
246 19 m 2,0,-1
 309 382 l 1,1,-1
 30 382 l 2,2,3
 16 382 16 382 17 392 c 2,4,-1
 32 477 l 2,5,6
 34 487 34 487 48 487 c 2,7,-1
 327 487 l 1,8,-1
 375 762 l 1,9,-1
 96 762 l 2,10,11
 82 762 82 762 83 772 c 2,12,-1
 98 857 l 2,13,14
 100 867 100 867 114 867 c 2,15,-1
 393 867 l 1,16,-1
 456 1230 l 2,17,18
 459 1247 459 1247 469 1247 c 2,19,-1
 554 1247 l 2,20,21
 564 1247 564 1247 561 1230 c 2,22,-1
 498 867 l 1,23,-1
 685 867 l 1,24,-1
 748 1230 l 2,25,26
 751 1247 751 1247 762 1247 c 2,27,-1
 846 1247 l 2,28,29
 857 1247 857 1247 854 1230 c 2,30,-1
 791 867 l 1,31,-1
 1069 867 l 2,32,33
 1084 867 1084 867 1082 857 c 2,34,-1
 1067 772 l 2,35,36
 1066 762 1066 762 1051 762 c 2,37,-1
 773 762 l 1,38,-1
 725 487 l 1,39,-1
 1003 487 l 2,40,41
 1018 487 1018 487 1016 477 c 2,42,-1
 1001 392 l 2,43,44
 1000 382 1000 382 985 382 c 2,45,-1
 707 382 l 1,46,-1
 644 19 l 2,47,48
 641 0 641 0 630 0 c 2,49,-1
 546 0 l 2,50,51
 535 0 535 0 538 19 c 2,52,-1
 601 382 l 1,53,-1
 414 382 l 1,54,-1
 351 19 l 2,55,56
 348 0 348 0 338 0 c 2,57,-1
 253 0 l 2,58,59
 243 0 243 0 246 19 c 2,0,-1
480 762 m 1,60,-1
 432 487 l 1,61,-1
 619 487 l 1,62,-1
 667 762 l 1,63,-1
 480 762 l 1,60,-1
EndSplineSet
EndChar

StartChar: ampersand
Encoding: 38 38 9
Width: 1292
GlyphClass: 2
Flags: W
LayerCount: 2
Fore
SplineSet
877 302 m 1,0,-1
 996 155 l 2,1,2
 1045 91 1045 91 1152 41 c 0,3,4
 1179 29 1179 29 1186 17 c 0,5,6
 1188 11 1188 11 1188 8 c 0,7,8
 1186 4 1186 4 1186 3 c 0,9,10
 1181 0 1181 0 1172 0 c 2,11,-1
 928 0 l 2,12,13
 893 0 893 0 850 66 c 0,14,15
 816 118 816 118 782 158 c 1,16,17
 701 59 701 59 610 13 c 0,18,19
 518 -32 518 -32 403 -32 c 0,20,21
 267 -32 267 -32 186 49 c 0,22,23
 124 113 124 113 113 240 c 0,24,25
 112 252 112 252 113 264 c 0,26,27
 119 384 119 384 187 478 c 0,28,29
 250 570 250 570 403 672 c 1,30,31
 342 754 342 754 308 835 c 0,32,33
 285 887 285 887 278 982 c 0,34,35
 277 991 277 991 278 1009 c 0,36,37
 283 1141 283 1141 366 1223 c 0,38,39
 446 1302 446 1302 569 1302 c 0,40,41
 572 1302 572 1302 575 1302 c 0,42,43
 700 1302 700 1302 769 1236 c 0,44,45
 832 1176 832 1176 832 1079 c 2,46,-1
 832 1062 l 1,47,48
 825 957 825 957 764 875 c 0,49,50
 699 789 699 789 566 706 c 1,51,-1
 834 355 l 1,52,-1
 946 564 l 2,53,54
 954 580 954 580 956 597 c 0,55,56
 957 603 957 603 957 608 c 0,57,58
 957 618 957 618 954 627 c 0,59,60
 950 639 950 639 943.5 647 c 128,-1,61
 937 655 937 655 934 664 c 0,62,63
 933 668 933 668 933 671 c 2,64,-1
 933 674 l 2,65,66
 933 675 933 675 935 681 c 0,67,68
 942 700 942 700 956 700 c 2,69,-1
 1214 700 l 2,70,71
 1224 700 1224 700 1229 694 c 0,72,73
 1230 693 1230 693 1230 690 c 2,74,-1
 1230 688 l 2,75,76
 1230 685 1230 685 1229 681 c 0,77,78
 1223 670 1223 670 1195 656 c 0,79,80
 1180 649 1180 649 1162 641 c 128,-1,81
 1144 633 1144 633 1127 622 c 0,82,83
 1053 574 1053 574 1001 496 c 128,-1,84
 949 418 949 418 877 302 c 1,0,-1
527 759 m 1,85,86
 618 813 618 813 660 881 c 0,87,88
 701 948 701 948 708 1051 c 1,89,-1
 708 1066 l 2,90,91
 708 1134 708 1134 683 1183 c 0,92,93
 655 1236 655 1236 568 1236 c 0,94,95
 500 1236 500 1236 461 1191 c 0,96,97
 421 1143 421 1143 417 1062 c 0,98,99
 416 1051 416 1051 416 1041 c 0,100,101
 416 900 416 900 527 759 c 1,85,86
741 214 m 1,102,-1
 438 615 l 1,103,104
 281 501 281 501 273 337 c 0,105,106
 272 327 272 327 272 316 c 0,107,108
 272 214 272 214 328 142 c 0,109,110
 389 62 389 62 484 62 c 0,111,112
 565 62 565 62 628.5 106 c 128,-1,113
 692 150 692 150 741 214 c 1,102,-1
EndSplineSet
EndChar

StartChar: quotesingle
Encoding: 39 39 10
Width: 426
GlyphClass: 2
Flags: W
LayerCount: 2
Fore
SplineSet
222 969 m 2,0,1
 222 957 222 957 203 957 c 2,2,-1
 188 957 l 2,3,4
 170 957 170 957 170 969 c 2,5,-1
 118 1409 l 1,6,-1
 118 1413 l 2,7,8
 118 1443 118 1443 172 1443 c 2,9,-1
 219 1443 l 2,10,11
 273 1443 273 1443 273 1414 c 2,12,-1
 273 1409 l 1,13,-1
 222 969 l 2,0,1
EndSplineSet
EndChar

StartChar: parenleft
Encoding: 40 40 11
Width: 628
GlyphClass: 2
Flags: W
LayerCount: 2
Fore
SplineSet
79 568 m 0,0,1
 79 802 79 802 175 1049 c 128,-1,2
 271 1296 271 1296 580 1467 c 0,3,4
 587 1471 587 1471 592 1471 c 0,5,6
 594 1471 594 1471 596 1470 c 0,7,8
 599 1467 599 1467 599 1442 c 2,9,-1
 599 1412 l 1,10,11
 367 1211 367 1211 301 1031.5 c 128,-1,12
 235 852 235 852 235 568 c 0,13,14
 235 283 235 283 301 104 c 128,-1,15
 367 -75 367 -75 599 -276 c 1,16,-1
 599 -306 l 2,17,18
 599 -331 599 -331 596 -334 c 0,19,20
 594 -335 594 -335 592 -335 c 0,21,22
 587 -335 587 -335 580 -331 c 0,23,24
 271 -160 271 -160 175 86.5 c 128,-1,25
 79 333 79 333 79 568 c 0,0,1
EndSplineSet
Substitution2: "'smcp' Lowercase to Small Capitals in Latin lookup 3 subtable" uni208D
Substitution2: "'ordn' Ordinals in Latin lookup 2 subtable" uni207D
EndChar

StartChar: asterisk
Encoding: 42 42 13
Width: 1100
GlyphClass: 2
Flags: W
LayerCount: 2
Fore
SplineSet
839 495 m 2,0,1
 870 475 870 475 856 453 c 2,2,-1
 827 408 l 2,3,4
 813 387 813 387 782 407 c 2,5,-1
 584 535 l 1,6,-1
 584 300 l 2,7,8
 584 262 584 262 558 262 c 2,9,-1
 506 262 l 2,10,11
 480 262 480 262 480 300 c 2,12,-1
 480 535 l 1,13,-1
 282 407 l 2,14,15
 251 387 251 387 237 408 c 2,16,-1
 208 453 l 2,17,18
 194 475 194 475 225 495 c 2,19,-1
 436 632 l 1,20,-1
 225 768 l 2,21,22
 194 788 194 788 208 810 c 2,23,-1
 237 855 l 2,24,25
 251 876 251 876 282 856 c 2,26,-1
 480 728 l 1,27,-1
 480 964 l 2,28,29
 480 1000 480 1000 506 1000 c 2,30,-1
 558 1000 l 2,31,32
 584 1000 584 1000 584 964 c 2,33,-1
 584 728 l 1,34,-1
 782 856 l 2,35,36
 813 876 813 876 827 855 c 2,37,-1
 856 810 l 2,38,39
 870 788 870 788 839 768 c 2,40,-1
 628 632 l 1,41,-1
 839 495 l 2,0,1
EndSplineSet
EndChar

StartChar: plus
Encoding: 43 43 14
Width: 1100
GlyphClass: 2
Flags: W
LayerCount: 2
Fore
SplineSet
480 579 m 1,0,-1
 200 579 l 2,1,2
 163 579 163 579 163 605 c 2,3,-1
 163 658 l 2,4,5
 163 684 163 684 200 684 c 2,6,-1
 480 684 l 1,7,-1
 480 964 l 2,8,9
 480 1000 480 1000 506 1000 c 2,10,-1
 558 1000 l 2,11,12
 584 1000 584 1000 584 964 c 2,13,-1
 584 684 l 1,14,-1
 864 684 l 2,15,16
 901 684 901 684 901 658 c 2,17,-1
 901 605 l 2,18,19
 901 579 901 579 864 579 c 2,20,-1
 584 579 l 1,21,-1
 584 300 l 2,22,23
 584 262 584 262 558 262 c 2,24,-1
 506 262 l 2,25,26
 480 262 480 262 480 300 c 2,27,-1
 480 579 l 1,0,-1
EndSplineSet
Substitution2: "'smcp' Lowercase to Small Capitals in Latin lookup 3 subtable" uni208A
Substitution2: "'ordn' Ordinals in Latin lookup 2 subtable" uni207A
EndChar

StartChar: comma
Encoding: 44 44 15
Width: 480
GlyphClass: 2
Flags: W
LayerCount: 2
Fore
SplineSet
188 -226 m 0,0,1
 159 -249 159 -249 134 -249 c 0,2,3
 118 -249 118 -249 104 -240 c 1,4,5
 90 -224 90 -224 106 -206.5 c 128,-1,6
 122 -189 122 -189 146 -175 c 0,7,8
 239 -118 239 -118 257 -25 c 1,9,10
 147 -25 147 -25 147 61 c 2,11,-1
 147 143 l 2,12,13
 147 230 147 230 257 230 c 256,14,15
 367 230 367 230 367 143 c 2,16,-1
 367 61 l 1,17,18
 343 -126 343 -126 188 -226 c 0,0,1
EndSplineSet
EndChar

StartChar: hyphen
Encoding: 45 45 16
Width: 1100
GlyphClass: 2
Flags: W
LayerCount: 2
Fore
SplineSet
200 549 m 2,0,-1
 864 549 l 2,1,2
 901 549 901 549 901 523 c 2,3,-1
 901 470 l 2,4,5
 901 444 901 444 864 444 c 2,6,-1
 200 444 l 2,7,8
 163 444 163 444 163 470 c 2,9,-1
 163 523 l 2,10,11
 163 549 163 549 200 549 c 2,0,-1
EndSplineSet
Substitution2: "'ordn' Ordinals in Latin lookup 2 subtable" uni207B
EndChar

StartChar: period
Encoding: 46 46 17
Width: 480
GlyphClass: 2
Flags: W
LayerCount: 2
Fore
SplineSet
257 230 m 256,0,1
 367 230 367 230 367 143 c 2,2,-1
 367 61 l 2,3,4
 367 -25 367 -25 257 -25 c 256,5,6
 147 -25 147 -25 147 61 c 2,7,-1
 147 143 l 2,8,9
 147 230 147 230 257 230 c 256,0,1
EndSplineSet
EndChar

StartChar: slash
Encoding: 47 47 18
Width: 1100
GlyphClass: 2
Flags: W
LayerCount: 2
Fore
SplineSet
58 -70 m 1,0,-1
 902 1474 l 1,1,-1
 1042 1474 l 1,2,-1
 200 -70 l 1,3,-1
 58 -70 l 1,0,-1
EndSplineSet
Substitution2: "Single Substitution lookup 21 subtable" fraction
EndChar

StartChar: zero
Encoding: 48 48 19
Width: 1100
GlyphClass: 2
Flags: W
LayerCount: 2
Fore
SplineSet
550 1374 m 0,0,1
 362 1374 362 1374 329 1220 c 128,-1,2
 296 1066 296 1066 296 966 c 2,3,-1
 296 454 l 2,4,5
 296 350 296 350 331.5 198 c 128,-1,6
 367 46 367 46 521.5 46 c 128,-1,7
 676 46 676 46 740 166 c 128,-1,8
 804 286 804 286 804 454 c 2,9,-1
 804 966 l 2,10,11
 804 1136 804 1136 746 1254 c 0,12,13
 687 1374 687 1374 550 1374 c 0,0,1
552.5 1446 m 128,-1,15
 769 1446 769 1446 885 1311 c 128,-1,16
 1001 1176 1001 1176 1001 989 c 2,17,-1
 1001 498 l 2,18,19
 1001 -25 1001 -25 526 -25 c 0,20,21
 99 -25 99 -25 99 491 c 2,22,-1
 99 989 l 2,23,24
 99 1177 99 1177 217.5 1311.5 c 128,-1,14
 336 1446 336 1446 552.5 1446 c 128,-1,15
EndSplineSet
Substitution2: "'ordn' Ordinals in Latin lookup 6 subtable" uni2070
Substitution2: "'smcp' Lowercase to Small Capitals in Latin lookup 5 subtable" uni2080
EndChar

StartChar: one
Encoding: 49 49 20
Width: 1100
GlyphClass: 2
Flags: W
LayerCount: 2
Fore
SplineSet
412 21 m 2,0,-1
 412 23 l 2,1,2
 411 45 411 45 461.5 63 c 128,-1,3
 512 81 512 81 512 146 c 2,4,-1
 512 1252 l 1,5,-1
 308 1252 l 1,6,-1
 308 1299 l 1,7,-1
 692 1463 l 1,8,-1
 692 146 l 2,9,10
 692 80 692 80 742 63 c 0,11,12
 788 47 788 47 792 23 c 1,13,-1
 792 21 l 2,14,15
 795 0 795 0 772 0 c 2,16,-1
 432 0 l 2,17,18
 412 0 412 0 412 21 c 2,0,-1
EndSplineSet
Substitution2: "'ordn' Ordinals in Latin lookup 6 subtable" uni00B9
Substitution2: "'smcp' Lowercase to Small Capitals in Latin lookup 5 subtable" uni2081
EndChar

StartChar: two
Encoding: 50 50 21
Width: 1100
GlyphClass: 2
Flags: W
LayerCount: 2
Fore
SplineSet
152 0 m 1,0,-1
 152 78 l 2,1,2
 152 165 152 165 203 230 c 256,3,4
 254 295 254 295 366 415 c 1,5,6
 432 478 432 478 496.5 550.5 c 128,-1,7
 561 623 561 623 634 709.5 c 128,-1,8
 707 796 707 796 741 883.5 c 128,-1,9
 775 971 775 971 775 1032 c 128,-1,10
 775 1093 775 1093 750 1141 c 0,11,12
 697 1240 697 1240 597 1279 c 0,13,14
 539 1301 539 1301 483.5 1301 c 128,-1,15
 428 1301 428 1301 377 1289 c 0,16,17
 258 1259 258 1259 182 1147 c 0,18,19
 158 1111 158 1111 147 1080 c 1,20,-1
 143 1080 l 1,21,-1
 143 1210 l 1,22,23
 153 1238 153 1238 163 1257 c 0,24,25
 205 1325 205 1325 278.5 1377.5 c 128,-1,26
 352 1430 352 1430 457 1446 c 0,27,28
 499 1452 499 1452 540 1452 c 0,29,30
 673 1452 673 1452 793 1385 c 0,31,32
 950 1296 950 1296 953 1090 c 2,33,-1
 953 1086 l 2,34,35
 953 949 953 949 879.5 827 c 128,-1,36
 806 705 806 705 705 593 c 128,-1,37
 604 481 604 481 500 363.5 c 128,-1,38
 396 246 396 246 339 150 c 1,39,-1
 709 150 l 2,40,41
 838 150 838 150 955 192 c 1,42,-1
 957 42 l 1,43,44
 900 7 900 7 834 3.5 c 128,-1,45
 768 0 768 0 711 0 c 2,46,-1
 152 0 l 1,0,-1
EndSplineSet
Substitution2: "'ordn' Ordinals in Latin lookup 6 subtable" uni00B2
Substitution2: "'smcp' Lowercase to Small Capitals in Latin lookup 5 subtable" uni2082
EndChar

StartChar: three
Encoding: 51 51 22
Width: 1100
GlyphClass: 2
Flags: W
LayerCount: 2
Fore
SplineSet
393 -31 m 0,0,1
 265 -31 265 -31 171 42 c 1,2,-1
 166 209 l 1,3,-1
 172 209 l 1,4,5
 234 105 234 105 375 73 c 0,6,7
 426 61 426 61 490 61 c 128,-1,8
 554 61 554 61 623 97 c 0,9,10
 726 151 726 151 763 253 c 0,11,12
 783 308 783 308 783 359 c 128,-1,13
 783 410 783 410 769 456 c 0,14,15
 737 558 737 558 636 633.5 c 128,-1,16
 535 709 535 709 364 712 c 1,17,-1
 362 740 l 1,18,19
 431 762 431 762 520 801.5 c 128,-1,20
 609 841 609 841 652 914 c 128,-1,21
 695 987 695 987 695 1053 c 0,22,23
 695 1072 695 1072 692 1092 c 0,24,25
 677 1176 677 1176 612.5 1242.5 c 128,-1,26
 548 1309 548 1309 447 1309 c 0,27,28
 438 1309 438 1309 430 1308 c 0,29,30
 317 1301 317 1301 245 1214 c 0,31,32
 212 1174 212 1174 199 1128 c 1,33,-1
 195 1128 l 1,34,-1
 195 1283 l 1,35,36
 279 1375 279 1375 369 1410.5 c 128,-1,37
 459 1446 459 1446 542 1446 c 0,38,39
 770 1443 770 1443 846 1262 c 0,40,41
 867 1209 867 1209 867 1157 c 0,42,43
 867 1029 867 1029 734 903 c 0,44,45
 706 876 706 876 668 848 c 1,46,47
 812 777 812 777 873 671 c 128,-1,48
 934 565 934 565 934 458 c 0,49,50
 934 443 934 443 933 428 c 0,51,52
 915 212 915 212 710 65 c 0,53,54
 602 -12 602 -12 442 -28 c 0,55,56
 417 -31 417 -31 393 -31 c 0,0,1
EndSplineSet
Substitution2: "'ordn' Ordinals in Latin lookup 6 subtable" uni00B3
Substitution2: "'smcp' Lowercase to Small Capitals in Latin lookup 5 subtable" uni2083
EndChar

StartChar: four
Encoding: 52 52 23
Width: 1100
GlyphClass: 2
Flags: W
LayerCount: 2
Fore
SplineSet
650 146 m 2,0,-1
 650 415 l 1,1,-1
 68 415 l 1,2,-1
 68 529 l 1,3,-1
 650 1405 l 1,4,-1
 830 1405 l 1,5,-1
 830 556 l 1,6,-1
 1032 556 l 1,7,-1
 1032 415 l 1,8,-1
 830 415 l 1,9,-1
 830 146 l 2,10,11
 830 82 830 82 900.5 64 c 128,-1,12
 971 46 971 46 972 23 c 128,-1,13
 973 0 973 0 952 0 c 2,14,-1
 528 0 l 2,15,16
 505 1 505 1 506.5 23.5 c 128,-1,17
 508 46 508 46 579 63.5 c 128,-1,18
 650 81 650 81 650 146 c 2,0,-1
650 556 m 1,19,-1
 650 1246 l 1,20,-1
 196 556 l 1,21,-1
 650 556 l 1,19,-1
EndSplineSet
Substitution2: "'ordn' Ordinals in Latin lookup 6 subtable" uni2074
Substitution2: "'smcp' Lowercase to Small Capitals in Latin lookup 5 subtable" uni2084
EndChar

StartChar: five
Encoding: 53 53 24
Width: 1100
GlyphClass: 2
Flags: W
LayerCount: 2
Fore
SplineSet
800 450 m 2,0,-1
 800 477 l 2,1,2
 800 483 800 483 800 489 c 0,3,4
 800 529 800 529 772 591 c 0,5,6
 733 687 733 687 632 741 c 1,7,8
 554 776 554 776 482 776 c 0,9,10
 368 776 368 776 270 688 c 1,11,12
 240 653 240 653 193 653 c 0,13,14
 183 653 183 653 172 655 c 0,15,16
 158 655 158 655 144 656 c 128,-1,17
 130 657 130 657 130 687 c 2,18,-1
 130 1371 l 2,19,20
 130 1397 130 1397 135 1401 c 128,-1,21
 140 1405 140 1405 176 1405 c 2,22,-1
 670 1405 l 2,23,24
 705 1405 705 1405 779.5 1401 c 128,-1,25
 854 1397 854 1397 908 1363 c 1,26,-1
 908 1189 l 1,27,28
 798 1230 798 1230 670 1230 c 2,29,-1
 226 1230 l 1,30,-1
 226 762 l 1,31,32
 319 820 319 820 402 852 c 0,33,34
 485 886 485 886 565 886 c 0,35,36
 608 886 608 886 651 876 c 0,37,38
 774 848 774 848 858 769 c 1,39,40
 994 653 994 653 994 450 c 0,41,42
 994 424 994 424 992 396 c 0,43,44
 967 225 967 225 848 112 c 0,45,46
 710 -20 710 -20 456 -24 c 0,47,48
 254 -24 254 -24 108 70 c 1,49,-1
 108 259 l 1,50,-1
 112 259 l 1,51,52
 162 170 162 170 264 125 c 0,53,54
 363 81 363 81 460 81 c 0,55,56
 480 80 480 80 498 82 c 0,57,58
 612 92 612 92 696 184 c 1,59,60
 797 286 797 286 800 450 c 2,0,-1
EndSplineSet
Substitution2: "'ordn' Ordinals in Latin lookup 6 subtable" uni2075
Substitution2: "'smcp' Lowercase to Small Capitals in Latin lookup 5 subtable" uni2085
EndChar

StartChar: six
Encoding: 54 54 25
Width: 1100
GlyphClass: 2
Flags: W
LayerCount: 2
Fore
SplineSet
323.5 768.5 m 128,-1,1
 236 637 236 637 236 458.5 c 128,-1,2
 236 280 236 280 322.5 161.5 c 128,-1,3
 409 43 409 43 526 43 c 2,4,-1
 538 43 l 1,5,6
 662 49 662 49 750 180.5 c 128,-1,7
 838 312 838 312 838 491 c 256,8,9
 838 670 838 670 751.5 788.5 c 128,-1,10
 665 907 665 907 548 907 c 2,11,-1
 536 907 l 1,12,0
 411 900 411 900 323.5 768.5 c 128,-1,1
526 971 m 0,13,14
 558 971 558 971 592 967 c 0,15,16
 757 949 757 949 865 850 c 0,17,18
 1029 700 1029 700 1030 484 c 2,19,-1
 1030 481 l 2,20,21
 1030 268 1030 268 889 122 c 0,22,23
 747 -26 747 -26 554 -26 c 2,24,-1
 539 -26 l 1,25,26
 331 -20 331 -20 200 122 c 128,-1,27
 69 264 69 264 69 466 c 2,28,-1
 69 475 l 2,29,30
 72 796 72 796 210.5 1023 c 128,-1,31
 349 1250 349 1250 597 1420 c 0,32,33
 624 1438 624 1438 636.5 1444.5 c 128,-1,34
 649 1451 649 1451 681 1451 c 2,35,-1
 750 1450 l 2,36,37
 793 1450 793 1450 793 1443 c 128,-1,38
 793 1436 793 1436 777 1428 c 0,39,40
 609 1311 609 1311 500 1197.5 c 128,-1,41
 391 1084 391 1084 301 914 c 1,42,43
 400 971 400 971 526 971 c 0,13,14
EndSplineSet
Substitution2: "'ordn' Ordinals in Latin lookup 6 subtable" uni2076
Substitution2: "'smcp' Lowercase to Small Capitals in Latin lookup 5 subtable" uni2086
EndChar

StartChar: seven
Encoding: 55 55 26
Width: 1100
GlyphClass: 2
Flags: W
LayerCount: 2
Fore
SplineSet
384 153 m 0,0,1
 346 79 346 79 328 0 c 1,2,-1
 158 0 l 1,3,4
 156 15 156 15 156 25 c 0,5,6
 156 71 156 71 178 123 c 0,7,8
 205 186 205 186 228 232 c 0,9,10
 302 376 302 376 524 756 c 0,11,12
 694 1047 694 1047 802 1230 c 1,13,-1
 404 1230 l 2,14,15
 274 1230 274 1230 166 1189 c 1,16,-1
 166 1363 l 1,17,18
 216 1395 216 1395 284 1400 c 0,19,20
 348 1405 348 1405 404 1405 c 2,21,-1
 898 1405 l 2,22,23
 934 1405 934 1405 939 1400 c 0,24,25
 945 1394 945 1394 944 1358 c 0,26,27
 943 1291 943 1291 914 1230 c 0,28,29
 780 961 780 961 648 691.5 c 128,-1,30
 516 422 516 422 384 153 c 0,0,1
EndSplineSet
Substitution2: "'ordn' Ordinals in Latin lookup 6 subtable" uni2077
Substitution2: "'smcp' Lowercase to Small Capitals in Latin lookup 5 subtable" uni2087
EndChar

StartChar: eight
Encoding: 56 56 27
Width: 1100
GlyphClass: 2
Flags: W
LayerCount: 2
Fore
SplineSet
771.5 678 m 128,-1,1
 684 756 684 756 559 756 c 0,2,3
 433 756 433 756 345 674 c 0,4,5
 256 591 256 591 256 406 c 0,6,7
 256 404 256 404 256 402 c 0,8,9
 258 214 258 214 335 134 c 128,-1,10
 412 54 412 54 558.5 54 c 128,-1,11
 705 54 705 54 782.5 132.5 c 128,-1,12
 860 211 860 211 860 405 c 0,13,0
 859 600 859 600 771.5 678 c 128,-1,1
128 1102 m 0,14,15
 129 1278 129 1278 254 1363 c 128,-1,16
 379 1448 379 1448 588 1448 c 128,-1,17
 797 1448 797 1448 900 1349 c 0,18,19
 998 1253 998 1253 998 1100 c 0,20,21
 998 1094 998 1094 998 1088 c 0,22,23
 992 852 992 852 730 796 c 1,24,25
 869 761 869 761 956 664 c 0,26,27
 1050 564 1050 564 1050 374 c 2,28,-1
 1050 372 l 2,29,30
 1050 182 1050 182 910 83 c 0,31,32
 768 -20 768 -20 540 -20 c 0,33,34
 539 -20 539 -20 538 -20 c 0,35,36
 311 -20 311 -20 181 88 c 0,37,38
 50 196 50 196 50 402 c 0,39,40
 51 563 51 563 142.5 662 c 128,-1,41
 234 761 234 761 382 797 c 1,42,43
 128 857 128 857 128 1102 c 0,14,15
374 1301 m 128,-1,45
 316 1219 316 1219 315 1104 c 0,46,47
 315 1100 315 1100 315 1095 c 0,48,49
 316 987 316 987 364 908 c 0,50,51
 414 826 414 826 564 826 c 1,52,-1
 566 825 l 1,53,54
 715 825 715 825 764.5 907 c 128,-1,55
 814 989 814 989 814 1104.5 c 128,-1,56
 814 1220 814 1220 754.5 1301.5 c 128,-1,57
 695 1383 695 1383 563.5 1383 c 128,-1,44
 432 1383 432 1383 374 1301 c 128,-1,45
EndSplineSet
Substitution2: "'ordn' Ordinals in Latin lookup 6 subtable" uni2078
Substitution2: "'smcp' Lowercase to Small Capitals in Latin lookup 5 subtable" uni2088
EndChar

StartChar: less
Encoding: 60 60 31
Width: 1100
GlyphClass: 2
Flags: W
LayerCount: 2
Fore
SplineSet
184 607 m 2,0,1
 175 616 175 616 174 629 c 0,2,3
 173 644 173 644 194 665 c 2,4,-1
 812 1268 l 2,5,6
 832 1287 832 1287 848 1287 c 0,7,8
 860 1287 860 1287 870 1277 c 2,9,-1
 918 1228 l 2,10,11
 925 1219 925 1219 926 1206 c 0,12,13
 927 1190 927 1190 908 1170 c 2,14,-1
 356 631 l 1,15,-1
 908 93 l 2,16,17
 924 75 924 75 926 56 c 0,18,19
 927 45 927 45 918 35 c 2,20,-1
 870 -13 l 2,21,22
 860 -23 860 -23 848 -23 c 0,23,24
 832 -23 832 -23 812 -4 c 2,25,-1
 184 607 l 2,0,1
EndSplineSet
EndChar

StartChar: question
Encoding: 63 63 34
Width: 784
GlyphClass: 2
Flags: W
LayerCount: 2
Fore
SplineSet
376 230 m 128,-1,1
 486 230 486 230 486 143 c 2,2,-1
 486 61 l 2,3,4
 486 -25 486 -25 376 -25 c 128,-1,5
 266 -25 266 -25 266 61 c 2,6,-1
 266 143 l 2,7,0
 266 230 266 230 376 230 c 128,-1,1
419 496 m 2,8,9
 419 443 419 443 409 413 c 0,10,11
 398 387 398 387 379 387 c 0,12,13
 362 387 362 387 352 417 c 0,14,15
 341 446 341 446 341 497 c 2,16,-1
 341 804 l 1,17,18
 465 892 465 892 511 964 c 0,19,20
 558 1038 558 1038 558 1138 c 0,21,22
 558 1247 558 1247 513 1303 c 0,23,24
 468 1357 468 1357 378 1357 c 0,25,26
 299 1357 299 1357 262 1307 c 0,27,28
 225 1255 225 1255 215 1124 c 0,29,30
 213 1101 213 1101 195 1089 c 0,31,32
 177 1076 177 1076 144 1076 c 0,33,34
 110 1076 110 1076 93 1089 c 0,35,36
 78 1102 78 1102 78 1132 c 0,37,38
 78 1265 78 1265 165 1343 c 0,39,40
 252 1420 252 1420 401 1420 c 0,41,42
 555 1420 555 1420 644 1345 c 0,43,44
 731 1270 731 1270 731 1139 c 0,45,46
 731 975 731 975 564 871 c 0,47,48
 546 860 546 860 521 845 c 0,49,50
 460 806 460 806 444 773 c 0,51,52
 426 742 426 742 423 668 c 2,53,-1
 419 496 l 2,8,9
EndSplineSet
EndChar

StartChar: at
Encoding: 64 64 35
Width: 2119
GlyphClass: 2
Flags: W
LayerCount: 2
Fore
SplineSet
1839 178 m 0,0,1
 1788 112 1788 112 1721.5 56 c 128,-1,2
 1655 0 1655 0 1578 -31 c 0,3,4
 1489 -69 1489 -69 1403 -69 c 0,5,6
 1339 -69 1339 -69 1277 -48 c 0,7,8
 1182 -15 1182 -15 1182 87 c 2,9,-1
 1182 91 l 1,10,-1
 874 -14 l 2,11,12
 841 -25 841 -25 819 -25 c 2,13,-1
 778 -25 l 1,14,15
 636 -18 636 -18 560 91 c 0,16,17
 499 176 499 176 499 300 c 0,18,19
 499 411 499 411 544 523 c 128,-1,20
 589 635 589 635 654 711 c 0,21,22
 691 755 691 755 765 803 c 0,23,24
 789 818 789 818 820 830 c 0,25,26
 907 860 907 860 994.5 890 c 128,-1,27
 1082 920 1082 920 1170 950 c 0,28,29
 1188 956 1188 956 1204 956 c 2,30,-1
 1209 956 l 2,31,32
 1272 953 1272 953 1356 924 c 0,33,34
 1362 922 1362 922 1365 920 c 0,35,36
 1385 911 1385 911 1415 900 c 0,37,38
 1427 896 1427 896 1437 896 c 0,39,40
 1455 896 1455 896 1467 905 c 0,41,42
 1493 925 1493 925 1504 937 c 0,43,44
 1510 944 1510 944 1519 942 c 128,-1,45
 1528 940 1528 940 1528 940 c 2,46,47
 1546 932 1546 932 1546 922 c 2,48,-1
 1546 920 l 1,49,-1
 1379 199 l 2,50,51
 1370 159 1370 159 1370 128 c 0,52,53
 1370 40 1370 40 1442 22 c 0,54,55
 1460 17 1460 17 1479 17 c 0,56,57
 1517 17 1517 17 1561 35 c 0,58,59
 1629 61 1629 61 1684 112 c 0,60,61
 1774 194 1774 194 1834 350 c 0,62,63
 1894 508 1894 508 1894 699 c 0,64,65
 1894 1042 1894 1042 1682 1206 c 256,66,67
 1470 1370 1470 1370 1166 1370 c 0,68,69
 939 1370 939 1370 719 1257 c 0,70,71
 498 1145 498 1145 360 912 c 0,72,73
 222 681 222 681 222 387 c 0,74,75
 222 158 222 158 314 -29 c 0,76,77
 405 -215 405 -215 583 -320 c 0,78,79
 758 -424 758 -424 1005 -424 c 0,80,81
 1213 -424 1213 -424 1398 -351 c 0,82,83
 1566 -284 1566 -284 1696 -176 c 0,84,85
 1700 -172 1700 -172 1705 -172 c 0,86,87
 1711 -172 1711 -172 1718 -179 c 256,88,89
 1725 -186 1725 -186 1725 -196 c 0,90,91
 1725 -205 1725 -205 1720 -215 c 0,92,93
 1709 -239 1709 -239 1695 -252 c 0,94,95
 1548 -388 1548 -388 1360.5 -447.5 c 128,-1,96
 1173 -507 1173 -507 960 -507 c 0,97,98
 560 -507 560 -507 304 -255 c 0,99,100
 48 -2 48 -2 48 388 c 0,101,102
 48 832 48 832 369 1138 c 0,103,104
 690 1442 690 1442 1157 1442 c 0,105,106
 1531 1442 1531 1442 1775 1240 c 0,107,108
 2019 1036 2019 1036 2019 702 c 0,109,110
 2019 413 2019 413 1839 178 c 0,0,1
1187 145 m 1,111,-1
 1330 769 l 1,112,113
 1298 807 1298 807 1238.5 839.5 c 128,-1,114
 1179 872 1179 872 1127 874 c 2,115,-1
 1123 874 l 2,116,117
 1103 874 1103 874 1082 866 c 0,118,119
 1043 853 1043 853 1004 839.5 c 128,-1,120
 965 826 965 826 926 813 c 0,121,122
 900 804 900 804 880 787 c 0,123,124
 803 721 803 721 759.5 627 c 128,-1,125
 716 533 716 533 702 441 c 0,126,127
 694 394 694 394 694 352 c 0,128,129
 694 267 694 267 726 207 c 0,130,131
 773 114 773 114 866 86 c 0,132,133
 903 75 903 75 941 75 c 0,134,135
 953 75 953 75 966 76 c 0,136,137
 989 78 989 78 1022 89 c 0,138,139
 1044 96 1044 96 1097 114.5 c 128,-1,140
 1150 133 1150 133 1187 145 c 1,111,-1
EndSplineSet
EndChar

StartChar: A
Encoding: 65 65 36
Width: 1593
GlyphClass: 2
Flags: W
LayerCount: 2
Fore
SplineSet
1546 13.5 m 128,-1,1
 1546 10 1546 10 1543.5 5 c 128,-1,2
 1541 0 1541 0 1532 0 c 2,3,-1
 1194 0 l 2,4,5
 1185 0 1185 0 1175.5 6.5 c 128,-1,6
 1166 13 1166 13 1164 18.5 c 128,-1,7
 1162 24 1162 24 1162 30 c 128,-1,8
 1162 36 1162 36 1172.5 45.5 c 128,-1,9
 1183 55 1183 55 1196 65 c 128,-1,10
 1209 75 1209 75 1213.5 87.5 c 128,-1,11
 1218 100 1218 100 1218 114 c 0,12,13
 1218 129 1218 129 1210 147 c 2,14,-1
 1062 489 l 1,15,-1
 479 489 l 1,16,17
 443 403 443 403 407.5 317.5 c 128,-1,18
 372 232 372 232 349.5 179.5 c 128,-1,19
 327 127 327 127 326 115.5 c 128,-1,20
 325 104 325 104 325 95.5 c 128,-1,21
 325 87 325 87 328 76 c 128,-1,22
 331 65 331 65 338 56.5 c 128,-1,23
 345 48 345 48 347 39.5 c 128,-1,24
 349 31 349 31 349 28 c 256,25,26
 349 25 349 25 347 21 c 0,27,28
 340 0 340 0 325 0 c 2,29,-1
 67 0 l 2,30,31
 47 0 47 0 52 21 c 0,32,33
 56 39 56 39 86 52 c 128,-1,34
 116 65 116 65 155 83 c 1,35,36
 193 110 193 110 209 146 c 2,37,-1
 776 1427 l 1,38,-1
 838 1427 l 1,39,40
 888 1309 888 1309 961.5 1138 c 128,-1,41
 1035 967 1035 967 1113.5 786 c 128,-1,42
 1192 605 1192 605 1265.5 434 c 128,-1,43
 1339 263 1339 263 1390 146 c 0,44,45
 1405 109 1405 109 1438.5 86.5 c 128,-1,46
 1472 64 1472 64 1494.5 54 c 128,-1,47
 1517 44 1517 44 1529 36 c 128,-1,48
 1541 28 1541 28 1543.5 22.5 c 128,-1,0
 1546 17 1546 17 1546 13.5 c 128,-1,1
1027 570 m 1,49,-1
 766 1179 l 1,50,51
 702 1026 702 1026 638.5 874 c 128,-1,52
 575 722 575 722 512 570 c 1,53,-1
 1027 570 l 1,49,-1
EndSplineSet
Substitution2: "'sups' Superscript in Latin lookup 7 subtable" uni1D00
EndChar

StartChar: B
Encoding: 66 66 37
Width: 1240
GlyphClass: 2
Flags: W
LayerCount: 2
Fore
SplineSet
704 1405 m 2,0,1
 802 1405 802 1405 908.5 1370 c 128,-1,2
 1015 1335 1015 1335 1072 1235 c 0,3,4
 1118 1155 1118 1155 1118 1041 c 0,5,6
 1116 933 1116 933 1056 849 c 0,7,8
 1013 786 1013 786 923 745 c 1,9,10
 1065 699 1065 699 1131 586 c 0,11,12
 1181 497 1181 497 1181 372 c 0,13,14
 1179 253 1179 253 1113 160 c 0,15,16
 1056 79 1056 79 952 39.5 c 128,-1,17
 848 0 848 0 761 0 c 2,18,-1
 134 0 l 2,19,20
 113 0 113 0 113 21 c 0,21,22
 113 46 113 46 163 64 c 128,-1,23
 213 82 213 82 213 146 c 2,24,-1
 213 1258 l 2,25,26
 213 1321 213 1321 163 1339 c 128,-1,27
 113 1357 113 1357 113 1383 c 0,28,29
 113 1405 113 1405 134 1405 c 2,30,-1
 704 1405 l 2,0,1
393 687 m 1,31,-1
 393 73 l 1,32,-1
 619 73 l 2,33,34
 692 73 692 73 766.5 94.5 c 128,-1,35
 841 116 841 116 895 169 c 0,36,37
 978 250 978 250 978 383 c 0,38,39
 978 511 978 511 891 597 c 0,40,41
 797 687 797 687 640 687 c 2,42,-1
 393 687 l 1,31,-1
393 774 m 1,43,-1
 669 774 l 1,44,45
 787 787 787 787 859 856 c 0,46,47
 934 929 934 929 934 1050 c 0,48,49
 934 1168 934 1168 855 1244 c 0,50,51
 770 1325 770 1325 629 1325 c 2,52,-1
 393 1325 l 1,53,-1
 393 774 l 1,43,-1
EndSplineSet
Substitution2: "'sups' Superscript in Latin lookup 7 subtable" uni0299
EndChar

StartChar: C
Encoding: 67 67 38
Width: 1405
GlyphClass: 2
Flags: W
LayerCount: 2
Fore
SplineSet
848 -37 m 0,0,1
 541 -37 541 -37 304 159 c 128,-1,2
 67 355 67 355 67 701 c 0,3,4
 67 1038 67 1038 297.5 1241.5 c 128,-1,5
 528 1445 528 1445 848 1445 c 0,6,7
 963 1445 963 1445 1092.5 1419.5 c 128,-1,8
 1222 1394 1222 1394 1339 1319 c 1,9,-1
 1315 1109 l 2,10,11
 1311 1091 1311 1091 1295 1091 c 2,12,-1
 1292 1091 l 2,13,14
 1280 1092 1280 1092 1266 1119 c 0,15,16
 1208 1244 1208 1244 1092 1303 c 0,17,18
 984 1356 984 1356 862 1356 c 2,19,-1
 841 1356 l 1,20,21
 571 1344 571 1344 419 1140 c 0,22,23
 282 957 282 957 282 735 c 0,24,25
 282 710 282 710 284 685 c 0,26,27
 298 455 298 455 446 266 c 128,-1,28
 594 77 594 77 848 65 c 0,29,30
 872 64 872 64 894 64 c 0,31,32
 1022 64 1022 64 1105 103 c 0,33,34
 1201 149 1201 149 1266 288 c 0,35,36
 1279 316 1279 316 1298 316 c 0,37,38
 1302 316 1302 316 1306 315 c 0,39,40
 1322 309 1322 309 1322 292 c 0,41,42
 1322 284 1322 284 1318 274 c 2,43,-1
 1231 31 l 1,44,45
 1135 -9 1135 -9 1036 -23 c 128,-1,46
 937 -37 937 -37 848 -37 c 0,0,1
EndSplineSet
Substitution2: "'sups' Superscript in Latin lookup 7 subtable" uni1D04
EndChar

StartChar: D
Encoding: 68 68 39
Width: 1585
GlyphClass: 2
Flags: W
LayerCount: 2
Fore
SplineSet
399 100 m 1,0,1
 525 76 525 76 639 76 c 0,2,3
 682 76 682 76 724 79 c 0,4,5
 1074 109 1074 109 1216 380 c 0,6,7
 1290 520 1290 520 1290 736 c 2,8,-1
 1290 769 l 1,9,10
 1277 1082 1277 1082 1091 1216 c 0,11,12
 934 1334 934 1334 677 1334 c 0,13,14
 664 1334 664 1334 651 1334 c 0,15,16
 528 1334 528 1334 399 1313 c 1,17,-1
 399 100 l 1,0,1
214 1405 m 2,18,-1
 527 1413 l 2,19,20
 548 1413 548 1413 569 1413 c 0,21,22
 581 1413 581 1413 593 1413 c 0,23,24
 700 1413 700 1413 849 1405 c 0,25,26
 1017 1396 1017 1396 1160 1334 c 128,-1,27
 1303 1272 1303 1272 1394 1144 c 0,28,29
 1499 996 1499 996 1502 727 c 0,30,31
 1502 561 1502 561 1434 416 c 0,32,33
 1367 272 1367 272 1235 169 c 0,34,35
 1012 -5 1012 -5 689 -9 c 1,36,-1
 609 -9 l 2,37,38
 551 -9 551 -9 500 -6 c 2,39,-1
 383 -6 l 2,40,41
 300 -6 300 -6 257 -3 c 2,42,-1
 233 -3 l 2,43,44
 193 -3 193 -3 129 -9 c 0,45,46
 108 -9 108 -9 108 14.5 c 128,-1,47
 108 38 108 38 158 56 c 128,-1,48
 208 74 208 74 208 139 c 2,49,-1
 208 1262 l 2,50,51
 208 1326 208 1326 158 1343.5 c 128,-1,52
 108 1361 108 1361 108 1387 c 0,53,54
 108 1410 108 1410 129 1408 c 0,55,56
 171 1405 171 1405 214 1405 c 2,18,-1
EndSplineSet
Substitution2: "'sups' Superscript in Latin lookup 7 subtable" uni1D05
EndChar

StartChar: E
Encoding: 69 69 40
Width: 1251
GlyphClass: 2
Flags: W
LayerCount: 2
Fore
SplineSet
436 94 m 1,0,-1
 863 94 l 2,1,2
 956 94 956 94 1020.5 165.5 c 128,-1,3
 1085 237 1085 237 1118 277 c 0,4,5
 1136 299 1136 299 1146 299 c 0,6,7
 1167 299 1167 299 1167 278 c 0,8,9
 1167 265 1167 265 1165 257 c 2,10,-1
 1092 0 l 1,11,-1
 173 0 l 2,12,13
 155 0 155 0 155 21 c 0,14,15
 155 46 155 46 205 63.5 c 128,-1,16
 255 81 255 81 255 146 c 2,17,-1
 255 1257 l 2,18,19
 255 1322 255 1322 205 1339.5 c 128,-1,20
 155 1357 155 1357 155 1383 c 0,21,22
 155 1405 155 1405 176 1405 c 2,23,-1
 1104 1405 l 1,24,-1
 1104 1147 l 2,25,26
 1104 1126 1104 1126 1083 1126 c 0,27,28
 1073 1126 1073 1126 1046 1166 c 0,29,30
 996 1235 996 1235 959.5 1273 c 128,-1,31
 923 1311 923 1311 863 1311 c 2,32,-1
 436 1311 l 1,33,-1
 436 768 l 1,34,-1
 665 768 l 2,35,36
 729 768 729 768 749 819.5 c 128,-1,37
 769 871 769 871 795 871 c 0,38,39
 815 871 815 871 815 850 c 2,40,-1
 815 596 l 2,41,42
 815 575 815 575 795 575 c 0,43,44
 769 575 769 575 746 626 c 128,-1,45
 723 677 723 677 659 677 c 2,46,-1
 436 677 l 1,47,-1
 436 94 l 1,0,-1
EndSplineSet
Substitution2: "'sups' Superscript in Latin lookup 7 subtable" uni1D07
EndChar

StartChar: F
Encoding: 70 70 41
Width: 1139
GlyphClass: 2
Flags: W
LayerCount: 2
Fore
SplineSet
174 0 m 2,0,1
 155 0 155 0 155 21 c 0,2,3
 155 33 155 33 176 46 c 0,4,5
 191 56 191 56 211.5 69 c 128,-1,6
 232 82 232 82 245 104 c 0,7,8
 255 124 255 124 255 146 c 2,9,-1
 255 1257 l 2,10,11
 255 1322 255 1322 205 1339.5 c 128,-1,12
 155 1357 155 1357 155 1383 c 0,13,14
 155 1405 155 1405 176 1405 c 2,15,-1
 1104 1405 l 1,16,-1
 1104 1147 l 2,17,18
 1104 1126 1104 1126 1083 1126 c 0,19,20
 1073 1126 1073 1126 1046 1166 c 0,21,22
 996 1235 996 1235 959.5 1273 c 128,-1,23
 923 1311 923 1311 863 1311 c 2,24,-1
 436 1311 l 1,25,-1
 436 768 l 1,26,-1
 665 768 l 2,27,28
 707 768 707 768 739 805 c 0,29,30
 757 827 757 827 768 849 c 128,-1,31
 779 871 779 871 795 871 c 0,32,33
 815 871 815 871 815 850 c 2,34,-1
 815 596 l 2,35,36
 815 575 815 575 795 575 c 0,37,38
 777 575 777 575 764.5 600.5 c 128,-1,39
 752 626 752 626 731 650 c 0,40,41
 703 678 703 678 665 678 c 2,42,-1
 436 678 l 1,43,-1
 436 146 l 2,44,45
 436 118 436 118 449 97 c 0,46,47
 461 79 461 79 479 67.5 c 128,-1,48
 497 56 497 56 512 47 c 0,49,50
 535 33 535 33 535 21 c 0,51,52
 535 15 535 15 534 12 c 0,53,54
 527 0 527 0 515 0 c 2,55,-1
 174 0 l 2,0,1
EndSplineSet
Substitution2: "'sups' Superscript in Latin lookup 7 subtable" uniA730
EndChar

StartChar: G
Encoding: 71 71 42
Width: 1563
GlyphClass: 2
Flags: W
LayerCount: 2
Fore
SplineSet
848 -37 m 0,0,1
 541 -37 541 -37 304 159 c 128,-1,2
 67 355 67 355 67 701 c 0,3,4
 67 1038 67 1038 297.5 1241.5 c 128,-1,5
 528 1445 528 1445 848 1445 c 0,6,7
 963 1445 963 1445 1092.5 1419.5 c 128,-1,8
 1222 1394 1222 1394 1339 1319 c 1,9,-1
 1315 1109 l 2,10,11
 1311 1091 1311 1091 1295 1091 c 2,12,-1
 1292 1091 l 2,13,14
 1280 1092 1280 1092 1266 1119 c 0,15,16
 1201 1258 1201 1258 1104.5 1304 c 128,-1,17
 1008 1350 1008 1350 848 1350 c 0,18,19
 625 1350 625 1350 451 1195 c 128,-1,20
 277 1040 277 1040 277 701 c 0,21,22
 277 483 277 483 439.5 280 c 128,-1,23
 602 77 602 77 848 65 c 0,24,25
 872 64 872 64 894 64 c 0,26,27
 1008 64 1008 64 1086 94 c 0,28,29
 1179 130 1179 130 1242 240 c 1,30,-1
 1242 428 l 2,31,32
 1240 459 1240 459 1210 476 c 0,33,34
 1183 490 1183 490 1131 511.5 c 128,-1,35
 1079 533 1079 533 1079 554 c 256,36,37
 1079 575 1079 575 1100 575 c 2,38,-1
 1501 575 l 2,39,40
 1522 575 1522 575 1522 554 c 0,41,42
 1522 528 1522 528 1472 510 c 128,-1,43
 1422 492 1422 492 1422 428 c 2,44,-1
 1422 39 l 1,45,46
 1268 32 1268 32 1125 -4 c 0,47,48
 1053 -23 1053 -23 983 -30 c 128,-1,49
 913 -37 913 -37 848 -37 c 0,0,1
EndSplineSet
Substitution2: "'sups' Superscript in Latin lookup 7 subtable" uni0262
EndChar

StartChar: I
Encoding: 73 73 44
Width: 690
GlyphClass: 2
Flags: W
LayerCount: 2
Fore
SplineSet
435 1256 m 2,0,-1
 435 147 l 2,1,2
 435 81 435 81 485 63.5 c 128,-1,3
 535 46 535 46 535 21 c 0,4,5
 535 0 535 0 514 0 c 2,6,-1
 175 0 l 2,7,8
 155 0 155 0 155 21 c 0,9,10
 155 46 155 46 205 63.5 c 128,-1,11
 255 81 255 81 255 146 c 2,12,-1
 255 1256 l 2,13,14
 255 1321 255 1321 205 1338.5 c 128,-1,15
 155 1356 155 1356 155 1382 c 0,16,17
 155 1404 155 1404 176 1404 c 2,18,-1
 514 1404 l 2,19,20
 535 1404 535 1404 535 1382 c 0,21,22
 535 1356 535 1356 485 1338.5 c 128,-1,23
 435 1321 435 1321 435 1256 c 2,0,-1
EndSplineSet
Substitution2: "'sups' Superscript in Latin lookup 7 subtable" uni026A
EndChar

StartChar: J
Encoding: 74 74 45
Width: 682
GlyphClass: 2
Flags: W
LayerCount: 2
Fore
SplineSet
430 180 m 2,0,1
 430 -17 430 -17 403.5 -113 c 128,-1,2
 377 -209 377 -209 312 -277 c 0,3,4
 222 -369 222 -369 110 -399 c 1,5,-1
 110 -349 l 1,6,7
 149 -325 149 -325 183 -288 c 0,8,9
 217 -250 217 -250 236 -189 c 0,10,11
 249 -147 249 -147 249 -74 c 0,12,13
 249 -37 249 -37 249 25 c 128,-1,14
 249 87 249 87 249 174 c 2,15,-1
 249 1258 l 2,16,17
 249 1322 249 1322 199 1340 c 128,-1,18
 149 1358 149 1358 149 1384 c 0,19,20
 149 1405 149 1405 170 1405 c 2,21,-1
 509 1405 l 2,22,23
 530 1405 530 1405 530 1384 c 0,24,25
 530 1358 530 1358 480 1340 c 128,-1,26
 430 1322 430 1322 430 1258 c 2,27,-1
 430 180 l 2,0,1
EndSplineSet
Substitution2: "'sups' Superscript in Latin lookup 7 subtable" uni1D0A
EndChar

StartChar: L
Encoding: 76 76 47
Width: 1251
GlyphClass: 2
Flags: W
LayerCount: 2
Fore
SplineSet
436 94 m 1,0,-1
 863 94 l 2,1,2
 956 94 956 94 1020.5 165.5 c 128,-1,3
 1085 237 1085 237 1118 277 c 0,4,5
 1136 299 1136 299 1146 299 c 0,6,7
 1167 299 1167 299 1167 278 c 0,8,9
 1167 265 1167 265 1165 257 c 2,10,-1
 1092 0 l 1,11,-1
 176 0 l 2,12,13
 155 0 155 0 155 21 c 0,14,15
 155 46 155 46 205 63.5 c 128,-1,16
 255 81 255 81 255 146 c 2,17,-1
 255 1257 l 2,18,19
 255 1321 255 1321 205 1339 c 128,-1,20
 155 1357 155 1357 155 1383 c 0,21,22
 155 1405 155 1405 176 1405 c 2,23,-1
 515 1405 l 2,24,25
 535 1405 535 1405 535 1383 c 0,26,27
 535 1357 535 1357 485 1339 c 128,-1,28
 435 1321 435 1321 435 1257 c 2,29,-1
 436 94 l 1,0,-1
EndSplineSet
Substitution2: "'sups' Superscript in Latin lookup 7 subtable" uni029F
EndChar

StartChar: M
Encoding: 77 77 48
Width: 1908
GlyphClass: 2
Flags: W
LayerCount: 2
Fore
SplineSet
1697 1257 m 2,0,-1
 1697 146 l 2,1,2
 1697 81 1697 81 1747.5 63.5 c 128,-1,3
 1798 46 1798 46 1798 21 c 0,4,5
 1798 0 1798 0 1777 0 c 2,6,-1
 1438 0 l 2,7,8
 1417 0 1417 0 1417 21 c 0,9,10
 1417 46 1417 46 1467 63.5 c 128,-1,11
 1517 81 1517 81 1517 146 c 2,12,-1
 1517 1217 l 1,13,-1
 940 -30 l 1,14,-1
 901 -30 l 1,15,-1
 330 1170 l 1,16,-1
 330 146 l 2,17,18
 330 81 330 81 380 63.5 c 128,-1,19
 430 46 430 46 430 21 c 0,20,21
 430 0 430 0 409 0 c 2,22,-1
 155 0 l 2,23,24
 134 0 134 0 134 21 c 0,25,26
 134 46 134 46 184 63.5 c 128,-1,27
 234 81 234 81 234 146 c 2,28,-1
 234 1257 l 2,29,30
 234 1321 234 1321 184 1339 c 128,-1,31
 134 1357 134 1357 134 1383 c 0,32,33
 134 1405 134 1405 155 1405 c 2,34,-1
 421 1405 l 1,35,-1
 968 282 l 1,36,-1
 1498 1405 l 1,37,-1
 1777 1405 l 2,38,39
 1798 1405 1798 1405 1798 1383 c 0,40,41
 1798 1357 1798 1357 1747.5 1339 c 128,-1,42
 1697 1321 1697 1321 1697 1257 c 2,0,-1
EndSplineSet
Substitution2: "'sups' Superscript in Latin lookup 7 subtable" uni1D0D
EndChar

StartChar: N
Encoding: 78 78 49
Width: 1644
GlyphClass: 2
Flags: W
LayerCount: 2
Fore
SplineSet
1369 203 m 1,0,-1
 1369 1257 l 2,1,2
 1369 1321 1369 1321 1319.5 1339 c 128,-1,3
 1270 1357 1270 1357 1270 1383 c 0,4,5
 1270 1405 1270 1405 1290 1405 c 2,6,-1
 1545 1405 l 2,7,8
 1566 1405 1566 1405 1566 1383 c 0,9,10
 1566 1357 1566 1357 1516 1339 c 128,-1,11
 1466 1321 1466 1321 1466 1257 c 2,12,-1
 1465 -43 l 1,13,-1
 1288 0 l 1,14,-1
 330 1189 l 1,15,-1
 330 146 l 2,16,17
 330 81 330 81 380 63.5 c 128,-1,18
 430 46 430 46 430 21 c 0,19,20
 430 0 430 0 409 0 c 2,21,-1
 155 0 l 2,22,23
 134 0 134 0 134 21 c 0,24,25
 134 46 134 46 184 63.5 c 128,-1,26
 234 81 234 81 234 146 c 2,27,-1
 234 1257 l 2,28,29
 234 1321 234 1321 184 1339 c 128,-1,30
 134 1357 134 1357 134 1383 c 0,31,32
 134 1405 134 1405 155 1405 c 2,33,-1
 412 1405 l 1,34,-1
 1369 203 l 1,0,-1
EndSplineSet
Substitution2: "'sups' Superscript in Latin lookup 7 subtable" uni0274
EndChar

StartChar: O
Encoding: 79 79 50
Width: 1610
GlyphClass: 2
Flags: W
LayerCount: 2
Fore
SplineSet
808 1358 m 0,0,1
 501 1357 501 1357 379 1164.5 c 128,-1,2
 257 972 257 972 257 702 c 0,3,4
 257 431 257 431 410 239.5 c 128,-1,5
 563 48 563 48 808 46 c 2,6,-1
 813 46 l 2,7,8
 1052 46 1052 46 1206 250 c 0,9,10
 1358 452 1358 452 1358 696 c 2,11,-1
 1358 702 l 2,12,13
 1356 951 1356 951 1228 1154.5 c 128,-1,14
 1100 1358 1100 1358 808 1358 c 0,0,1
808 1446 m 1,15,-1
 818 1446 l 2,16,17
 1141 1446 1141 1446 1363 1248 c 0,18,19
 1570 1063 1570 1063 1570 760 c 0,20,21
 1570 733 1570 733 1568 705 c 0,22,23
 1547 361 1547 361 1329.5 171.5 c 128,-1,24
 1112 -18 1112 -18 806 -35 c 0,25,26
 783 -36 783 -36 760 -36 c 0,27,28
 482 -36 482 -36 268 156 c 0,29,30
 48 352 48 352 48 669 c 0,31,32
 48 687 48 687 49 705 c 0,33,34
 61 1046 61 1046 269.5 1244 c 128,-1,35
 478 1442 478 1442 808 1446 c 1,15,-1
EndSplineSet
Substitution2: "'sups' Superscript in Latin lookup 7 subtable" uni1D0F
EndChar

StartChar: P
Encoding: 80 80 51
Width: 1237
GlyphClass: 2
Flags: W
LayerCount: 2
Fore
SplineSet
414 146 m 2,0,1
 414 81 414 81 464 63.5 c 128,-1,2
 514 46 514 46 514 21 c 0,3,4
 514 0 514 0 494 0 c 2,5,-1
 155 0 l 2,6,7
 134 0 134 0 134 21 c 0,8,9
 134 46 134 46 184 63.5 c 128,-1,10
 234 81 234 81 234 146 c 2,11,-1
 234 1257 l 2,12,13
 234 1321 234 1321 184 1339 c 128,-1,14
 134 1357 134 1357 134 1383 c 0,15,16
 134 1405 134 1405 155 1405 c 2,17,-1
 745 1405 l 2,18,19
 848 1405 848 1405 960 1368 c 128,-1,20
 1072 1331 1072 1331 1133 1226 c 0,21,22
 1181 1141 1181 1141 1181 1022 c 0,23,24
 1179 909 1179 909 1116 819 c 0,25,26
 1062 742 1062 742 962.5 704.5 c 128,-1,27
 863 667 863 667 781 667 c 2,28,-1
 414 667 l 1,29,-1
 414 146 l 2,0,1
414 1321 m 1,30,-1
 414 737 l 1,31,-1
 646 737 l 2,32,33
 715 737 715 737 786 757 c 128,-1,34
 857 777 857 777 908 828 c 0,35,36
 988 905 988 905 988 1032 c 0,37,38
 988 1154 988 1154 905 1236 c 0,39,40
 816 1321 816 1321 666 1321 c 2,41,-1
 414 1321 l 1,30,-1
EndSplineSet
Substitution2: "'sups' Superscript in Latin lookup 7 subtable" uni1D18
EndChar

StartChar: R
Encoding: 82 82 53
Width: 1368
GlyphClass: 2
Flags: W
LayerCount: 2
Fore
SplineSet
1263 72 m 1,0,1
 1291 49 1291 49 1336 45 c 0,2,3
 1364 42 1364 42 1364 24 c 2,4,-1
 1364 21 l 2,5,6
 1361 0 1361 0 1343 0 c 2,7,-1
 1076 0 l 2,8,9
 1067 0 1067 0 1008 78 c 128,-1,10
 949 156 949 156 871 264 c 128,-1,11
 793 372 793 372 711 485 c 128,-1,12
 629 598 629 598 574 667 c 1,13,-1
 414 667 l 1,14,-1
 414 146 l 2,15,16
 414 81 414 81 464 63.5 c 128,-1,17
 514 46 514 46 514 21 c 0,18,19
 514 0 514 0 494 0 c 2,20,-1
 155 0 l 2,21,22
 134 0 134 0 134 21 c 0,23,24
 134 46 134 46 184 63.5 c 128,-1,25
 234 81 234 81 234 146 c 2,26,-1
 234 1257 l 2,27,28
 234 1321 234 1321 184 1339 c 128,-1,29
 134 1357 134 1357 134 1383 c 0,30,31
 134 1405 134 1405 155 1405 c 2,32,-1
 745 1405 l 2,33,34
 848 1405 848 1405 960 1368 c 128,-1,35
 1072 1331 1072 1331 1133 1226 c 0,36,37
 1181 1141 1181 1141 1181 1022 c 0,38,39
 1179 909 1179 909 1116 819 c 0,40,41
 1066 748 1066 748 977 710 c 128,-1,42
 888 672 888 672 808 667 c 1,43,-1
 1263 72 l 1,0,1
414 1321 m 1,44,-1
 414 737 l 1,45,-1
 646 737 l 2,46,47
 715 737 715 737 786 757 c 128,-1,48
 857 777 857 777 908 828 c 0,49,50
 988 905 988 905 988 1032 c 0,51,52
 988 1154 988 1154 905 1236 c 0,53,54
 816 1321 816 1321 666 1321 c 2,55,-1
 414 1321 l 1,44,-1
EndSplineSet
Substitution2: "'sups' Superscript in Latin lookup 7 subtable" uni0280
EndChar

StartChar: S
Encoding: 83 83 54
Width: 1075
GlyphClass: 2
Flags: W
LayerCount: 2
Fore
SplineSet
857 388 m 2,0,-1
 857 399 l 2,1,2
 854 512 854 512 771 572 c 0,3,4
 733 600 733 600 653 622.5 c 128,-1,5
 573 645 573 645 462.5 657 c 128,-1,6
 352 669 352 669 258 714 c 128,-1,7
 164 759 164 759 120 840.5 c 128,-1,8
 76 922 76 922 76 1018 c 0,9,10
 76 1206 76 1206 208.5 1327.5 c 128,-1,11
 341 1449 341 1449 545 1449 c 2,12,-1
 575 1449 l 1,13,14
 798 1439 798 1439 954 1338 c 1,15,-1
 930 1128 l 2,16,17
 928 1110 928 1110 911 1110 c 2,18,-1
 907 1110 l 2,19,20
 894 1111 894 1111 882 1138 c 0,21,22
 839 1228 839 1228 757 1291.5 c 128,-1,23
 675 1355 675 1355 580 1359 c 1,24,-1
 564 1359 l 2,25,26
 472 1359 472 1359 412.5 1330.5 c 128,-1,27
 353 1302 353 1302 326 1273.5 c 128,-1,28
 299 1245 299 1245 281 1208 c 128,-1,29
 263 1171 263 1171 255 1133 c 128,-1,30
 247 1095 247 1095 247 1061 c 128,-1,31
 247 1027 247 1027 259 994 c 0,32,33
 280 927 280 927 325 894.5 c 128,-1,34
 370 862 370 862 405.5 853 c 128,-1,35
 441 844 441 844 477 837.5 c 128,-1,36
 513 831 513 831 561 823.5 c 128,-1,37
 609 816 609 816 672.5 806.5 c 128,-1,38
 736 797 736 797 816 772 c 128,-1,39
 896 747 896 747 938.5 700 c 128,-1,40
 981 653 981 653 1006 595.5 c 128,-1,41
 1031 538 1031 538 1031 459 c 0,42,43
 1031 240 1031 240 857 103 c 0,44,45
 767 32 767 32 668 0 c 0,46,47
 570 -32 570 -32 509 -35.5 c 128,-1,48
 448 -39 448 -39 427 -39 c 0,49,50
 288 -39 288 -39 161 0 c 1,51,-1
 66 264 l 2,52,53
 64 269 64 269 64 276.5 c 128,-1,54
 64 284 64 284 71.5 295.5 c 128,-1,55
 79 307 79 307 92 307 c 0,56,57
 104 304 104 304 117 278 c 0,58,59
 181 139 181 139 269.5 96 c 128,-1,60
 358 53 358 53 481 53 c 0,61,62
 507 53 507 53 561.5 56.5 c 128,-1,63
 616 60 616 60 690.5 97.5 c 128,-1,64
 765 135 765 135 811 208.5 c 128,-1,65
 857 282 857 282 857 388 c 2,0,-1
EndSplineSet
Substitution2: "'sups' Superscript in Latin lookup 7 subtable" uniA731
EndChar

StartChar: U
Encoding: 85 85 56
Width: 1554
GlyphClass: 2
Flags: W
LayerCount: 2
Fore
SplineSet
234 588 m 2,0,-1
 234 1258 l 2,1,2
 234 1322 234 1322 184 1340 c 128,-1,3
 134 1358 134 1358 134 1383 c 0,4,5
 134 1405 134 1405 155 1405 c 2,6,-1
 494 1405 l 2,7,8
 514 1405 514 1405 514 1383 c 0,9,10
 514 1356 514 1356 465 1340 c 128,-1,11
 416 1324 416 1324 416 1260 c 2,12,-1
 416 721 l 2,13,14
 416 568 416 568 426 450 c 128,-1,15
 436 332 436 332 478 251 c 0,16,17
 519 170 519 170 604 128 c 128,-1,18
 689 86 689 86 839 86 c 0,19,20
 1103 86 1103 86 1197 294 c 0,21,22
 1264 440 1264 440 1264 721 c 2,23,-1
 1264 1257 l 2,24,25
 1264 1322 1264 1322 1214 1340 c 128,-1,26
 1164 1358 1164 1358 1164 1383 c 0,27,28
 1164 1405 1164 1405 1185 1405 c 2,29,-1
 1440 1405 l 2,30,31
 1460 1405 1460 1405 1460 1383 c 0,32,33
 1460 1358 1460 1358 1410 1340 c 0,34,35
 1361 1322 1361 1322 1361 1257 c 2,36,-1
 1361 588 l 2,37,38
 1360 439 1360 439 1333.5 315.5 c 128,-1,39
 1307 192 1307 192 1236 108 c 0,40,41
 1109 -39 1109 -39 839 -39 c 0,42,43
 668 -39 668 -39 548 -7 c 128,-1,44
 428 25 428 25 356 109 c 0,45,46
 234 250 234 250 234 588 c 2,0,-1
EndSplineSet
Substitution2: "'sups' Superscript in Latin lookup 7 subtable" uni1D1C
EndChar

StartChar: V
Encoding: 86 86 57
Width: 1479
GlyphClass: 2
Flags: W
LayerCount: 2
Fore
SplineSet
392 1263 m 2,0,-1
 816 177 l 1,1,-1
 1270 1107 l 2,2,3
 1283 1133 1283 1133 1283 1154 c 0,4,5
 1283 1172 1283 1172 1274 1186 c 0,6,7
 1255 1216 1255 1216 1215 1264 c 2,8,-1
 1166 1321 l 1,9,-1
 1290 1415 l 2,10,11
 1298 1422 1298 1422 1307 1422 c 0,12,13
 1317 1422 1317 1422 1329 1412 c 2,14,-1
 1411 1328 l 2,15,16
 1437 1301 1437 1301 1437 1262 c 0,17,18
 1437 1240 1437 1240 1429 1215 c 0,19,20
 1405 1144 1405 1144 1358 1048 c 2,21,-1
 868 32 l 2,22,23
 861 15 861 15 854 6 c 0,24,25
 846 0 846 0 838 0 c 2,26,-1
 687 0 l 2,27,28
 677 0 677 0 671 8 c 0,29,30
 668 11 668 11 660.5 31 c 128,-1,31
 653 51 653 51 650 60 c 2,32,-1
 272 1110 l 2,33,34
 232 1216 232 1216 214 1258 c 0,35,36
 196 1295 196 1295 155 1325 c 0,37,38
 131 1340 131 1340 108.5 1349.5 c 128,-1,39
 86 1359 86 1359 72 1369 c 0,40,41
 63 1374 63 1374 60 1383 c 0,42,43
 57 1387 57 1387 57 1392 c 0,44,45
 57 1394 57 1394 59 1398 c 0,46,47
 63 1405 63 1405 71 1405 c 2,48,-1
 410 1405 l 2,49,50
 419 1405 419 1405 428 1398 c 0,51,52
 437 1390 437 1390 440 1383 c 0,53,54
 441 1380 441 1380 441 1378 c 0,55,56
 441 1368 441 1368 430 1358 c 0,57,58
 420 1349 420 1349 407.5 1338.5 c 128,-1,59
 395 1328 395 1328 389 1313 c 0,60,61
 385 1303 385 1303 385 1292 c 0,62,63
 385 1278 385 1278 392 1263 c 2,0,-1
EndSplineSet
Substitution2: "'sups' Superscript in Latin lookup 7 subtable" uni1D20
EndChar

StartChar: W
Encoding: 87 87 58
Width: 2069
GlyphClass: 2
Flags: W
LayerCount: 2
Fore
SplineSet
392 1263 m 2,0,-1
 816 177 l 1,1,-1
 1036 627 l 1,2,-1
 862 1110 l 2,3,4
 822 1216 822 1216 804 1258 c 0,5,6
 786 1295 786 1295 745 1325 c 0,7,8
 721 1340 721 1340 698.5 1349.5 c 128,-1,9
 676 1359 676 1359 662 1369 c 0,10,11
 653 1376 653 1376 650 1385 c 0,12,13
 647 1389 647 1389 647 1392 c 0,14,15
 647 1394 647 1394 649 1398 c 0,16,17
 653 1405 653 1405 661 1405 c 2,18,-1
 1000 1405 l 2,19,20
 1009 1405 1009 1405 1018 1398.5 c 128,-1,21
 1027 1392 1027 1392 1030 1385 c 0,22,23
 1031 1382 1031 1382 1031 1378 c 0,24,25
 1031 1368 1031 1368 1020 1358 c 0,26,27
 1010 1349 1010 1349 997.5 1338.5 c 128,-1,28
 985 1328 985 1328 979 1313 c 0,29,30
 975 1303 975 1303 975 1292 c 0,31,32
 975 1278 975 1278 982 1263 c 2,33,-1
 1144 849 l 1,34,-1
 1270 1107 l 2,35,36
 1283 1133 1283 1133 1283 1154 c 0,37,38
 1283 1172 1283 1172 1274 1186 c 0,39,40
 1255 1216 1255 1216 1215 1264 c 2,41,-1
 1166 1321 l 1,42,-1
 1290 1415 l 2,43,44
 1298 1422 1298 1422 1307 1422 c 0,45,46
 1317 1422 1317 1422 1329 1412 c 2,47,-1
 1411 1328 l 2,48,49
 1437 1301 1437 1301 1437 1262 c 0,50,51
 1437 1240 1437 1240 1429 1215 c 0,52,53
 1405 1144 1405 1144 1358 1048 c 2,54,-1
 1197 713 l 1,55,-1
 1406 177 l 1,56,-1
 1860 1107 l 2,57,58
 1873 1133 1873 1133 1873 1154 c 0,59,60
 1873 1172 1873 1172 1864 1186 c 0,61,62
 1845 1216 1845 1216 1805 1264 c 2,63,-1
 1756 1321 l 1,64,-1
 1880 1415 l 2,65,66
 1888 1422 1888 1422 1897 1422 c 0,67,68
 1907 1422 1907 1422 1919 1412 c 2,69,-1
 2001 1328 l 2,70,71
 2027 1301 2027 1301 2027 1262 c 0,72,73
 2027 1240 2027 1240 2019 1215 c 0,74,75
 1995 1144 1995 1144 1948 1048 c 2,76,-1
 1458 32 l 2,77,78
 1451 15 1451 15 1444 6 c 0,79,80
 1436 0 1436 0 1428 0 c 2,81,-1
 1277 0 l 2,82,83
 1267 0 1267 0 1261 8 c 0,84,85
 1258 11 1258 11 1250.5 31 c 128,-1,86
 1243 51 1243 51 1240 60 c 2,87,-1
 1087 486 l 1,88,-1
 868 32 l 2,89,90
 861 15 861 15 854 6 c 0,91,92
 846 0 846 0 838 0 c 2,93,-1
 687 0 l 2,94,95
 677 0 677 0 671 8 c 0,96,97
 668 11 668 11 660.5 31 c 128,-1,98
 653 51 653 51 650 60 c 2,99,-1
 272 1110 l 2,100,101
 232 1216 232 1216 214 1258 c 0,102,103
 196 1295 196 1295 155 1325 c 0,104,105
 131 1340 131 1340 108.5 1349.5 c 128,-1,106
 86 1359 86 1359 72 1369 c 0,107,108
 63 1376 63 1376 60 1385 c 0,109,110
 57 1389 57 1389 57 1392 c 0,111,112
 57 1394 57 1394 59 1398 c 0,113,114
 63 1405 63 1405 71 1405 c 2,115,-1
 410 1405 l 2,116,117
 419 1405 419 1405 428 1398.5 c 128,-1,118
 437 1392 437 1392 440 1385 c 0,119,120
 441 1382 441 1382 441 1378 c 0,121,122
 441 1368 441 1368 430 1358 c 0,123,124
 420 1349 420 1349 407.5 1338.5 c 128,-1,125
 395 1328 395 1328 389 1313 c 0,126,127
 385 1303 385 1303 385 1292 c 0,128,129
 385 1278 385 1278 392 1263 c 2,0,-1
EndSplineSet
Substitution2: "'sups' Superscript in Latin lookup 7 subtable" uni1D21
EndChar

StartChar: X
Encoding: 88 88 59
Width: 1404
GlyphClass: 2
Flags: W
LayerCount: 2
Fore
SplineSet
332 78 m 1,0,-1
 341 39 l 2,1,2
 341 27 341 27 331 13.5 c 128,-1,3
 321 0 321 0 307 0 c 2,4,-1
 49 0 l 2,5,6
 37 0 37 0 36 6 c 2,7,-1
 36 11 l 2,8,9
 36 28 36 28 68 41 c 2,10,-1
 120 62 l 2,11,12
 197 95 197 95 233 146 c 2,13,-1
 606 677 l 1,14,-1
 231 1258 l 2,15,16
 192 1316 192 1316 101 1350 c 0,17,18
 76 1358 76 1358 62 1366 c 0,19,20
 38 1380 38 1380 38 1394 c 2,21,-1
 38 1398 l 2,22,23
 39 1405 39 1405 48 1405 c 2,24,-1
 420 1405 l 2,25,26
 437 1405 437 1405 448 1391.5 c 128,-1,27
 459 1378 459 1378 459 1372 c 256,28,29
 459 1366 459 1366 452 1357.5 c 128,-1,30
 445 1349 445 1349 435 1338.5 c 128,-1,31
 425 1328 425 1328 424 1313 c 2,32,-1
 424 1308 l 2,33,34
 424 1285 424 1285 440 1263 c 2,35,-1
 721 831 l 1,36,-1
 988 1204 l 2,37,38
 1055 1298 1055 1298 1105 1355 c 0,39,40
 1154 1411 1154 1411 1188 1411 c 0,41,42
 1192 1411 1192 1411 1195 1410 c 0,43,44
 1207 1407 1207 1407 1215 1405 c 2,45,-1
 1314 1376 l 2,46,47
 1331 1369 1331 1369 1331 1359 c 128,-1,48
 1331 1349 1331 1349 1329 1341 c 2,49,-1
 1287 1171 l 1,50,-1
 1222 1186 l 2,51,52
 1170 1198 1170 1198 1135 1200 c 2,53,-1
 1132 1200 l 2,54,55
 1101 1200 1101 1200 1068 1153 c 2,56,-1
 779 742 l 1,57,-1
 1166 146 l 2,58,59
 1200 94 1200 94 1296 54 c 0,60,61
 1320 44 1320 44 1334 36 c 0,62,63
 1360 21 1360 21 1360 11 c 0,64,65
 1360 0 1360 0 1349 0 c 2,66,-1
 977 0 l 2,67,68
 968 0 968 0 957 6 c 0,69,70
 938 16 938 16 938 27 c 256,71,72
 938 38 938 38 954.5 58 c 128,-1,73
 971 78 971 78 973 91 c 2,74,-1
 973 98 l 2,75,76
 973 118 973 118 960 141 c 2,77,-1
 664 588 l 1,78,-1
 361 147 l 2,79,80
 332 105 332 105 332 78 c 1,0,-1
EndSplineSet
Substitution2: "'sups' Superscript in Latin lookup 7 subtable" uniEF11
EndChar

StartChar: Y
Encoding: 89 89 60
Width: 1288
GlyphClass: 2
Flags: W
LayerCount: 2
Fore
SplineSet
589 677 m 2,0,-1
 240 1258 l 2,1,2
 217 1292 217 1292 163 1325 c 0,3,4
 135 1340 135 1340 110 1350 c 0,5,6
 79 1361 79 1361 68 1369 c 128,-1,7
 57 1377 57 1377 51 1385 c 0,8,9
 47 1391 47 1391 47 1394 c 2,10,-1
 47 1398 l 2,11,12
 48 1405 48 1405 57 1405 c 2,13,-1
 396 1405 l 2,14,15
 404 1405 404 1405 415 1398 c 0,16,17
 429 1389 429 1389 432 1385 c 0,18,19
 435 1380 435 1380 435 1373 c 128,-1,20
 435 1366 435 1366 428 1358 c 0,21,22
 421 1349 421 1349 411 1338.5 c 128,-1,23
 401 1328 401 1328 400 1313 c 2,24,-1
 400 1308 l 2,25,26
 400 1286 400 1286 416 1263 c 2,27,-1
 753 729 l 1,28,-1
 1012 1124 l 2,29,30
 1042 1168 1042 1168 1047 1200 c 0,31,32
 1048 1205 1048 1205 1047 1210 c 0,33,34
 1037 1260 1037 1260 1023 1288 c 2,35,-1
 989 1356 l 1,36,-1
 1132 1418 l 2,37,38
 1139 1421 1139 1421 1145 1421 c 0,39,40
 1158 1421 1158 1421 1169 1405 c 2,41,-1
 1229 1304 l 2,42,43
 1240 1285 1240 1285 1240 1266 c 0,44,45
 1240 1232 1240 1232 1206 1197 c 0,46,47
 1153 1141 1153 1141 1093 1054 c 2,48,-1
 827 666 l 2,49,50
 809 639 809 639 803.5 590 c 128,-1,51
 798 541 798 541 798 497 c 2,52,-1
 798 146 l 2,53,54
 798 81 798 81 848 63.5 c 128,-1,55
 898 46 898 46 898 21 c 0,56,57
 898 0 898 0 877 0 c 2,58,-1
 538 0 l 2,59,60
 517 0 517 0 517 21 c 0,61,62
 517 46 517 46 567 63.5 c 128,-1,63
 617 81 617 81 617 146 c 2,64,-1
 617 573 l 2,65,66
 617 631 617 631 589 677 c 2,0,-1
EndSplineSet
Substitution2: "'sups' Superscript in Latin lookup 7 subtable" uni028F
EndChar

StartChar: Z
Encoding: 90 90 61
Width: 1423
GlyphClass: 2
Flags: W
LayerCount: 2
Fore
SplineSet
190 1126 m 0,0,1
 169 1126 169 1126 169 1147 c 2,2,-1
 169 1332 l 2,3,4
 169 1386 169 1386 188 1397.5 c 128,-1,5
 207 1409 207 1409 283 1409 c 2,6,-1
 1207 1409 l 2,7,8
 1291 1409 1291 1409 1302 1397 c 0,9,10
 1314 1384 1314 1384 1314 1369 c 0,11,12
 1315 1352 1315 1352 1299 1332 c 2,13,-1
 317 98 l 1,14,-1
 1098 99 l 2,15,16
 1158 99 1158 99 1195 136.5 c 128,-1,17
 1232 174 1232 174 1271.5 228.5 c 128,-1,18
 1311 283 1311 283 1320 283 c 0,19,20
 1341 283 1341 283 1341 262 c 2,21,-1
 1341 77 l 2,22,23
 1341 19 1341 19 1325.5 9.5 c 128,-1,24
 1310 0 1310 0 1228 0 c 2,25,-1
 157 0 l 2,26,27
 74 0 74 0 52 6 c 0,28,29
 10 22 10 22 48 61 c 1,30,-1
 1020 1312 l 1,31,-1
 412 1311 l 2,32,33
 352 1311 352 1311 315 1273 c 128,-1,34
 278 1235 278 1235 239 1180.5 c 128,-1,35
 200 1126 200 1126 190 1126 c 0,0,1
EndSplineSet
Substitution2: "'sups' Superscript in Latin lookup 7 subtable" uni1D22
EndChar

StartChar: bracketleft
Encoding: 91 91 62
Width: 682
GlyphClass: 2
Flags: W
LayerCount: 2
Fore
SplineSet
483 -367 m 2,0,1
 500 -367 500 -367 500 -394 c 0,2,3
 500 -420 500 -420 488 -420 c 2,4,-1
 241 -420 l 2,5,6
 220 -420 220 -420 220 -400 c 2,7,-1
 220 1436 l 2,8,9
 220 1466 220 1466 241 1466 c 2,10,-1
 488 1466 l 2,11,12
 500 1466 500 1466 500 1438 c 0,13,14
 500 1409 500 1409 483 1409 c 2,15,-1
 338 1409 l 1,16,-1
 338 -367 l 1,17,-1
 483 -367 l 2,0,1
EndSplineSet
EndChar

StartChar: asciicircum
Encoding: 94 94 65
Width: 1100
GlyphClass: 2
Flags: W
LayerCount: 2
Fore
SplineSet
496 1430 m 1,0,-1
 604 1430 l 1,1,-1
 916 912 l 1,2,-1
 860 912 l 1,3,-1
 550 1312 l 1,4,-1
 238 912 l 1,5,-1
 184 912 l 1,6,-1
 496 1430 l 1,0,-1
EndSplineSet
EndChar

StartChar: underscore
Encoding: 95 95 66
Width: 1100
GlyphClass: 2
Flags: W
LayerCount: 2
Fore
SplineSet
0 -218 m 1,0,-1
 1100 -218 l 1,1,-1
 1100 -336 l 1,2,-1
 0 -336 l 1,3,-1
 0 -218 l 1,0,-1
EndSplineSet
EndChar

StartChar: grave
Encoding: 96 96 67
Width: 1000
GlyphClass: 2
Flags: W
LayerCount: 2
Fore
SplineSet
724 1098 m 2,0,1
 724 1098 724 1098 298 1257 c 0,2,3
 252 1274 252 1274 252 1326 c 0,4,5
 252 1400 252 1400 326 1400 c 0,6,7
 348 1400 348 1400 366 1387 c 2,8,-1
 742 1129 l 2,9,10
 748 1122 748 1122 748 1114 c 0,11,12
 748 1097 748 1097 730 1097 c 0,13,14
 726 1097 726 1097 724 1098 c 2,0,1
EndSplineSet
EndChar

StartChar: c
Encoding: 99 99 70
Width: 925
GlyphClass: 2
Flags: W
LayerCount: 2
Fore
SplineSet
576 956 m 2,0,1
 739 956 739 956 876 868 c 1,2,-1
 859 699 l 2,3,4
 857 686 857 686 847 686 c 0,5,6
 846 686 846 686 845 686 c 0,7,8
 833 687 833 687 825 706 c 0,9,10
 785 793 785 793 720.5 831.5 c 128,-1,11
 656 870 656 870 564 870 c 2,12,-1
 540 870 l 1,13,14
 430 864 430 864 374 810 c 0,15,16
 267 709 267 709 267 519 c 0,17,18
 267 490 267 490 270 458 c 0,19,20
 280 309 280 309 351 214 c 0,21,22
 444 90 444 90 559 72 c 0,23,24
 579 70 579 70 598 70 c 0,25,26
 697 70 697 70 770.5 114.5 c 128,-1,27
 844 159 844 159 860.5 159 c 128,-1,28
 877 159 877 159 882 158 c 1,29,30
 884 153 884 153 884 142 c 128,-1,31
 884 131 884 131 870.5 106.5 c 128,-1,32
 857 82 857 82 838 65 c 0,33,34
 727 -25 727 -25 541 -25 c 128,-1,35
 355 -25 355 -25 228 78 c 0,36,37
 79 204 79 204 79 446 c 0,38,39
 79 501 79 501 87 563 c 0,40,41
 130 784 130 784 316 891 c 0,42,43
 420 950 420 950 555 956 c 1,44,-1
 576 956 l 2,0,1
EndSplineSet
Substitution2: "'smcp' Lowercase to Small Capitals in Latin lookup 1 subtable" uni1D04
EndChar

StartChar: e
Encoding: 101 101 72
Width: 1004
GlyphClass: 2
Flags: W
LayerCount: 2
Fore
SplineSet
537 960 m 2,0,1
 734 960 734 960 838 847 c 128,-1,2
 942 734 942 734 942 551 c 0,3,4
 941 511 941 511 939 494.5 c 128,-1,5
 937 478 937 478 898 478 c 2,6,-1
 261 478 l 1,7,8
 264 316 264 316 343 209.5 c 128,-1,9
 422 103 422 103 542 79 c 0,10,11
 577 71 577 71 613 71 c 0,12,13
 708 71 708 71 787.5 114 c 128,-1,14
 867 157 867 157 879.5 157 c 128,-1,15
 892 157 892 157 895 154.5 c 128,-1,16
 898 152 898 152 898 142.5 c 128,-1,17
 898 133 898 133 885.5 109 c 128,-1,18
 873 85 873 85 865.5 77 c 128,-1,19
 858 69 858 69 852 63 c 0,20,21
 743 -31 743 -31 556 -31 c 0,22,23
 294 -29 294 -29 163 137 c 0,24,25
 62 265 62 265 62 441 c 0,26,27
 62 494 62 494 71 551 c 0,28,29
 99 736 99 736 218.5 847 c 128,-1,30
 338 958 338 958 533 960 c 2,31,-1
 537 960 l 2,0,1
788 551 m 1,32,33
 788 673 788 673 734 772.5 c 128,-1,34
 680 872 680 872 539 872 c 2,35,-1
 528 872 l 1,36,37
 387 868 387 868 326 770 c 128,-1,38
 265 672 265 672 261 551 c 1,39,-1
 788 551 l 1,32,33
EndSplineSet
Substitution2: "'sups' Superscript in Latin lookup 8 subtable" uni1D49
Substitution2: "'smcp' Lowercase to Small Capitals in Latin lookup 1 subtable" uni1D07
EndChar

StartChar: l
Encoding: 108 108 79
Width: 597
GlyphClass: 2
Flags: W
LayerCount: 2
Fore
SplineSet
382 146 m 0,0,1
 382 81 382 81 432 63.5 c 128,-1,2
 482 46 482 46 482 21 c 0,3,4
 482 0 482 0 462 0 c 0,5,6
 129 0 129 0 129 0 c 2,7,8
 108 0 108 0 108 21 c 0,9,10
 108 46 108 46 158 63.5 c 128,-1,11
 208 81 208 81 208 146 c 0,12,13
 208 882 208 882 208 1258 c 0,14,15
 208 1321 208 1321 158 1339 c 128,-1,16
 108 1357 108 1357 108 1383 c 0,17,18
 108 1404 108 1404 129 1404 c 0,19,20
 186 1404 186 1404 253 1424 c 0,21,22
 310 1441 310 1441 337 1473 c 0,23,24
 343 1480 343 1480 349 1479 c 0,25,26
 361 1477 361 1477 369 1473 c 0,27,28
 382 1467 382 1467 382 1456 c 0,29,30
 382 992 382 992 382 146 c 0,0,1
EndSplineSet
Substitution2: "'smcp' Lowercase to Small Capitals in Latin lookup 1 subtable" uni029F
EndChar

StartChar: o
Encoding: 111 111 82
Width: 1107
GlyphClass: 2
Flags: W
LayerCount: 2
Fore
SplineSet
1045 459 m 2,0,1
 1045 259 1045 259 902.5 120 c 128,-1,2
 760 -19 760 -19 553 -25 c 1,3,-1
 537 -25 l 2,4,5
 345 -25 345 -25 203.5 119 c 128,-1,6
 62 263 62 263 62 462 c 2,7,-1
 62 465 l 2,8,9
 63 684 63 684 227 833 c 0,10,11
 246 851 246 851 283.5 864 c 128,-1,12
 321 877 321 877 380 898 c 128,-1,13
 439 919 439 919 490.5 937 c 128,-1,14
 542 955 542 955 574 956 c 2,15,-1
 577 956 l 1,16,17
 772 948 772 948 907 805.5 c 128,-1,18
 1042 663 1042 663 1045 465 c 2,19,-1
 1045 459 l 2,0,1
544 889 m 2,20,21
 427 889 427 889 340.5 772.5 c 128,-1,22
 254 656 254 656 254 481 c 256,23,24
 254 306 254 306 341.5 177.5 c 128,-1,25
 429 49 429 49 554 43 c 1,26,-1
 568 43 l 2,27,28
 684 43 684 43 770 159 c 128,-1,29
 856 275 856 275 856 450 c 256,30,31
 856 625 856 625 768 753.5 c 128,-1,32
 680 882 680 882 556 889 c 1,33,-1
 544 889 l 2,20,21
EndSplineSet
Substitution2: "'sups' Superscript in Latin lookup 8 subtable" uni1D52
Substitution2: "'smcp' Lowercase to Small Capitals in Latin lookup 1 subtable" uni1D0F
EndChar

StartChar: r
Encoding: 114 114 85
Width: 815
GlyphClass: 2
Flags: W
LayerCount: 2
Fore
SplineSet
382 146 m 2,0,1
 382 81 382 81 432 63.5 c 128,-1,2
 482 46 482 46 482 21 c 0,3,4
 482 0 482 0 462 0 c 2,5,-1
 129 0 l 2,6,7
 108 0 108 0 108 21 c 0,8,9
 108 46 108 46 158 63.5 c 128,-1,10
 208 81 208 81 208 146 c 2,11,-1
 208 783 l 2,12,13
 208 846 208 846 158 864 c 128,-1,14
 108 882 108 882 108 908 c 0,15,16
 108 929 108 929 129 929 c 0,17,18
 186 929 186 929 253 949 c 0,19,20
 310 966 310 966 337 998 c 0,21,22
 343 1005 343 1005 349 1004 c 0,23,24
 361 1002 361 1002 369 998 c 0,25,26
 382 992 382 992 382 981 c 2,27,-1
 382 859 l 1,28,-1
 385 860 l 1,29,-1
 524 913 l 2,30,31
 614 947 614 947 644 956 c 0,32,33
 657 960 657 960 675 960 c 0,34,35
 712 960 712 960 769 940 c 1,36,-1
 747 689 l 1,37,-1
 701 689 l 1,38,39
 662 835 662 835 551 835 c 0,40,41
 540 835 540 835 529 834 c 0,42,43
 452 824 452 824 420 756 c 0,44,45
 389 691 389 691 382 623 c 1,46,-1
 382 146 l 2,0,1
EndSplineSet
Substitution2: "'smcp' Lowercase to Small Capitals in Latin lookup 1 subtable" uni0280
EndChar

StartChar: s
Encoding: 115 115 86
Width: 884
GlyphClass: 2
Flags: W
LayerCount: 2
Fore
SplineSet
731 679 m 2,0,-1
 728 679 l 2,1,2
 716 680 716 680 706 703 c 0,3,4
 670 778 670 778 601 828.5 c 128,-1,5
 532 879 532 879 452 882 c 2,6,-1
 448 882 l 2,7,8
 386 882 386 882 325.5 850.5 c 128,-1,9
 265 819 265 819 251 753 c 0,10,11
 246 731 246 731 246 713 c 0,12,13
 246 650 246 650 309.5 618.5 c 128,-1,14
 373 587 373 587 484.5 562 c 128,-1,15
 596 537 596 537 701.5 488 c 128,-1,16
 807 439 807 439 817 283 c 1,17,-1
 817 273 l 2,18,19
 817 199 817 199 757.5 122 c 128,-1,20
 698 45 698 45 603 12.5 c 128,-1,21
 508 -20 508 -20 419 -23 c 2,22,-1
 392 -23 l 2,23,24
 269 -23 269 -23 157 9 c 1,25,-1
 76 229 l 1,26,-1
 79 249 l 2,27,28
 80 264 80 264 97 264 c 2,29,-1
 99 264 l 2,30,31
 109 262 109 262 120 240 c 0,32,33
 166 141 166 141 232.5 99.5 c 128,-1,34
 299 58 299 58 401 55 c 2,35,-1
 413 55 l 2,36,37
 484 55 484 55 572.5 89.5 c 128,-1,38
 661 124 661 124 665 218 c 1,39,-1
 665 224 l 2,40,41
 665 332 665 332 561 361.5 c 128,-1,42
 457 391 457 391 367.5 416 c 128,-1,43
 278 441 278 441 191.5 499.5 c 128,-1,44
 105 558 105 558 105 672 c 2,45,-1
 105 677 l 2,46,47
 106 832 106 832 220 895.5 c 128,-1,48
 334 959 334 959 466 959 c 0,49,50
 478 959 478 959 490 958 c 0,51,52
 637 950 637 950 768 869 c 1,53,-1
 747 694 l 2,54,55
 745 679 745 679 731 679 c 2,0,-1
EndSplineSet
Substitution2: "'hist' Historical Forms in Latin lookup 15 subtable" longs
Substitution2: "'smcp' Lowercase to Small Capitals in Latin lookup 1 subtable" uniA731
EndChar

StartChar: t
Encoding: 116 116 87
Width: 648
GlyphClass: 2
Flags: W
LayerCount: 2
Fore
SplineSet
69 840 m 2,0,1
 50 840 50 840 49 860 c 2,2,-1
 49 862 l 2,3,4
 49 878 49 878 68 887 c 0,5,6
 88 896 88 896 127 917 c 128,-1,7
 166 938 166 938 174.5 941.5 c 128,-1,8
 183 945 183 945 188 945 c 1,9,-1
 188 1116 l 2,10,11
 188 1166 188 1166 208.5 1185.5 c 128,-1,12
 229 1205 229 1205 279.5 1229 c 128,-1,13
 330 1253 330 1253 346 1253 c 0,14,15
 369 1253 369 1253 369 1227 c 2,16,-1
 369 948 l 1,17,-1
 608 953 l 2,18,19
 623 953 623 953 623 933 c 128,-1,20
 623 913 623 913 619 893 c 0,21,22
 609 846 609 846 574 846 c 2,23,-1
 369 847 l 1,24,-1
 369 220 l 2,25,26
 369 129 369 129 432.5 84 c 128,-1,27
 496 39 496 39 541 33 c 1,28,-1
 541 0 l 1,29,30
 392 0 392 0 290 28.5 c 128,-1,31
 188 57 188 57 188 250 c 2,32,-1
 188 845 l 1,33,-1
 69 840 l 2,0,1
EndSplineSet
Substitution2: "'sups' Superscript in Latin lookup 8 subtable" uni1D57
Substitution2: "'smcp' Lowercase to Small Capitals in Latin lookup 1 subtable" uni1D1B
EndChar

StartChar: u
Encoding: 117 117 88
Width: 1217
GlyphClass: 2
Flags: W
LayerCount: 2
Fore
SplineSet
457 117 m 0,0,1
 515 60 515 60 597 60 c 128,-1,2
 679 60 679 60 866 140 c 1,3,-1
 866 783 l 2,4,5
 866 846 866 846 816 864 c 128,-1,6
 766 882 766 882 766 908 c 0,7,8
 766 929 766 929 787 929 c 0,9,10
 844 930 844 930 906 948 c 0,11,12
 965 966 965 966 995 998 c 0,13,14
 1006 1010 1006 1010 1023 1001 c 128,-1,15
 1040 992 1040 992 1040 981 c 2,16,17
 1040 981 1040 981 1040 146 c 0,18,19
 1040 81 1040 81 1090 63.5 c 128,-1,20
 1140 46 1140 46 1140 23 c 128,-1,21
 1140 0 1140 0 1119 0 c 2,22,-1
 883 0 l 2,23,24
 866 0 866 0 866 13 c 2,25,-1
 866 81 l 1,26,27
 607 -30 607 -30 465 -30 c 0,28,29
 382 -30 382 -30 307 26 c 0,30,31
 185 118 185 118 185 425 c 2,32,-1
 185 783 l 2,33,34
 185 846 185 846 135 864 c 128,-1,35
 85 882 85 882 85 908 c 0,36,37
 85 929 85 929 106 929 c 0,38,39
 163 930 163 930 225 948 c 0,40,41
 284 966 284 966 314 998 c 0,42,43
 324 1009 324 1009 341 1000 c 0,44,45
 359 991 359 991 359 981 c 2,46,47
 359 981 359 981 359 834.5 c 128,-1,48
 359 688 359 688 358 482 c 0,49,50
 358 418 358 418 358 415 c 0,51,52
 358 213 358 213 457 117 c 0,0,1
EndSplineSet
Substitution2: "'sups' Superscript in Latin lookup 8 subtable" uni1D58
Substitution2: "'smcp' Lowercase to Small Capitals in Latin lookup 1 subtable" uni1D1C
EndChar

StartChar: v
Encoding: 118 118 89
Width: 1036
GlyphClass: 2
Flags: W
LayerCount: 2
Fore
SplineSet
31 914 m 0,0,1
 31 929 31 929 43 929 c 2,2,-1
 371 929 l 2,3,4
 399 929 399 929 399 906 c 0,5,6
 399 897 399 897 377 877 c 0,7,8
 350 853 350 853 350 827 c 0,9,10
 350 816 350 816 355 805 c 2,11,-1
 610 182 l 1,12,-1
 847 717 l 2,13,14
 856 737 856 737 856 757 c 0,15,16
 856 792 856 792 828 826 c 2,17,-1
 795 866 l 1,18,-1
 885 937 l 2,19,20
 898 947 898 947 911 934 c 2,21,-1
 967 877 l 2,22,23
 984 860 984 860 984 828.5 c 128,-1,24
 984 797 984 797 931 688 c 2,25,-1
 624 0 l 2,26,27
 616 -19 616 -19 603 -19 c 2,28,-1
 529 -19 l 2,29,30
 510 -19 510 -19 502 0 c 2,31,-1
 167 800 l 2,32,33
 142 860 142 860 86 877 c 0,34,35
 31 894 31 894 31 914 c 0,0,1
EndSplineSet
Substitution2: "'sups' Superscript in Latin lookup 8 subtable" uni1D5B
Substitution2: "'smcp' Lowercase to Small Capitals in Latin lookup 1 subtable" uni1D20
EndChar

StartChar: w
Encoding: 119 119 90
Width: 1647
GlyphClass: 2
Flags: W
LayerCount: 2
Fore
SplineSet
1458 717 m 2,0,1
 1467 738 1467 738 1467 765.5 c 128,-1,2
 1467 793 1467 793 1439 826 c 2,3,-1
 1406 865 l 1,4,-1
 1495 937 l 2,5,6
 1500 942 1500 942 1507 941 c 0,7,8
 1515 940 1515 940 1522 934 c 2,9,-1
 1578 877 l 2,10,11
 1595 859 1595 859 1595 838.5 c 128,-1,12
 1595 818 1595 818 1584 785 c 128,-1,13
 1573 752 1573 752 1542 688 c 2,14,-1
 1235 0 l 2,15,16
 1230 -10 1230 -10 1225 -14.5 c 128,-1,17
 1220 -19 1220 -19 1214 -19 c 2,18,-1
 1130 -19 l 2,19,20
 1123 -19 1123 -19 1120 -16 c 0,21,22
 1116 -12 1116 -12 1112 0 c 0,23,24
 1107 12 1107 12 1104 21 c 2,25,-1
 876 565 l 1,26,-1
 624 0 l 2,27,28
 619 -10 619 -10 614 -14.5 c 128,-1,29
 609 -19 609 -19 603 -19 c 2,30,-1
 519 -19 l 2,31,32
 510 -19 510 -19 508 -16 c 0,33,34
 505 -12 505 -12 500 0 c 0,35,36
 496 12 496 12 494 21 c 2,37,-1
 167 800 l 2,38,39
 150 838 150 838 123.5 855.5 c 128,-1,40
 97 873 97 873 76.5 882 c 128,-1,41
 56 891 56 891 46.5 897.5 c 128,-1,42
 37 904 37 904 34 910.5 c 128,-1,43
 31 917 31 917 31 920 c 256,44,45
 31 923 31 923 32 926 c 0,46,47
 35 931 35 931 43 931 c 2,48,-1
 371 931 l 2,49,50
 378 931 378 931 387 926 c 0,51,52
 395 919 395 919 397 914.5 c 128,-1,53
 399 910 399 910 399 904.5 c 128,-1,54
 399 899 399 899 377 879 c 128,-1,55
 355 859 355 859 352 849.5 c 128,-1,56
 349 840 349 840 349 829 c 128,-1,57
 349 818 349 818 355 805 c 2,58,-1
 617 166 l 1,59,-1
 830 676 l 1,60,-1
 778 800 l 2,61,62
 761 838 761 838 734.5 855.5 c 128,-1,63
 708 873 708 873 687.5 882 c 128,-1,64
 667 891 667 891 656 898.5 c 128,-1,65
 645 906 645 906 643.5 911.5 c 128,-1,66
 642 917 642 917 642 920 c 256,67,68
 642 923 642 923 643 926 c 0,69,70
 646 931 646 931 654 931 c 2,71,-1
 982 931 l 2,72,73
 989 931 989 931 998 926 c 0,74,75
 1006 919 1006 919 1008 914.5 c 128,-1,76
 1010 910 1010 910 1010 904.5 c 128,-1,77
 1010 899 1010 899 988 879 c 128,-1,78
 966 859 966 859 963 849.5 c 128,-1,79
 960 840 960 840 960 829 c 128,-1,80
 960 818 960 818 966 805 c 2,81,-1
 1228 166 l 1,82,-1
 1458 717 l 2,0,1
EndSplineSet
Substitution2: "'smcp' Lowercase to Small Capitals in Latin lookup 1 subtable" uni1D21
EndChar

StartChar: x
Encoding: 120 120 91
Width: 1098
GlyphClass: 2
Flags: W
LayerCount: 2
Fore
SplineSet
163 97 m 2,0,-1
 449 447 l 1,1,-1
 184 832 l 2,2,3
 168 856 168 856 130 876 c 0,4,5
 111 886 111 886 93 892.5 c 128,-1,6
 75 899 75 899 64 906 c 0,7,8
 41 919 41 919 41 924 c 256,9,10
 41 929 41 929 56 929 c 2,11,-1
 378 929 l 2,12,13
 393 929 393 929 403 915 c 0,14,15
 406 911 406 911 406 906 c 0,16,17
 406 900 406 900 397 895 c 0,18,19
 382 886 382 886 381 868 c 0,20,21
 381 853 381 853 393 836 c 2,22,-1
 564 587 l 1,23,-1
 734 796 l 2,24,25
 825 907 825 907 850 929 c 0,26,27
 859 937 859 937 875 937 c 0,28,29
 899 937 899 937 937 917 c 2,30,-1
 1001 883 l 2,31,32
 1010 878 1010 878 1010 869 c 0,33,34
 1010 864 1010 864 1007 858 c 2,35,-1
 956 754 l 1,36,37
 919 774 919 774 888 789 c 0,38,39
 880 793 880 793 872 793 c 0,40,41
 848 793 848 793 820 758 c 2,42,-1
 617 510 l 1,43,-1
 902 97 l 2,44,45
 920 68 920 68 961 51 c 0,46,47
 976 44 976 44 991.5 37.5 c 128,-1,48
 1007 31 1007 31 1022 23 c 0,49,50
 1045 10 1045 10 1045 5 c 256,51,52
 1045 0 1045 0 1030 0 c 2,53,-1
 708 0 l 2,54,55
 693 0 693 0 683 13 c 0,56,57
 680 18 680 18 680 22 c 0,58,59
 680 28 680 28 689 34 c 0,60,61
 703 42 703 42 705 60 c 2,62,-1
 705 62 l 2,63,64
 705 76 705 76 693 93 c 2,65,-1
 503 370 l 1,66,-1
 279 97 l 2,67,68
 260 71 260 71 260 55 c 2,69,-1
 260 52 l 2,70,71
 260 39 260 39 265 32 c 0,72,73
 266 29 266 29 266 26 c 0,74,75
 266 20 266 20 261 14 c 0,76,77
 252 0 252 0 242 0 c 2,78,-1
 34 0 l 2,79,80
 24 0 24 0 24 5 c 0,81,82
 24 9 24 9 28 14 c 0,83,84
 41 30 41 30 84 41 c 128,-1,85
 127 52 127 52 163 97 c 2,0,-1
EndSplineSet
Substitution2: "'smcp' Lowercase to Small Capitals in Latin lookup 1 subtable" uniEF11
EndChar

StartChar: y
Encoding: 121 121 92
Width: 1036
GlyphClass: 2
Flags: W
LayerCount: 2
Fore
SplineSet
519 -38 m 1,0,1
 519 -38 519 -38 167 800 c 0,2,3
 152 836 152 836 121 857 c 0,4,5
 92 876 92 876 65 887 c 128,-1,6
 38 898 38 898 34 908 c 128,-1,7
 30 918 30 918 30 924.5 c 128,-1,8
 30 931 30 931 43 931 c 2,9,-1
 371 931 l 2,10,11
 390 931 390 931 395 920 c 128,-1,12
 400 909 400 909 400 905 c 0,13,14
 400 893 400 893 380.5 883 c 128,-1,15
 361 873 361 873 355 856.5 c 128,-1,16
 349 840 349 840 349 829 c 0,17,18
 349 820 349 820 355 805 c 2,19,-1
 607 181 l 1,20,-1
 847 717 l 2,21,22
 856 737 856 737 856 766 c 0,23,24
 856 793 856 793 828 826 c 2,25,-1
 795 865 l 1,26,-1
 885 937 l 2,27,28
 892 943 892 943 897 942 c 0,29,30
 903 942 903 942 911 934 c 2,31,-1
 967 877 l 2,32,33
 984 860 984 860 984 838 c 0,34,35
 984 797 984 797 931 688 c 2,36,-1
 436 -414 l 2,37,38
 408 -477 408 -477 382 -523 c 0,39,40
 358 -566 358 -566 321 -566 c 2,41,-1
 238 -566 l 2,42,43
 219 -563 219 -563 219 -544 c 2,44,-1
 219 -429 l 1,45,-1
 264 -429 l 2,46,47
 331 -429 331 -429 359 -370 c 2,48,-1
 519 -38 l 1,0,1
EndSplineSet
Substitution2: "'smcp' Lowercase to Small Capitals in Latin lookup 1 subtable" uni028F
EndChar

StartChar: z
Encoding: 122 122 93
Width: 1019
GlyphClass: 2
Flags: W
LayerCount: 2
Fore
SplineSet
932 880 m 2,0,-1
 294 79 l 1,1,-1
 728 79 l 2,2,3
 779 81 779 81 814 114 c 128,-1,4
 849 147 849 147 892 207 c 0,5,6
 917 241 917 241 924 241 c 0,7,8
 942 241 942 241 942 223 c 2,9,-1
 942 65 l 2,10,11
 942 16 942 16 929 8 c 128,-1,12
 916 0 916 0 845 0 c 2,13,-1
 160 0 l 2,14,15
 88 1 88 1 63 8 c 0,16,17
 51 11 51 11 51 21 c 0,18,19
 51 32 51 32 67 51 c 2,20,-1
 699 861 l 1,21,-1
 347 861 l 2,22,23
 295 861 295 861 263 828 c 128,-1,24
 231 795 231 795 189 736 c 0,25,26
 164 703 164 703 157 703 c 0,27,28
 138 703 138 703 138 720 c 2,29,-1
 138 879 l 2,30,31
 138 926 138 926 154 937 c 0,32,33
 166 945 166 945 212 945 c 0,34,35
 221 946 221 946 236 945 c 2,36,-1
 858 945 l 2,37,38
 947 945 947 945 947 913 c 0,39,40
 947 899 947 899 932 880 c 2,0,-1
EndSplineSet
Substitution2: "'smcp' Lowercase to Small Capitals in Latin lookup 1 subtable" uni1D22
EndChar

StartChar: braceleft
Encoding: 123 123 94
Width: 1024
GlyphClass: 2
Flags: W
LayerCount: 2
Fore
SplineSet
158 613 m 0,0,1
 142 614 142 614 136 624 c 0,2,3
 130 631 130 631 130 643 c 0,4,5
 130 647 130 647 131 652 c 0,6,7
 134 670 134 670 158 673 c 0,8,9
 310 686 310 686 366 746 c 0,10,11
 399 782 399 782 409.5 843 c 128,-1,12
 420 904 420 904 420 961 c 2,13,-1
 420 1173 l 2,14,15
 420 1245 420 1245 434.5 1321.5 c 128,-1,16
 449 1398 449 1398 496 1443 c 0,17,18
 570 1516 570 1516 774 1516 c 0,19,20
 794 1516 794 1516 802 1507 c 0,21,22
 812 1492 812 1492 812 1482 c 0,23,24
 812 1466 812 1466 782 1466 c 0,25,26
 649 1464 649 1464 602 1411 c 0,27,28
 571 1378 571 1378 562.5 1317.5 c 128,-1,29
 554 1257 554 1257 554 1204 c 2,30,-1
 554 1061 l 2,31,32
 554 984 554 984 543.5 895.5 c 128,-1,33
 533 807 533 807 497 755 c 0,34,35
 440 673 440 673 286 642 c 1,36,37
 439 611 439 611 497 529 c 0,38,39
 533 477 533 477 543.5 389 c 128,-1,40
 554 301 554 301 554 223 c 2,41,-1
 554 80 l 2,42,43
 554 -73 554 -73 602 -126 c 0,44,45
 650 -178 650 -178 782 -180 c 0,46,47
 798 -180 798 -180 804 -195 c 0,48,49
 806 -201 806 -201 806 -207 c 0,50,51
 806 -215 806 -215 800 -223 c 0,52,53
 793 -231 793 -231 774 -231 c 0,54,55
 572 -231 572 -231 496 -158 c 0,56,57
 449 -113 449 -113 434.5 -37 c 128,-1,58
 420 39 420 39 420 112 c 2,59,-1
 420 323 l 2,60,61
 420 380 420 380 409 441.5 c 128,-1,62
 398 503 398 503 365 541 c 0,63,64
 330 577 330 577 271.5 593 c 128,-1,65
 213 609 213 609 158 613 c 0,0,1
EndSplineSet
EndChar

StartChar: bar
Encoding: 124 124 95
Width: 1024
GlyphClass: 2
Flags: W
LayerCount: 2
Fore
SplineSet
450 1490 m 1,0,-1
 591 1490 l 1,1,-1
 591 -227 l 1,2,-1
 450 -227 l 1,3,-1
 450 1490 l 1,0,-1
EndSplineSet
EndChar

StartChar: asciitilde
Encoding: 126 126 97
Width: 1024
GlyphClass: 2
Flags: W
LayerCount: 2
Fore
SplineSet
963 729 m 0,0,1
 902 616 902 616 847 565 c 0,2,3
 787 510 787 510 722 510 c 0,4,5
 609 510 609 510 474 594 c 0,6,7
 399 640 399 640 332 640 c 0,8,9
 280 640 280 640 233 611 c 0,10,11
 221 603 221 603 204 592.5 c 128,-1,12
 187 582 187 582 167 564 c 0,13,14
 132 531 132 531 106 491 c 0,15,16
 99 481 99 481 89 481 c 0,17,18
 81 481 81 481 71 487 c 0,19,20
 58 494 58 494 58 506 c 0,21,22
 58 516 58 516 66 529 c 0,23,24
 113 601 113 601 161.5 677 c 128,-1,25
 210 753 210 753 312 753 c 0,26,27
 438 753 438 753 567 666 c 0,28,29
 636 619 636 619 704 619 c 0,30,31
 763 619 763 619 821 654 c 0,32,33
 876 686 876 686 917 761 c 0,34,35
 924 773 924 773 938 773 c 0,36,37
 941 773 941 773 944 772 c 0,38,39
 963 769 963 769 966 751 c 0,40,41
 967 748 967 748 967 745 c 0,42,43
 967 738 967 738 963 729 c 0,0,1
EndSplineSet
EndChar

StartChar: currency
Encoding: 164 164 102
Width: 1024
GlyphClass: 2
Flags: W
LayerCount: 2
Fore
SplineSet
513 732 m 0,0,1
 406 732 406 732 331 656.5 c 128,-1,2
 256 581 256 581 256 475 c 256,3,4
 256 369 256 369 331 294 c 128,-1,5
 406 219 406 219 513 219 c 0,6,7
 618 219 618 219 693.5 294 c 128,-1,8
 769 369 769 369 769 475 c 256,9,10
 769 581 769 581 693.5 656.5 c 128,-1,11
 618 732 618 732 513 732 c 0,0,1
513 822 m 256,12,13
 629 822 629 822 723 751 c 1,14,-1
 867 895 l 2,15,16
 873 901 873 901 878 901 c 256,17,18
 883 901 883 901 887 896 c 2,19,-1
 934 850 l 2,20,21
 938 845 938 845 938 840 c 256,22,23
 938 835 938 835 933 830 c 2,24,-1
 788 685 l 1,25,26
 859 593 859 593 859 476 c 0,27,28
 859 358 859 358 788 267 c 1,29,-1
 933 123 l 2,30,31
 938 117 938 117 938 112 c 256,32,33
 938 107 938 107 934 102 c 2,34,-1
 887 56 l 2,35,36
 882 51 882 51 877 51 c 256,37,38
 872 51 872 51 867 57 c 2,39,-1
 723 201 l 1,40,41
 630 131 630 131 513 131 c 256,42,43
 396 131 396 131 304 201 c 1,44,-1
 160 57 l 2,45,46
 154 51 154 51 149 51 c 256,47,48
 144 51 144 51 139 56 c 2,49,-1
 93 102 l 2,50,51
 88 107 88 107 88 112 c 256,52,53
 88 117 88 117 94 123 c 2,54,-1
 238 267 l 1,55,56
 168 359 168 359 168 476 c 0,57,58
 168 592 168 592 238 685 c 1,59,-1
 94 830 l 2,60,61
 88 835 88 835 88 840 c 256,62,63
 88 845 88 845 93 850 c 2,64,-1
 139 896 l 2,65,66
 144 901 144 901 149 901 c 256,67,68
 154 901 154 901 160 895 c 2,69,-1
 304 751 l 1,70,71
 397 822 397 822 513 822 c 256,12,13
EndSplineSet
EndChar

StartChar: section
Encoding: 167 167 105
Width: 1024
GlyphClass: 2
Flags: W
LayerCount: 2
Fore
SplineSet
499 -365 m 0,0,1
 574 -359 574 -359 643 -325 c 128,-1,2
 712 -291 712 -291 754 -224 c 0,3,4
 797 -154 797 -154 797 -58 c 2,5,-1
 797 -47 l 2,6,7
 794 56 794 56 718 111 c 0,8,9
 682 137 682 137 632 152 c 0,10,11
 534 179 534 179 432.5 190 c 128,-1,12
 331 201 331 201 239 246 c 0,13,14
 157 285 157 285 116.5 360 c 128,-1,15
 76 435 76 435 76 524 c 0,16,17
 76 692 76 692 190 802 c 1,18,19
 76 889 76 889 76 1051 c 0,20,21
 76 1224 76 1224 196 1335 c 0,22,23
 321 1450 321 1450 508 1450 c 0,24,25
 522 1450 522 1450 536 1449 c 0,26,27
 742 1440 742 1440 887 1347 c 1,28,-1
 864 1153 l 2,29,30
 862 1135 862 1135 849 1135 c 0,31,32
 846 1135 846 1135 843 1136 c 0,33,34
 830 1137 830 1137 820 1162 c 0,35,36
 781 1245 781 1245 704.5 1303.5 c 128,-1,37
 628 1362 628 1362 541 1366 c 1,38,-1
 526 1366 l 2,39,40
 441 1366 441 1366 375 1335 c 0,41,42
 333 1315 333 1315 305 1286 c 0,43,44
 280 1261 280 1261 263 1222 c 0,45,46
 247 1188 247 1188 240 1152 c 0,47,48
 234 1122 234 1122 234 1094 c 0,49,50
 234 1059 234 1059 244 1029 c 0,51,52
 263 967 263 967 311 933 c 0,53,54
 343 908 343 908 389 896 c 0,55,56
 413 890 413 890 446 884.5 c 128,-1,57
 479 879 479 879 515 873 c 0,58,59
 567 864 567 864 626 855 c 128,-1,60
 685 846 685 846 740 830 c 0,61,62
 834 799 834 799 878 751 c 0,63,64
 911 716 911 716 933 668 c 0,65,66
 958 607 958 607 958 534 c 0,67,68
 958 371 958 371 848 252 c 1,69,70
 864 240 864 240 878 225 c 0,71,72
 912 187 912 187 933 141 c 0,73,74
 958 80 958 80 958 7 c 0,75,76
 958 -188 958 -188 797 -321 c 0,77,78
 715 -387 715 -387 613 -422 c 0,79,80
 537 -447 537 -447 440 -453 c 0,81,82
 421 -454 421 -454 402 -454 c 0,83,84
 272 -454 272 -454 153 -417 c 1,85,-1
 66 -172 l 2,86,87
 64 -167 64 -167 64 -163 c 0,88,89
 64 -153 64 -153 71 -144 c 0,90,91
 77 -133 77 -133 87 -133 c 2,92,-1
 90 -133 l 2,93,94
 100 -134 100 -134 113 -159 c 0,95,96
 173 -287 173 -287 263 -330 c 0,97,98
 337 -367 337 -367 450 -367 c 0,99,100
 474 -367 474 -367 499 -365 c 0,0,1
752 299 m 2,101,-1
 754 301 l 1,102,103
 797 370 797 370 797 468 c 2,104,-1
 797 479 l 2,105,106
 794 583 794 583 718 638 c 0,107,108
 679 665 679 665 632 679 c 0,109,110
 549 701 549 701 463 711.5 c 128,-1,111
 377 722 377 722 296 749 c 1,112,113
 276 727 276 727 263 696 c 0,114,115
 247 663 247 663 240 625 c 0,116,117
 234 595 234 595 234 567 c 0,118,119
 234 532 234 532 244 502 c 0,120,121
 264 439 264 439 311 407 c 1,122,123
 342 381 342 381 389 370 c 0,124,125
 425 361 425 361 515 346 c 0,126,127
 567 337 567 337 626 328 c 128,-1,128
 685 319 685 319 740 303 c 0,129,130
 743 302 743 302 746 300.5 c 128,-1,131
 749 299 749 299 752 299 c 2,101,-1
EndSplineSet
EndChar

StartChar: guillemotleft
Encoding: 171 171 109
Width: 1024
GlyphClass: 2
Flags: W
LayerCount: 2
Fore
SplineSet
512 616 m 0,0,1
 507 620 507 620 507 626 c 128,-1,2
 507 632 507 632 512 640 c 0,3,4
 572 712 572 712 679 811 c 128,-1,5
 786 910 786 910 861 988 c 0,6,7
 865 992 865 992 868 992 c 128,-1,8
 871 992 871 992 873 990 c 2,9,-1
 910 964 l 2,10,11
 914 960 914 960 914 957 c 0,12,13
 914 955 914 955 912 953 c 2,14,-1
 658 629 l 1,15,-1
 914 302 l 2,16,17
 915 300 915 300 915 299 c 0,18,19
 915 294 915 294 910 291 c 2,20,-1
 873 265 l 2,21,22
 871 263 871 263 868 263 c 128,-1,23
 865 263 865 263 861 267 c 0,24,25
 776 351 776 351 686.5 439 c 128,-1,26
 597 527 597 527 512 616 c 0,0,1
102 616 m 0,27,28
 97 620 97 620 97 626 c 128,-1,29
 97 632 97 632 102 640 c 0,30,31
 162 712 162 712 269 811 c 128,-1,32
 376 910 376 910 451 988 c 0,33,34
 455 992 455 992 458 992 c 128,-1,35
 461 992 461 992 463 990 c 2,36,-1
 500 964 l 2,37,38
 504 960 504 960 504 957 c 0,39,40
 504 955 504 955 502 953 c 2,41,-1
 248 629 l 1,42,-1
 504 302 l 2,43,44
 505 300 505 300 505 299 c 0,45,46
 505 294 505 294 500 291 c 2,47,-1
 463 265 l 2,48,49
 461 263 461 263 458 263 c 128,-1,50
 455 263 455 263 451 267 c 0,51,52
 366 351 366 351 276.5 439 c 128,-1,53
 187 527 187 527 102 616 c 0,27,28
EndSplineSet
EndChar

StartChar: logicalnot
Encoding: 172 172 110
Width: 1100
GlyphClass: 2
Flags: W
LayerCount: 2
Fore
SplineSet
1034 341 m 1,0,-1
 917 341 l 1,1,-1
 917 775 l 1,2,-1
 66 775 l 1,3,-1
 66 887 l 1,4,-1
 1034 887 l 1,5,-1
 1034 341 l 1,0,-1
EndSplineSet
EndChar

StartChar: degree
Encoding: 176 176 114
Width: 819
GlyphClass: 2
Flags: W
LayerCount: 2
Fore
SplineSet
406 1387 m 0,0,1
 534 1387 534 1387 624.5 1296.5 c 128,-1,2
 715 1206 715 1206 715 1078 c 256,3,4
 715 950 715 950 624.5 859.5 c 128,-1,5
 534 769 534 769 406 769 c 0,6,7
 277 769 277 769 187 859.5 c 128,-1,8
 97 950 97 950 97 1078 c 256,9,10
 97 1206 97 1206 187 1296.5 c 128,-1,11
 277 1387 277 1387 406 1387 c 0,0,1
406 1305 m 0,12,13
 312 1305 312 1305 246 1238 c 128,-1,14
 180 1171 180 1171 180 1078 c 0,15,16
 180 984 180 984 246 918 c 128,-1,17
 312 852 312 852 406 852 c 0,18,19
 499 852 499 852 565.5 918 c 128,-1,20
 632 984 632 984 632 1078 c 0,21,22
 632 1171 632 1171 565.5 1238 c 128,-1,23
 499 1305 499 1305 406 1305 c 0,12,13
EndSplineSet
EndChar

StartChar: mu
Encoding: 181 181 119
Width: 1325
GlyphClass: 2
Flags: W
LayerCount: 2
Fore
SplineSet
890 752 m 2,0,1
 890 815 890 815 839 833 c 128,-1,2
 788 851 788 851 788 877 c 0,3,4
 788 898 788 898 809 898 c 0,5,6
 864 900 864 900 924 915 c 0,7,8
 993 930 993 930 1070 958 c 1,9,-1
 1070 142 l 2,10,11
 1070 77 1070 77 1121.5 61.5 c 128,-1,12
 1173 46 1173 46 1173 21 c 0,13,14
 1173 0 1173 0 1152 0 c 2,15,-1
 890 0 l 1,16,-1
 890 87 l 1,17,-1
 682 6 l 2,18,19
 651 -6 651 -6 563 -17 c 0,20,21
 547 -19 547 -19 531 -17 c 0,22,23
 456 -9 456 -9 400 24 c 0,24,25
 308 78 308 78 275 139 c 1,26,27
 275 85 275 85 280 22 c 2,28,-1
 327 -532 l 1,29,-1
 327 -534 l 2,30,31
 327 -553 327 -553 307 -553 c 2,32,-1
 215 -553 l 2,33,34
 195 -553 195 -553 195 -532 c 2,35,-1
 195 811 l 1,36,37
 171 835 171 835 142 847 c 128,-1,38
 113 859 113 859 113 877 c 0,39,40
 113 898 113 898 134 898 c 0,41,42
 193 901 193 901 250 916 c 0,43,44
 286 926 286 926 319 937 c 128,-1,45
 352 948 352 948 388 958 c 1,46,-1
 388 424 l 2,47,48
 388 246 388 246 468 149 c 0,49,50
 535 67 535 67 633 67 c 0,51,52
 684 67 684 67 744 89 c 2,53,-1
 890 143 l 1,54,-1
 890 752 l 2,0,1
EndSplineSet
EndChar

StartChar: paragraph
Encoding: 182 182 120
Width: 1266
GlyphClass: 2
Flags: W
LayerCount: 2
Fore
SplineSet
677 1337 m 1,0,-1
 677 -234 l 1,1,-1
 937 -234 l 1,2,-1
 937 1337 l 1,3,-1
 677 1337 l 1,0,-1
529 797 m 1,4,5
 481 781 481 781 433 781 c 0,6,7
 309 781 309 781 222 872.5 c 128,-1,8
 135 964 135 964 135 1093 c 0,9,10
 135 1221 135 1221 222 1312.5 c 128,-1,11
 309 1404 309 1404 432 1405 c 2,12,-1
 1181 1405 l 2,13,14
 1207 1405 1207 1405 1207 1379 c 0,15,16
 1207 1348 1207 1348 1146 1326 c 128,-1,17
 1085 1304 1085 1304 1085 1226 c 2,18,-1
 1085 -122 l 2,19,20
 1085 -200 1085 -200 1146 -222 c 128,-1,21
 1207 -244 1207 -244 1207 -275 c 0,22,23
 1207 -300 1207 -300 1181 -300 c 2,24,-1
 433 -300 l 2,25,26
 407 -300 407 -300 407 -275 c 0,27,28
 407 -244 407 -244 468 -222 c 128,-1,29
 529 -200 529 -200 529 -122 c 2,30,-1
 529 797 l 1,4,5
EndSplineSet
EndChar

StartChar: periodcentered
Encoding: 183 183 121
Width: 512
GlyphClass: 2
Flags: W
LayerCount: 2
Fore
SplineSet
255 496 m 256,0,1
 204 496 204 496 168.5 531.5 c 128,-1,2
 133 567 133 567 133 617.5 c 128,-1,3
 133 668 133 668 168.5 704 c 128,-1,4
 204 740 204 740 255 740 c 256,5,6
 306 740 306 740 341.5 704 c 128,-1,7
 377 668 377 668 377 617.5 c 128,-1,8
 377 567 377 567 341.5 531.5 c 128,-1,9
 306 496 306 496 255 496 c 256,0,1
EndSplineSet
EndChar

StartChar: cedilla
Encoding: 184 184 122
Width: 1000
GlyphClass: 2
Flags: W
LayerCount: 2
Fore
SplineSet
442 -45 m 1,0,1
 442 -45 442 -45 498 -45 c 1,2,3
 490 -65 490 -65 490 -83 c 0,4,5
 490 -118 490 -118 520 -145 c 0,6,7
 549 -172 549 -172 589 -206 c 0,8,9
 646 -253 646 -253 646 -331 c 0,10,11
 646 -334 646 -334 646 -338 c 0,12,13
 642 -420 642 -420 522 -429 c 0,14,15
 517 -429 517 -429 512 -429 c 0,16,17
 447 -429 447 -429 369 -402 c 1,18,-1
 354 -334 l 1,19,20
 399 -368 399 -368 444 -368 c 0,21,22
 479 -368 479 -368 513 -348 c 0,23,24
 543 -328 543 -328 543 -294 c 0,25,26
 543 -262 543 -262 501.5 -221.5 c 128,-1,27
 460 -181 460 -181 434 -137 c 0,28,29
 423 -118 423 -118 423 -98 c 0,30,31
 423 -72 423 -72 442 -45 c 1,0,1
EndSplineSet
EndChar

StartChar: AE
Encoding: 198 198 136
Width: 1993
GlyphClass: 2
Flags: W
LayerCount: 2
Fore
SplineSet
1188 94 m 1,0,-1
 1616 94 l 2,1,2
 1708 94 1708 94 1772.5 165.5 c 128,-1,3
 1837 237 1837 237 1870 277 c 0,4,5
 1888 299 1888 299 1898 299 c 0,6,7
 1919 299 1919 299 1919 278 c 0,8,9
 1919 265 1919 265 1917 257 c 2,10,-1
 1844 0 l 1,11,-1
 925 0 l 2,12,13
 907 0 907 0 907 21 c 0,14,15
 907 46 907 46 957 63.5 c 128,-1,16
 1007 81 1007 81 1007 146 c 2,17,-1
 1007 489 l 1,18,-1
 502 489 l 1,19,20
 454 403 454 403 405.5 317.5 c 128,-1,21
 357 232 357 232 309 147 c 0,22,23
 300 131 300 131 294 111 c 0,24,25
 290 100 290 100 290 88 c 0,26,27
 290 83 290 83 291 78 c 0,28,29
 293 65 293 65 298 56.5 c 128,-1,30
 303 48 303 48 305 39 c 0,31,32
 306 36 306 36 306 33 c 0,33,34
 306 31 306 31 305 28 c 0,35,36
 304 26 304 26 303 24 c 128,-1,37
 302 22 302 22 302 21 c 0,38,39
 291 0 291 0 277 0 c 2,40,-1
 20 0 l 2,41,42
 9 0 9 0 6 6 c 2,43,-1
 6 11 l 2,44,45
 6 15 6 15 9 21 c 0,46,47
 17 32 17 32 46 47 c 0,48,49
 63 54 63 54 81.5 62.5 c 128,-1,50
 100 71 100 71 119 83 c 0,51,52
 159 109 159 109 182 146 c 2,53,-1
 883 1336 l 1,54,55
 844 1345 844 1345 812 1355 c 128,-1,56
 780 1365 780 1365 780 1383 c 0,57,58
 780 1405 780 1405 801 1405 c 2,59,-1
 1856 1405 l 1,60,-1
 1856 1147 l 2,61,62
 1856 1126 1856 1126 1835 1126 c 0,63,64
 1825 1126 1825 1126 1798 1166 c 0,65,66
 1748 1235 1748 1235 1711.5 1273 c 128,-1,67
 1675 1311 1675 1311 1616 1311 c 2,68,-1
 1188 1311 l 1,69,-1
 1188 768 l 1,70,-1
 1417 768 l 2,71,72
 1481 768 1481 768 1501 819.5 c 128,-1,73
 1521 871 1521 871 1547 871 c 0,74,75
 1567 871 1567 871 1567 850 c 2,76,-1
 1567 596 l 2,77,78
 1567 575 1567 575 1547 575 c 0,79,80
 1521 575 1521 575 1498 626 c 128,-1,81
 1475 677 1475 677 1411 677 c 2,82,-1
 1188 677 l 1,83,-1
 1188 94 l 1,0,-1
1010 570 m 1,84,-1
 1007 1325 l 1,85,-1
 979 1325 l 1,86,87
 893 1173 893 1173 763 947.5 c 128,-1,88
 633 722 633 722 548 570 c 1,89,-1
 1010 570 l 1,84,-1
EndSplineSet
Substitution2: "'sups' Superscript in Latin lookup 7 subtable" uni1D01
EndChar

StartChar: Thorn
Encoding: 222 222 160
Width: 1151
GlyphClass: 2
Flags: W
LayerCount: 2
Fore
SplineSet
351 1257 m 2,0,-1
 351 1088 l 1,1,-1
 661 1088 l 2,2,3
 764 1088 764 1088 876 1051.5 c 128,-1,4
 988 1015 988 1015 1049 910 c 0,5,6
 1097 825 1097 825 1097 706 c 0,7,8
 1095 593 1095 593 1032 503 c 0,9,10
 978 426 978 426 878.5 388.5 c 128,-1,11
 779 351 779 351 697 351 c 2,12,-1
 351 351 l 1,13,-1
 351 146 l 2,14,15
 351 81 351 81 401 63.5 c 128,-1,16
 451 46 451 46 451 21 c 0,17,18
 451 0 451 0 430 0 c 2,19,-1
 91 0 l 2,20,21
 71 0 71 0 71 21 c 0,22,23
 71 46 71 46 121 63.5 c 128,-1,24
 171 81 171 81 171 146 c 2,25,-1
 171 1257 l 2,26,27
 171 1321 171 1321 121 1339 c 128,-1,28
 71 1357 71 1357 71 1383 c 0,29,30
 71 1405 71 1405 92 1405 c 2,31,-1
 430 1405 l 2,32,33
 451 1405 451 1405 451 1383 c 0,34,35
 451 1357 451 1357 401 1339 c 128,-1,36
 351 1321 351 1321 351 1257 c 2,0,-1
351 421 m 1,37,-1
 562 421 l 2,38,39
 631 421 631 421 702 441 c 128,-1,40
 773 461 773 461 824 512 c 0,41,42
 904 589 904 589 904 716 c 0,43,44
 902 839 902 839 821 920 c 0,45,46
 732 1005 732 1005 582 1005 c 2,47,-1
 351 1005 l 1,48,-1
 351 421 l 1,37,-1
EndSplineSet
Substitution2: "'sups' Superscript in Latin lookup 7 subtable" uniEF15
EndChar

StartChar: germandbls
Encoding: 223 223 161
Width: 1269
GlyphClass: 2
Flags: W
LayerCount: 2
Fore
SplineSet
432 1278 m 0,0,1
 397 1232 397 1232 392.5 1163 c 128,-1,2
 388 1094 388 1094 388 1027 c 2,3,-1
 388 146 l 2,4,5
 388 81 388 81 438 63.5 c 128,-1,6
 488 46 488 46 488 21 c 0,7,8
 488 0 488 0 467 0 c 2,9,-1
 128 0 l 2,10,11
 107 0 107 0 107 21 c 0,12,13
 107 46 107 46 157 63.5 c 128,-1,14
 207 81 207 81 207 146 c 2,15,-1
 207 1027 l 2,16,17
 207 1117 207 1117 229.5 1202.5 c 128,-1,18
 252 1288 252 1288 308 1351 c 0,19,20
 409 1466 409 1466 555 1466 c 0,21,22
 587 1466 587 1466 622 1460 c 0,23,24
 796 1430 796 1430 880 1265 c 0,25,26
 912 1200 912 1200 912 1140 c 0,27,28
 912 1046 912 1046 833 962 c 0,29,30
 779 904 779 904 715.5 859.5 c 128,-1,31
 652 815 652 815 638 751 c 0,32,33
 633 729 633 729 633 711 c 0,34,35
 633 648 633 648 689 621 c 0,36,37
 760 585 760 585 854 564 c 0,38,39
 983 535 983 535 1089 486 c 128,-1,40
 1195 437 1195 437 1204 281 c 1,41,-1
 1204 269 l 2,42,43
 1204 196 1204 196 1147 123 c 0,44,45
 1085 43 1085 43 968 2 c 0,46,47
 895 -22 895 -22 806 -25 c 2,48,-1
 779 -25 l 2,49,50
 657 -25 657 -25 544 7 c 1,51,-1
 464 227 l 1,52,-1
 466 247 l 2,53,54
 467 262 467 262 484 262 c 2,55,-1
 486 262 l 2,56,57
 496 260 496 260 507 238 c 0,58,59
 553 139 553 139 619.5 97.5 c 128,-1,60
 686 56 686 56 788 53 c 2,61,-1
 800 53 l 2,62,63
 872 53 872 53 957 86 c 0,64,65
 1049 122 1049 122 1052 216 c 2,66,-1
 1052 222 l 2,67,68
 1052 330 1052 330 950 359 c 0,69,70
 844 389 844 389 764 412 c 0,71,72
 665 439 665 439 578 498 c 0,73,74
 492 556 492 556 492 672 c 2,75,-1
 492 675 l 2,76,77
 492 774 492 774 558 824.5 c 128,-1,78
 624 875 624 875 687 934 c 0,79,80
 752 994 752 994 765 1093 c 0,81,82
 767 1113 767 1113 767 1133 c 0,83,84
 767 1206 767 1206 729 1261 c 0,85,86
 682 1326 682 1326 583 1336 c 0,87,88
 570 1337 570 1337 558 1337 c 0,89,90
 476 1337 476 1337 432 1278 c 0,0,1
EndSplineSet
EndChar

StartChar: dotlessi
Encoding: 305 305 243
Width: 597
GlyphClass: 2
Flags: W
LayerCount: 2
Fore
SplineSet
382 146 m 0,0,1
 382 81 382 81 432 63.5 c 128,-1,2
 482 46 482 46 482 21 c 0,3,4
 482 0 482 0 462 0 c 0,5,6
 129 0 129 0 129 0 c 2,7,8
 108 0 108 0 108 21 c 0,9,10
 108 46 108 46 158 63.5 c 128,-1,11
 208 81 208 81 208 146 c 0,12,13
 208 783 208 783 208 783 c 2,14,15
 208 846 208 846 158 864 c 128,-1,16
 108 882 108 882 108 908 c 0,17,18
 108 929 108 929 129 929 c 0,19,20
 186 929 186 929 253 949 c 0,21,22
 310 966 310 966 337 998 c 0,23,24
 343 1005 343 1005 349 1004 c 0,25,26
 361 1002 361 1002 369 998 c 0,27,28
 382 992 382 992 382 981 c 2,29,30
 382 981 382 981 382 146 c 0,0,1
EndSplineSet
EndChar

StartChar: OE
Encoding: 338 338 276
Width: 2101
GlyphClass: 2
Flags: W
LayerCount: 2
Fore
SplineSet
1352 94 m 1,0,-1
 1779 94 l 2,1,2
 1872 94 1872 94 1936.5 165.5 c 128,-1,3
 2001 237 2001 237 2034 277 c 0,4,5
 2052 299 2052 299 2062 299 c 0,6,7
 2083 299 2083 299 2083 278 c 0,8,9
 2083 265 2083 265 2081 257 c 2,10,-1
 2008 0 l 1,11,-1
 1142 0 l 1,12,13
 1089 -15 1089 -15 1035 -23 c 0,14,15
 936 -37 936 -37 847 -37 c 0,16,17
 540 -37 540 -37 303 159 c 128,-1,18
 66 355 66 355 66 701 c 0,19,20
 66 1038 66 1038 296.5 1241.5 c 128,-1,21
 527 1445 527 1445 847 1445 c 0,22,23
 851 1445 851 1445 856 1445 c 0,24,25
 967 1445 967 1445 1092 1420 c 0,26,27
 1122 1414 1122 1414 1151 1405 c 1,28,-1
 2020 1405 l 1,29,-1
 2020 1147 l 2,30,31
 2020 1126 2020 1126 1999 1126 c 0,32,33
 1989 1126 1989 1126 1962 1166 c 0,34,35
 1912 1235 1912 1235 1875.5 1273 c 128,-1,36
 1839 1311 1839 1311 1779 1311 c 2,37,-1
 1352 1311 l 1,38,-1
 1352 768 l 1,39,-1
 1581 768 l 2,40,41
 1645 768 1645 768 1665 819.5 c 128,-1,42
 1685 871 1685 871 1711 871 c 0,43,44
 1731 871 1731 871 1731 850 c 2,45,-1
 1731 596 l 2,46,47
 1731 575 1731 575 1711 575 c 0,48,49
 1685 575 1685 575 1662 626 c 128,-1,50
 1639 677 1639 677 1575 677 c 2,51,-1
 1352 677 l 1,52,-1
 1352 94 l 1,0,-1
1171 150 m 1,53,-1
 1171 1248 l 1,54,55
 1135 1280 1135 1280 1091 1303 c 0,56,57
 983 1356 983 1356 861 1356 c 2,58,-1
 840 1356 l 1,59,60
 570 1344 570 1344 418 1140 c 0,61,62
 281 957 281 957 281 735 c 0,63,64
 281 710 281 710 283 685 c 0,65,66
 297 455 297 455 445 266 c 128,-1,67
 593 77 593 77 847 65 c 0,68,69
 871 64 871 64 893 64 c 0,70,71
 1021 64 1021 64 1104 103 c 0,72,73
 1140 120 1140 120 1171 150 c 1,53,-1
EndSplineSet
Substitution2: "'sups' Superscript in Latin lookup 7 subtable" uni0276
EndChar

StartChar: uni0184
Encoding: 388 388 326
Width: 1192
GlyphClass: 2
Flags: W
LayerCount: 2
Fore
SplineSet
363 75 m 1,0,-1
 559 75 l 2,1,2
 727 75 727 75 820 164.5 c 128,-1,3
 913 254 913 254 913 388 c 2,4,5
 913 388 913 388 913 391 c 0,6,7
 913 523 913 523 821 611.5 c 128,-1,8
 729 700 729 700 569 700 c 2,9,-1
 363 700 l 1,10,-1
 363 75 l 1,0,-1
103 0 m 0,11,12
 83 0 83 0 83 20 c 0,13,14
 83 45 83 45 133 62.5 c 128,-1,15
 183 80 183 80 183 145 c 2,16,-1
 183 1255 l 2,17,18
 183 1320 183 1320 133 1337.5 c 128,-1,19
 83 1355 83 1355 83 1379 c 128,-1,20
 83 1403 83 1403 104 1403 c 2,21,-1
 442 1403 l 2,22,23
 463 1403 463 1403 463 1379 c 128,-1,24
 463 1355 463 1355 413 1337.5 c 128,-1,25
 363 1320 363 1320 363 1255 c 2,26,-1
 363 789 l 1,27,-1
 653 789 l 2,28,29
 750 789 750 789 876 752.5 c 128,-1,30
 1002 716 1002 716 1068 599 c 0,31,32
 1120 508 1120 508 1120 384.5 c 128,-1,33
 1120 261 1120 261 1055 170.5 c 128,-1,34
 990 80 990 80 883.5 40 c 128,-1,35
 777 0 777 0 692 0 c 2,36,37
 692 0 692 0 103 0 c 0,11,12
EndSplineSet
EndChar

StartChar: uni018F
Encoding: 399 399 337
Width: 1316
GlyphClass: 2
Flags: W
LayerCount: 2
Fore
SplineSet
194 154 m 0,0,1
 49 312 49 312 49 568 c 0,2,3
 50 624 50 624 53 647 c 128,-1,4
 56 670 56 670 110 670 c 2,5,-1
 1066 670 l 1,6,7
 1062 906 1062 906 951 1047 c 0,8,9
 813 1221 813 1221 609 1262 c 0,10,11
 572 1270 572 1270 532 1270 c 0,12,13
 368 1270 368 1270 168 1138 c 0,14,15
 128 1112 128 1112 114 1124 c 0,16,17
 110 1128 110 1128 110 1140 c 0,18,19
 110 1158 110 1158 175 1216 c 0,20,21
 355 1383 355 1383 586 1383 c 0,22,23
 587 1383 587 1383 589 1383 c 0,24,25
 955 1382 955 1382 1139 1148 c 0,26,27
 1281 968 1281 968 1281 722 c 0,28,29
 1281 648 1281 648 1268 568 c 0,30,31
 1229 308 1229 308 1063 154 c 0,32,33
 894 -2 894 -2 621 -4 c 0,34,35
 340 -4 340 -4 194 154 c 0,0,1
207 594 m 1,36,37
 207 592 207 592 207 589 c 0,38,39
 207 309 207 309 328 188 c 0,40,41
 437 78 437 78 645 78 c 0,42,43
 843 78 843 78 955 250 c 0,44,45
 1032 368 1032 368 1068 594 c 1,46,-1
 207 594 l 1,36,37
EndSplineSet
EndChar

StartChar: uni0191
Encoding: 401 401 339
Width: 1159
GlyphClass: 2
Flags: W
LayerCount: 2
Fore
SplineSet
249 1257 m 2,0,1
 249 1322 249 1322 202 1339.5 c 128,-1,2
 155 1357 155 1357 155 1383 c 0,3,4
 155 1404 155 1404 176 1404 c 2,5,-1
 1104 1404 l 1,6,-1
 1104 1147 l 2,7,8
 1104 1126 1104 1126 1083 1126 c 0,9,10
 1073 1126 1073 1126 1046 1166 c 0,11,12
 996 1235 996 1235 959.5 1273 c 128,-1,13
 923 1311 923 1311 863 1311 c 2,14,-1
 430 1311 l 1,15,-1
 430 768 l 1,16,-1
 665 768 l 2,17,18
 707 768 707 768 739 805 c 0,19,20
 757 827 757 827 768 849 c 128,-1,21
 779 871 779 871 795 871 c 0,22,23
 815 871 815 871 815 850 c 2,24,-1
 815 596 l 2,25,26
 815 575 815 575 795 575 c 0,27,28
 777 575 777 575 764.5 600.5 c 128,-1,29
 752 626 752 626 731 650 c 0,30,31
 703 678 703 678 665 678 c 2,32,-1
 430 678 l 1,33,-1
 430 180 l 2,34,35
 430 -17 430 -17 403.5 -113 c 128,-1,36
 377 -209 377 -209 312 -277 c 0,37,38
 222 -369 222 -369 110 -399 c 1,39,-1
 110 -349 l 1,40,41
 149 -325 149 -325 183 -287.5 c 128,-1,42
 217 -250 217 -250 236 -189 c 0,43,44
 248 -148 248 -148 248.5 -74 c 128,-1,45
 249 0 249 0 249 174 c 2,46,-1
 249 1257 l 2,0,1
EndSplineSet
EndChar

StartChar: uni0194
Encoding: 404 404 342
Width: 1481
GlyphClass: 2
Flags: W
LayerCount: 2
Fore
SplineSet
849 81 m 1,0,1
 882 -5 882 -5 926 -114 c 0,2,3
 976 -237 976 -237 976 -318 c 0,4,5
 976 -322 976 -322 976 -325 c 0,6,7
 976 -331 976 -331 976 -331 c 2,8,9
 976 -334 976 -334 976 -336 c 0,10,11
 976 -379 976 -379 934 -448 c 0,12,13
 886 -526 886 -526 775 -526 c 0,14,15
 772 -526 772 -526 768 -526 c 0,16,17
 765 -526 765 -526 761 -526 c 0,18,19
 758 -526 758 -526 755 -526 c 0,20,21
 685 -526 685 -526 626 -462 c 0,22,23
 574 -406 574 -406 574 -330 c 0,24,25
 574 -315 574 -315 576 -297 c 0,26,27
 586 -208 586 -208 626 -127 c 0,28,29
 666 -47 666 -47 678 -23 c 1,30,31
 660 22 660 22 647.5 56 c 128,-1,32
 635 90 635 90 632 99 c 2,33,-1
 264 1120 l 2,34,35
 229 1214 229 1214 208 1264 c 0,36,37
 190 1302 190 1302 151 1329 c 0,38,39
 128 1344 128 1344 105.5 1353 c 128,-1,40
 83 1362 83 1362 70 1372 c 0,41,42
 60 1379 60 1379 58 1386 c 0,43,44
 54 1393 54 1393 58 1400 c 0,45,46
 61 1406 61 1406 69 1406 c 2,47,-1
 399 1406 l 2,48,49
 407 1406 407 1406 416 1400 c 0,50,51
 425 1392 425 1392 428 1386 c 0,52,53
 432 1374 432 1374 418 1361 c 0,54,55
 409 1352 409 1352 396.5 1342 c 128,-1,56
 384 1332 384 1332 378 1317 c 0,57,58
 369 1294 369 1294 381 1269 c 2,59,-1
 794 213 l 1,60,-1
 1235 1118 l 2,61,62
 1247 1142 1247 1142 1247 1162 c 0,63,64
 1247 1179 1247 1179 1238 1193 c 0,65,66
 1221 1222 1221 1222 1181 1270 c 2,67,-1
 1133 1326 l 1,68,-1
 1254 1417 l 2,69,70
 1272 1432 1272 1432 1292 1414 c 2,71,-1
 1372 1332 l 2,72,73
 1397 1306 1397 1306 1397 1274 c 0,74,75
 1397 1272 1397 1272 1397 1269 c 0,76,77
 1397 1249 1397 1249 1388 1222 c 0,78,79
 1367 1157 1367 1157 1320 1060 c 2,80,-1
 849 81 l 1,0,1
728 -160 m 1,81,82
 674 -270 674 -270 674 -334 c 0,83,84
 674 -337 674 -337 674 -339 c 0,85,86
 674 -366 674 -366 683 -388 c 0,87,88
 700 -430 700 -430 722 -430 c 0,89,90
 739 -430 739 -430 759 -406 c 0,91,92
 778 -383 778 -383 778 -345 c 0,93,94
 778 -315 778 -315 767 -280 c 0,95,96
 737 -184 737 -184 728 -160 c 1,81,82
EndSplineSet
EndChar

StartChar: uni0195
Encoding: 405 405 343
Width: 1771
GlyphClass: 2
Flags: W
LayerCount: 2
Fore
SplineSet
1647 412 m 2,0,1
 1648 399 1648 399 1648 386 c 0,2,3
 1648 267 1648 267 1597 185 c 0,4,5
 1541 94 1541 94 1332 25 c 0,6,7
 1239 -5 1239 -5 1161 -10 c 0,8,9
 1152 -11 1152 -11 1143 -11 c 0,10,11
 1074 -11 1074 -11 1003 23 c 0,12,13
 908 69 908 69 870 159 c 0,14,15
 828 253 828 253 828 483 c 2,16,-1
 828 504 l 2,17,18
 828 697 828 697 732 792 c 0,19,20
 671 852 671 852 588 852 c 0,21,22
 539 852 539 852 483 831 c 2,23,-1
 341 779 l 1,24,-1
 341 142 l 2,25,26
 341 79 341 79 389.5 61.5 c 128,-1,27
 438 44 438 44 438 20 c 0,28,29
 438 0 438 0 418 0 c 2,30,-1
 89 0 l 2,31,32
 69 0 69 0 69 20 c 0,33,34
 69 44 69 44 117.5 61.5 c 128,-1,35
 166 79 166 79 166 142 c 2,36,-1
 166 1222 l 2,37,38
 166 1285 166 1285 117.5 1302.5 c 128,-1,39
 69 1320 69 1320 69 1344 c 0,40,41
 69 1365 69 1365 89 1365 c 0,42,43
 153 1368 153 1368 215.5 1384.5 c 128,-1,44
 278 1401 278 1401 341 1423 c 1,45,-1
 341 835 l 1,46,-1
 543 912 l 2,47,48
 601 934 601 934 659 934 c 0,49,50
 674 934 674 934 690 933 c 0,51,52
 762 925 762 925 817 895 c 0,53,54
 919 837 919 837 956 746 c 0,55,56
 992 656 992 656 992 427 c 2,57,-1
 992 414 l 2,58,59
 992 326 992 326 1011.5 251 c 128,-1,60
 1031 176 1031 176 1069 145 c 0,61,62
 1108 112 1108 112 1166 82 c 0,63,64
 1193 68 1193 68 1229 68 c 0,65,66
 1272 68 1272 68 1329 87 c 0,67,68
 1471 136 1471 136 1477 230 c 0,69,70
 1484 340 1484 340 1484 452 c 2,71,-1
 1484 480 l 2,72,73
 1483 605 1483 605 1483 731 c 0,74,75
 1483 793 1483 793 1431 810.5 c 128,-1,76
 1379 828 1379 828 1379 853 c 0,77,78
 1379 873 1379 873 1400 873 c 0,79,80
 1455 875 1455 875 1513 890 c 0,81,82
 1548 898 1548 898 1580 908.5 c 128,-1,83
 1612 919 1612 919 1647 931 c 1,84,-1
 1647 412 l 2,0,1
EndSplineSet
EndChar

StartChar: uni0196
Encoding: 406 406 344
Width: 553
GlyphClass: 2
Flags: W
LayerCount: 2
Fore
SplineSet
382 6 m 2,0,1
 382 -168 382 -168 382 -242 c 0,2,3
 383 -298 383 -298 401 -357 c 0,4,5
 420 -419 420 -419 453 -456 c 0,6,7
 487 -493 487 -493 527 -517 c 1,8,-1
 527 -567 l 1,9,10
 415 -539 415 -539 325 -445 c 0,11,12
 259 -377 259 -377 233 -281 c 128,-1,13
 207 -185 207 -185 207 12 c 2,14,-1
 207 1257 l 2,15,16
 207 1321 207 1321 157 1339 c 128,-1,17
 107 1357 107 1357 107 1383 c 0,18,19
 107 1404 107 1404 128 1404 c 0,20,21
 194 1407 194 1407 256 1424 c 128,-1,22
 318 1441 318 1441 382 1463 c 1,23,-1
 382 6 l 2,0,1
EndSplineSet
EndChar

StartChar: uni019D
Encoding: 413 413 351
Width: 1672
GlyphClass: 2
Flags: W
LayerCount: 2
Fore
SplineSet
443 0 m 1,0,1
 437 -199 437 -199 391.5 -364.5 c 128,-1,2
 346 -530 346 -530 163 -557 c 0,3,4
 153 -561 153 -561 149 -561 c 2,5,-1
 85 -574 l 2,6,7
 77 -575 77 -575 69 -575 c 0,8,9
 16 -575 16 -575 2 -502 c 0,10,11
 -1 -487 -1 -487 -1 -474 c 0,12,13
 -1 -415 -1 -415 52 -405 c 2,14,-1
 116 -392 l 2,15,16
 125 -390 125 -390 133 -390 c 0,17,18
 184 -390 184 -390 199 -464 c 1,19,20
 211 -459 211 -459 214 -457 c 0,21,22
 307 -379 307 -379 324 -298 c 128,-1,23
 341 -217 341 -217 350 20 c 1,24,-1
 350 1222 l 2,25,26
 350 1285 350 1285 301.5 1302.5 c 128,-1,27
 253 1320 253 1320 253 1344 c 0,28,29
 253 1365 253 1365 273 1365 c 2,30,-1
 523 1365 l 1,31,-1
 1454 197 l 1,32,-1
 1454 1222 l 2,33,34
 1454 1285 1454 1285 1405.5 1302.5 c 128,-1,35
 1357 1320 1357 1320 1357 1344 c 0,36,37
 1357 1365 1357 1365 1377 1365 c 2,38,-1
 1625 1365 l 2,39,40
 1645 1365 1645 1365 1645 1344 c 0,41,42
 1645 1320 1645 1320 1596.5 1302.5 c 128,-1,43
 1548 1285 1548 1285 1548 1222 c 2,44,-1
 1547 -42 l 1,45,-1
 1375 0 l 1,46,-1
 444 1156 l 1,47,-1
 443 0 l 1,0,1
EndSplineSet
EndChar

StartChar: uni01A9
Encoding: 425 425 362
Width: 1191
GlyphClass: 2
Flags: W
LayerCount: 2
Fore
SplineSet
359 112 m 1,0,-1
 839 112 l 2,1,2
 929 112 929 112 992 171 c 128,-1,3
 1055 230 1055 230 1087 269 c 0,4,5
 1105 291 1105 291 1115 291 c 0,6,7
 1135 291 1135 291 1135 270 c 0,8,9
 1135 257 1135 257 1133 250 c 2,10,-1
 1062 0 l 1,11,-1
 54 0 l 1,12,-1
 534 654 l 1,13,-1
 54 1365 l 1,14,-1
 1073 1365 l 1,15,-1
 1073 1115 l 2,16,17
 1073 1095 1073 1095 1053 1095 c 0,18,19
 1044 1095 1044 1095 1017 1133 c 0,20,21
 969 1200 969 1200 933 1228.5 c 128,-1,22
 897 1257 897 1257 839 1257 c 2,23,-1
 374 1257 l 1,24,-1
 768 683 l 1,25,-1
 359 112 l 1,0,-1
EndSplineSet
EndChar

StartChar: uni01B7
Encoding: 439 439 368
Width: 1028
GlyphClass: 2
Flags: W
LayerCount: 2
Fore
SplineSet
602 848 m 1,0,1
 815 731 815 731 867 646 c 0,2,3
 924 547 924 547 924 440 c 0,4,5
 924 432 924 432 923.5 424.5 c 128,-1,6
 923 417 923 417 923 410 c 0,7,8
 906 192 906 192 700 47 c 0,9,10
 598 -25 598 -25 432 -45 c 0,11,12
 407 -48 407 -48 383 -48 c 0,13,14
 218 -48 218 -48 105 42 c 1,15,-1
 100 190 l 1,16,-1
 119 190 l 1,17,18
 180 103 180 103 309 73 c 0,19,20
 360 61 360 61 406 61 c 0,21,22
 488 61 488 61 557 97 c 0,23,24
 660 150 660 150 697 253 c 0,25,26
 717 309 717 309 717 363 c 0,27,28
 717 407 717 407 703 456 c 0,29,30
 671 557 671 557 570 634 c 0,31,32
 470 708 470 708 298 712 c 1,33,-1
 296 740 l 1,34,35
 331 751 331 751 367 779 c 0,36,37
 403 808 403 808 421 851 c 2,38,-1
 613 1311 l 1,39,-1
 306 1311 l 2,40,41
 246 1311 246 1311 209 1273 c 0,42,43
 173 1234 173 1234 123 1166 c 0,44,45
 94 1126 94 1126 86 1126 c 0,46,47
 65 1126 65 1126 65 1147 c 2,48,-1
 65 1404 l 1,49,-1
 873 1404 l 2,50,51
 894 1404 894 1404 894 1383 c 0,52,53
 894 1357 894 1357 844 1339 c 0,54,55
 820 1330 820 1330 783.5 1262.5 c 128,-1,56
 747 1195 747 1195 711 1112 c 128,-1,57
 675 1029 675 1029 645 952 c 128,-1,58
 615 875 615 875 602 848 c 1,0,1
EndSplineSet
EndChar

StartChar: uni01C0
Encoding: 448 448 375
Width: 300
GlyphClass: 2
Flags: W
LayerCount: 2
Fore
SplineSet
100 1404 m 1,0,-1
 200 1404 l 1,1,-1
 200 0 l 1,2,-1
 100 0 l 1,3,-1
 100 1404 l 1,0,-1
EndSplineSet
EndChar

StartChar: uni01F6
Encoding: 502 502 429
Width: 2565
GlyphClass: 2
Flags: W
LayerCount: 2
Fore
SplineSet
1217 697 m 1,0,-1
 372 697 l 1,1,-1
 372 146 l 2,2,3
 372 81 372 81 422 63.5 c 128,-1,4
 472 46 472 46 472 21 c 0,5,6
 472 0 472 0 451 0 c 2,7,-1
 112 0 l 2,8,9
 92 0 92 0 92 21 c 0,10,11
 92 46 92 46 142 63.5 c 128,-1,12
 192 81 192 81 192 146 c 2,13,-1
 192 1257 l 2,14,15
 192 1321 192 1321 142 1339 c 128,-1,16
 92 1357 92 1357 92 1383 c 0,17,18
 92 1404 92 1404 113 1404 c 2,19,-1
 451 1404 l 2,20,21
 472 1404 472 1404 472 1383 c 0,22,23
 472 1357 472 1357 422 1339 c 128,-1,24
 372 1321 372 1321 372 1257 c 2,25,-1
 372 789 l 1,26,-1
 1217 789 l 1,27,-1
 1217 1257 l 2,28,29
 1217 1321 1217 1321 1167 1339 c 128,-1,30
 1117 1357 1117 1357 1117 1383 c 0,31,32
 1117 1404 1117 1404 1138 1404 c 2,33,-1
 1477 1404 l 2,34,35
 1497 1404 1497 1404 1497 1383 c 0,36,37
 1497 1357 1497 1357 1447 1339 c 128,-1,38
 1397 1321 1397 1321 1397 1257 c 2,39,-1
 1398 721 l 2,40,41
 1398 568 1398 568 1408 450 c 128,-1,42
 1418 332 1418 332 1460 251 c 256,43,44
 1502 170 1502 170 1587 128 c 128,-1,45
 1672 86 1672 86 1822 86 c 0,46,47
 2084 86 2084 86 2180 294 c 0,48,49
 2246 438 2246 438 2246 721 c 2,50,-1
 2246 1257 l 2,51,52
 2246 1321 2246 1321 2196.5 1339 c 128,-1,53
 2147 1357 2147 1357 2147 1383 c 0,54,55
 2147 1404 2147 1404 2167 1404 c 2,56,-1
 2422 1404 l 2,57,58
 2443 1404 2443 1404 2443 1383 c 0,59,60
 2443 1357 2443 1357 2393 1339 c 128,-1,61
 2343 1321 2343 1321 2343 1257 c 2,62,-1
 2343 588 l 2,63,64
 2343 439 2343 439 2316.5 315.5 c 128,-1,65
 2290 192 2290 192 2218 108 c 0,66,67
 2093 -39 2093 -39 1822 -39 c 0,68,69
 1651 -39 1651 -39 1530.5 -7 c 128,-1,70
 1410 25 1410 25 1338 109 c 0,71,72
 1217 248 1217 248 1217 577 c 2,73,-1
 1217 697 l 1,0,-1
EndSplineSet
EndChar

StartChar: uni01F7
Encoding: 503 503 430
Width: 1237
GlyphClass: 2
Flags: W
LayerCount: 2
Fore
SplineSet
435 1257 m 2,0,-1
 435 1208 l 1,1,-1
 743 1265 l 2,2,3
 786 1272 786 1272 830 1272 c 0,4,5
 892 1272 892 1272 958 1258 c 0,6,7
 1070 1232 1070 1232 1131 1109 c 0,8,9
 1179 1009 1179 1009 1179 858 c 0,10,11
 1177 718 1177 718 1114 588 c 0,12,13
 1060 480 1060 480 960.5 413.5 c 128,-1,14
 861 347 861 347 779 332 c 2,15,-1
 435 269 l 1,16,-1
 435 -441 l 2,17,18
 435 -504 435 -504 485 -522 c 128,-1,19
 535 -540 535 -540 535 -566 c 0,20,21
 535 -587 535 -587 514 -587 c 2,22,-1
 175 -587 l 2,23,24
 155 -587 155 -587 155 -566 c 0,25,26
 155 -540 155 -540 205 -522 c 128,-1,27
 255 -504 255 -504 255 -441 c 2,28,-1
 255 1257 l 2,29,30
 255 1322 255 1322 205 1339.5 c 128,-1,31
 155 1357 155 1357 155 1383 c 0,32,33
 155 1404 155 1404 176 1404 c 2,34,-1
 514 1404 l 2,35,36
 535 1404 535 1404 535 1383 c 0,37,38
 535 1357 535 1357 485 1339.5 c 128,-1,39
 435 1322 435 1322 435 1257 c 2,0,-1
435 358 m 1,40,-1
 644 397 l 2,41,42
 713 409 713 409 784 448 c 128,-1,43
 855 487 855 487 906 560 c 0,44,45
 985 674 985 674 985 831 c 2,46,-1
 985 835 l 2,47,48
 985 992 985 992 902 1079 c 0,49,50
 833 1151 833 1151 728 1151 c 0,51,52
 698 1151 698 1151 664 1145 c 2,53,-1
 435 1103 l 1,54,-1
 435 358 l 1,40,-1
EndSplineSet
EndChar

StartChar: uni021C
Encoding: 540 540 467
Width: 1185
GlyphClass: 2
Flags: W
LayerCount: 2
Fore
SplineSet
615 1444 m 0,0,1
 1037 1444 1037 1444 1037 1151 c 0,2,3
 1037 986 1037 986 778 836 c 1,4,5
 965 762 965 762 1044.5 654.5 c 128,-1,6
 1124 547 1124 547 1124 437 c 0,7,8
 1124 191 1124 191 848 36 c 0,9,10
 676 -61 676 -61 455 -61 c 0,11,12
 453 -61 453 -61 450 -61 c 0,13,14
 226 -60 226 -60 101 16 c 1,15,-1
 95 185 l 1,16,-1
 103 185 l 1,17,18
 177 85 177 85 366 47 c 0,19,20
 430 34 430 34 473 34 c 2,21,-1
 516 34 l 2,22,23
 595 34 595 34 709 79.5 c 128,-1,24
 823 125 823 125 871 230 c 0,25,26
 897 287 897 287 897 338 c 0,27,28
 897 509 897 509 707 618 c 0,29,30
 574 694 574 694 352 698 c 1,31,-1
 350 726 l 1,32,33
 439 748 439 748 554 789 c 128,-1,34
 669 830 669 830 725.5 904 c 128,-1,35
 782 978 782 978 782 1046 c 0,36,37
 782 1157 782 1157 686 1232 c 128,-1,38
 590 1307 590 1307 444 1307 c 0,39,40
 296 1307 296 1307 198 1211 c 0,41,42
 156 1170 156 1170 138 1122 c 1,43,-1
 132 1122 l 1,44,-1
 132 1280 l 1,45,46
 322 1444 322 1444 615 1444 c 0,0,1
EndSplineSet
EndChar

StartChar: uni0237
Encoding: 567 567 485
Width: 593
GlyphClass: 2
Flags: W
LayerCount: 2
Fore
SplineSet
382 12 m 0,0,1
 381 -185 381 -185 358.5 -281 c 128,-1,2
 336 -377 336 -377 271 -445 c 0,3,4
 178 -540 178 -540 68 -567 c 1,5,6
 68 -517 68 -517 68 -517 c 1,7,8
 165 -459 165 -459 195 -357 c 0,9,10
 207 -316 207 -316 207.5 -242.5 c 128,-1,11
 208 -169 208 -169 208 6 c 0,12,13
 208 406 208 406 208 783 c 0,14,15
 208 846 208 846 158 864 c 128,-1,16
 108 882 108 882 108 908 c 0,17,18
 108 929 108 929 129 929 c 0,19,20
 186 929 186 929 253 949 c 0,21,22
 310 966 310 966 337 998 c 0,23,24
 343 1005 343 1005 349 1004 c 0,25,26
 361 1002 361 1002 369 998 c 0,27,28
 382 992 382 992 382 981 c 0,29,30
 382 518 382 518 382 12 c 0,0,1
EndSplineSet
EndChar

StartChar: uni025B
Encoding: 603 603 508
Width: 886
GlyphClass: 2
Flags: W
LayerCount: 2
Fore
SplineSet
443 961 m 0,0,1
 668 961 668 961 814 852 c 1,2,-1
 814 747 l 1,3,-1
 810 747 l 1,4,5
 797 779 797 779 764 806 c 0,6,7
 686 870 686 870 574 870 c 128,-1,8
 462 870 462 870 388 820 c 128,-1,9
 314 770 314 770 314 696 c 0,10,11
 314 651 314 651 357.5 601.5 c 128,-1,12
 401 552 401 552 489.5 525 c 128,-1,13
 578 498 578 498 647 483 c 1,14,-1
 645 464 l 1,15,16
 474 462 474 462 372 411 c 0,17,18
 226 337 226 337 226 224 c 0,19,20
 226 190 226 190 246 152 c 0,21,22
 283 82 283 82 370.5 51.5 c 128,-1,23
 458 21 458 21 519 21 c 2,24,-1
 552 21 l 2,25,26
 585 21 585 21 634 30 c 0,27,28
 780 57 780 57 837 122 c 1,29,-1
 843 122 l 1,30,-1
 838 9 l 1,31,32
 742 -42 742 -42 581 -42 c 0,33,34
 398 -42 398 -42 264 23 c 0,35,36
 40 132 40 132 40 290 c 0,37,38
 40 363 40 363 101 435 c 128,-1,39
 162 507 162 507 306 556 c 1,40,41
 107 656 107 656 107 766 c 0,42,43
 107 961 107 961 443 961 c 0,0,1
EndSplineSet
EndChar

StartChar: uni0261
Encoding: 609 609 511
Width: 1164
GlyphClass: 2
Flags: W
LayerCount: 2
Fore
SplineSet
978 199 m 2,0,1
 978 100 978 100 1004 33.5 c 128,-1,2
 1030 -33 1030 -33 1070 -158 c 0,3,4
 1086 -211 1086 -211 1086 -261 c 0,5,6
 1086 -330 1086 -330 1056 -393 c 0,7,8
 1002 -504 1002 -504 886 -548 c 0,9,10
 805 -578 805 -578 713 -578 c 0,11,12
 696 -578 696 -578 678 -577 c 0,13,14
 566 -570 566 -570 452 -554.5 c 128,-1,15
 338 -539 338 -539 228 -532 c 0,16,17
 210 -531 210 -531 193 -531 c 0,18,19
 103 -531 103 -531 25 -561 c 0,20,21
 -10 -574 -10 -574 -34 -574 c 0,22,23
 -42 -574 -42 -574 -48 -573 c 0,24,25
 -53 -572 -53 -572 -53 -568 c 0,26,27
 -53 -553 -53 -553 43 -487 c 0,28,29
 135 -424 135 -424 231 -424 c 256,30,31
 327 -424 327 -424 422.5 -440 c 128,-1,32
 518 -456 518 -456 610 -466 c 0,33,34
 627 -468 627 -468 644 -468 c 0,35,36
 717 -468 717 -468 785 -433 c 0,37,38
 856 -396 856 -396 894 -344 c 0,39,40
 915 -315 915 -315 915 -276 c 0,41,42
 915 -246 915 -246 902 -210 c 2,43,-1
 797 87 l 1,44,-1
 522 -14 l 2,45,46
 490 -25 490 -25 469 -25 c 2,47,-1
 428 -25 l 1,48,49
 286 -18 286 -18 183 91 c 256,50,51
 80 200 80 200 66 359 c 0,52,53
 62 401 62 401 62 440 c 0,54,55
 62 492 62 492 69 541 c 0,56,57
 81 626 81 626 135 711 c 0,58,59
 161 755 161 755 224 803 c 0,60,61
 246 818 246 818 273 830 c 0,62,63
 353 860 353 860 433.5 890 c 128,-1,64
 514 920 514 920 595 950 c 0,65,66
 612 956 612 956 627 956 c 2,67,-1
 632 956 l 2,68,69
 696 953 696 953 787 924 c 0,70,71
 795 921 795 921 797 920 c 0,72,73
 819 911 819 911 851 900 c 0,74,75
 864 896 864 896 875 896 c 0,76,77
 891 896 891 896 903 905 c 0,78,79
 924 923 924 923 933 935 c 0,80,81
 938 942 938 942 946 942 c 0,82,83
 951 942 951 942 956 940 c 0,84,85
 978 932 978 932 978 920 c 2,86,-1
 978 199 l 2,0,1
797 145 m 1,87,-1
 796 199 l 1,88,-1
 797 199 l 1,89,-1
 797 769 l 1,90,91
 756 807 756 807 689 839.5 c 128,-1,92
 622 872 622 872 570 874 c 2,93,-1
 566 874 l 2,94,95
 546 874 546 874 526 866 c 0,96,97
 490 853 490 853 454.5 839.5 c 128,-1,98
 419 826 419 826 383 813 c 0,99,100
 358 803 358 803 343 787 c 0,101,102
 281 721 281 721 260 627 c 0,103,104
 243 556 243 556 243 486 c 0,105,106
 243 464 243 464 245 441 c 0,107,108
 256 297 256 297 323 207 c 0,109,110
 390 114 390 114 491 86 c 0,111,112
 529 75 529 75 568 75 c 0,113,114
 580 75 580 75 593 76 c 0,115,116
 615 78 615 78 645 89 c 0,117,118
 668 97 668 97 716.5 115 c 128,-1,119
 765 133 765 133 797 145 c 1,87,-1
EndSplineSet
EndChar

StartChar: uni0262
Encoding: 610 610 512
Width: 1078
GlyphClass: 2
Flags: W
LayerCount: 2
Fore
SplineSet
598 -26 m 0,0,1
 389 -26 389 -26 228 104 c 128,-1,2
 67 234 67 234 67 463 c 0,3,4
 67 687 67 687 223.5 821.5 c 128,-1,5
 380 956 380 956 598 956 c 0,6,7
 676 956 676 956 764 939.5 c 128,-1,8
 852 923 852 923 932 873 c 1,9,-1
 916 713 l 2,10,11
 914 701 914 701 903 701 c 2,12,-1
 900 701 l 2,13,14
 890 702 890 702 883 720 c 0,15,16
 838 812 838 812 772.5 847 c 128,-1,17
 707 882 707 882 598 882 c 0,18,19
 527 882 527 882 446 840.5 c 128,-1,20
 365 799 365 799 311 707 c 0,21,22
 252 603 252 603 252 463 c 0,23,24
 252 301 252 301 359.5 181.5 c 128,-1,25
 467 62 467 62 598 53 c 0,26,27
 624 51 624 51 647 51 c 0,28,29
 711 51 711 51 749 66 c 0,30,31
 801 85 801 85 845 158 c 1,32,-1
 845 282 l 2,33,34
 843 303 843 303 823 314 c 0,35,36
 805 323 805 323 769.5 337 c 128,-1,37
 734 351 734 351 734 365 c 256,38,39
 734 379 734 379 748 379 c 2,40,-1
 1037 379 l 2,41,42
 1051 379 1051 379 1051 365 c 0,43,44
 1051 348 1051 348 1017 336 c 128,-1,45
 983 324 983 324 983 282 c 2,46,-1
 983 24 l 1,47,48
 925 21 925 21 882.5 14.5 c 128,-1,49
 840 8 840 8 786 -4 c 0,50,51
 703 -26 703 -26 598 -26 c 0,0,1
EndSplineSet
EndChar

StartChar: uni0263
Encoding: 611 611 513
Width: 1036
GlyphClass: 2
Flags: W
LayerCount: 2
Fore
SplineSet
645 51 m 1,0,1
 670 -14 670 -14 700 -95 c 0,2,3
 734 -187 734 -187 734 -245 c 2,4,-1
 734 -250 l 2,5,6
 734 -290 734 -290 702 -354 c 0,7,8
 668 -423 668 -423 581 -423 c 2,9,-1
 570 -423 l 2,10,11
 497 -423 497 -423 466 -384 c 0,12,13
 428 -337 428 -337 428 -296 c 2,14,-1
 428 -283 l 2,15,16
 428 -240 428 -240 457 -158 c 1,17,-1
 505 -46 l 1,18,-1
 168 802 l 2,19,20
 152 841 152 841 120 861 c 0,21,22
 99 874 99 874 80 882 c 0,23,24
 73 886 73 886 49 900 c 0,25,26
 34 909 34 909 35.5 919.5 c 128,-1,27
 37 930 37 930 48 930 c 2,28,-1
 367 930 l 2,29,30
 386 930 386 930 393 912 c 0,31,32
 399 896 399 896 378 885 c 0,33,34
 360 876 360 876 349 851 c 0,35,36
 341 832 341 832 351 808 c 2,37,-1
 610 183 l 1,38,-1
 850 725 l 2,39,40
 858 743 858 743 858 764 c 0,41,42
 858 799 858 799 831 831 c 2,43,-1
 799 869 l 1,44,-1
 886 938 l 2,45,46
 900 949 900 949 912 936 c 2,47,-1
 966 881 l 2,48,49
 988 858 988 858 983 838 c 0,50,51
 977 814 977 814 977 806 c 0,52,53
 977 801 977 801 931 697 c 2,54,-1
 645 51 l 1,0,1
555 -160 m 1,55,56
 518 -236 518 -236 518 -281 c 0,57,58
 518 -306 518 -306 528 -321 c 0,59,60
 558 -367 558 -367 579 -338 c 0,61,62
 592 -320 592 -320 592 -292 c 0,63,64
 592 -271 592 -271 584 -246 c 0,65,66
 566 -188 566 -188 555 -160 c 1,55,56
EndSplineSet
EndChar

StartChar: uni026A
Encoding: 618 618 517
Width: 452
GlyphClass: 2
Flags: W
LayerCount: 2
Fore
SplineSet
318 146 m 2,0,1
 318 81 318 81 368 63.5 c 128,-1,2
 418 46 418 46 418 21 c 0,3,4
 418 0 418 0 398 0 c 2,5,-1
 65 0 l 2,6,7
 44 0 44 0 44 21 c 0,8,9
 44 46 44 46 94 63.5 c 128,-1,10
 144 81 144 81 144 146 c 2,11,-1
 144 785 l 2,12,13
 144 849 144 849 94 867 c 128,-1,14
 44 885 44 885 44 911 c 0,15,16
 44 931 44 931 65 931 c 2,17,-1
 398 931 l 2,18,19
 418 931 418 931 418 911 c 0,20,21
 418 885 418 885 368 867 c 128,-1,22
 318 849 318 849 318 785 c 2,23,-1
 318 146 l 2,0,1
EndSplineSet
EndChar

StartChar: uni0274
Encoding: 628 628 524
Width: 1142
GlyphClass: 2
Flags: W
LayerCount: 2
Fore
SplineSet
892 200 m 1,0,-1
 892 784 l 2,1,2
 892 848 892 848 842 866 c 128,-1,3
 792 884 792 884 792 910 c 0,4,5
 792 931 792 931 813 931 c 2,6,-1
 1067 931 l 2,7,8
 1088 931 1088 931 1088 910 c 0,9,10
 1088 884 1088 884 1036 866 c 128,-1,11
 984 848 984 848 984 784 c 2,12,-1
 984 -43 l 1,13,-1
 828 0 l 1,14,-1
 228 716 l 1,15,-1
 228 146 l 2,16,17
 228 81 228 81 278 63.5 c 128,-1,18
 328 46 328 46 328 21 c 0,19,20
 328 0 328 0 308 0 c 2,21,-1
 53 0 l 2,22,23
 32 0 32 0 32 21 c 0,24,25
 32 46 32 46 83.5 63.5 c 128,-1,26
 135 81 135 81 135 146 c 2,27,-1
 135 784 l 2,28,29
 135 848 135 848 85 866 c 128,-1,30
 35 884 35 884 35 910 c 0,31,32
 35 931 35 931 56 931 c 2,33,-1
 292 931 l 1,34,-1
 892 200 l 1,0,-1
EndSplineSet
EndChar

StartChar: uni0276
Encoding: 630 630 525
Width: 1506
GlyphClass: 2
Flags: W
LayerCount: 2
Fore
SplineSet
556 956 m 0,0,1
 604 956 604 956 652 943.5 c 128,-1,2
 700 931 700 931 745 931 c 2,3,-1
 1382 931 l 1,4,-1
 1382 740 l 2,5,6
 1382 719 1382 719 1366 717 c 2,7,-1
 1364 717 l 2,8,9
 1351 717 1351 717 1325 753 c 0,10,11
 1292 799 1292 799 1276.5 823.5 c 128,-1,12
 1261 848 1261 848 1222 848 c 2,13,-1
 971 848 l 1,14,-1
 971 509 l 1,15,-1
 1090 509 l 2,16,17
 1119 509 1119 509 1139 534 c 2,18,-1
 1176 578 l 1,19,20
 1190 578 1190 578 1190 564 c 2,21,-1
 1190 374 l 2,22,23
 1190 360 1190 360 1176 360 c 0,24,25
 1165 360 1165 360 1157 377.5 c 128,-1,26
 1149 395 1149 395 1134 410 c 0,27,28
 1116 428 1116 428 1090 428 c 2,29,-1
 971 428 l 1,30,-1
 971 78 l 1,31,-1
 1223 78 l 2,32,33
 1284 78 1284 78 1317 117.5 c 128,-1,34
 1350 157 1350 157 1372 184 c 0,35,36
 1393 212 1393 212 1404 212 c 2,37,-1
 1405 212 l 2,38,39
 1427 210 1427 210 1427 189 c 0,40,41
 1427 181 1427 181 1424 171 c 2,42,-1
 1376 0 l 1,43,-1
 718 0 l 2,44,45
 679 0 679 0 637 -11 c 128,-1,46
 595 -22 595 -22 555 -25 c 0,47,48
 541 -26 541 -26 527 -26 c 0,49,50
 339 -26 339 -26 195 102 c 0,51,52
 49 231 49 231 49 441 c 2,53,-1
 49 465 l 1,54,55
 57 691 57 691 196 822 c 128,-1,56
 335 953 335 953 556 956 c 0,0,1
797 191 m 1,57,-1
 797 754 l 1,58,59
 709 858 709 858 559 858 c 2,60,-1
 556 858 l 2,61,62
 370 858 370 858 296 742 c 128,-1,63
 222 626 222 626 222 464 c 0,64,65
 222 300 222 300 314.5 185 c 128,-1,66
 407 70 407 70 556 69 c 2,67,-1
 561 69 l 2,68,69
 700 69 700 69 797 191 c 1,57,-1
EndSplineSet
EndChar

StartChar: uni0280
Encoding: 640 640 530
Width: 1010
GlyphClass: 2
Flags: W
LayerCount: 2
Fore
SplineSet
887 72 m 2,0,1
 890 68 890 68 912 57 c 128,-1,2
 934 46 934 46 960 45 c 0,3,4
 988 42 988 42 988 21 c 2,5,-1
 988 18 l 2,6,7
 988 0 988 0 968 0 c 2,8,-1
 738 0 l 2,9,10
 726 0 726 0 610.5 159 c 128,-1,11
 495 318 495 318 416 419 c 1,12,-1
 318 419 l 1,13,-1
 318 146 l 2,14,15
 318 81 318 81 368 63.5 c 128,-1,16
 418 46 418 46 418 21 c 0,17,18
 418 0 418 0 398 0 c 2,19,-1
 65 0 l 2,20,21
 44 0 44 0 44 21 c 0,22,23
 44 45 44 45 94 63 c 128,-1,24
 144 81 144 81 144 146 c 2,25,-1
 144 785 l 2,26,27
 144 849 144 849 94 867 c 128,-1,28
 44 885 44 885 44 911 c 0,29,30
 44 931 44 931 65 931 c 2,31,-1
 555 931 l 2,32,33
 625 931 625 931 701 906.5 c 128,-1,34
 777 882 777 882 819 813 c 0,35,36
 852 758 852 758 852 678 c 0,37,38
 850 603 850 603 808 543 c 0,39,40
 774 496 774 496 713 471 c 128,-1,41
 652 446 652 446 598 443 c 1,42,-1
 887 72 l 2,0,1
318 489 m 1,43,-1
 467 489 l 2,44,45
 561 489 561 489 624 549 c 0,46,47
 678 600 678 600 678 681 c 2,48,-1
 678 684 l 2,49,50
 678 766 678 766 622 819 c 0,51,52
 584 854 584 854 556.5 857.5 c 128,-1,53
 529 861 529 861 481 861 c 2,54,-1
 318 861 l 1,55,-1
 318 489 l 1,43,-1
EndSplineSet
EndChar

StartChar: uni0283
Encoding: 643 643 532
Width: 625
GlyphClass: 2
Flags: W
LayerCount: 2
Fore
SplineSet
388 1027 m 2,0,-1
 388 12 l 2,1,2
 388 -185 388 -185 361.5 -281 c 128,-1,3
 335 -377 335 -377 270 -445 c 0,4,5
 179 -539 179 -539 67 -567 c 1,6,-1
 67 -517 l 1,7,8
 162 -460 162 -460 194 -357 c 0,9,10
 206 -316 206 -316 206.5 -242 c 128,-1,11
 207 -168 207 -168 207 6 c 2,12,-1
 207 1027 l 2,13,14
 207 1154 207 1154 230 1234 c 0,15,16
 245 1285 245 1285 273 1319 c 0,17,18
 286 1336 286 1336 311 1345 c 2,19,-1
 566 1440 l 2,20,21
 575 1443 575 1443 600 1445 c 2,22,-1
 604 1445 l 2,23,24
 626 1445 626 1445 645 1433 c 0,25,26
 672 1414 672 1414 680 1400 c 0,27,28
 686 1388 686 1388 686 1368 c 0,29,30
 686 1360 686 1360 685 1351 c 0,31,32
 683 1304 683 1304 672 1301 c 2,33,-1
 669 1301 l 2,34,35
 658 1301 658 1301 637 1316 c 0,36,37
 589 1347 589 1347 542 1347 c 0,38,39
 514 1347 514 1347 487 1336 c 0,40,41
 403 1300 403 1300 393 1199 c 0,42,43
 389 1161 389 1161 388.5 1117 c 128,-1,44
 388 1073 388 1073 388 1027 c 2,0,-1
EndSplineSet
EndChar

StartChar: uni028F
Encoding: 655 655 538
Width: 940
GlyphClass: 2
Flags: W
LayerCount: 2
Fore
SplineSet
388 437 m 2,0,-1
 192 788 l 1,1,2
 154 845 154 845 65 877 c 0,3,4
 40 886 40 886 26 894 c 0,5,6
 4 907 4 907 5 921 c 2,7,-1
 5 924 l 2,8,9
 6 930 6 930 15 930 c 2,10,-1
 344 930 l 2,11,12
 366 930 366 930 374 917.5 c 128,-1,13
 382 905 382 905 382 899 c 128,-1,14
 382 893 382 893 365.5 874 c 128,-1,15
 349 855 349 855 348 841 c 2,16,-1
 348 836 l 2,17,18
 348 815 348 815 364 793 c 2,19,-1
 548 488 l 1,20,-1
 656 658 l 2,21,22
 683 700 683 700 689 732 c 1,23,-1
 689 743 l 2,24,25
 689 773 689 773 667 817 c 2,26,-1
 634 883 l 1,27,-1
 773 943 l 2,28,29
 779 947 779 947 788.5 947 c 128,-1,30
 798 947 798 947 809 931 c 2,31,-1
 867 833 l 2,32,33
 878 814 878 814 878 788 c 128,-1,34
 878 762 878 762 836 718 c 128,-1,35
 794 674 794 674 735 590 c 2,36,-1
 620 426 l 2,37,38
 591 384 591 384 591 282 c 0,39,40
 591 272 591 272 591 262 c 2,41,-1
 591 142 l 2,42,43
 591 79 591 79 640 61.5 c 128,-1,44
 689 44 689 44 689 22 c 128,-1,45
 689 0 689 0 668 0 c 2,46,-1
 339 0 l 2,47,48
 319 0 319 0 319 22 c 128,-1,49
 319 44 319 44 367.5 61.5 c 128,-1,50
 416 79 416 79 416 142 c 2,51,-1
 416 336 l 2,52,53
 416 391 416 391 388 437 c 2,0,-1
EndSplineSet
EndChar

StartChar: uni0299
Encoding: 665 665 540
Width: 865
GlyphClass: 2
Flags: W
LayerCount: 2
Fore
SplineSet
299 49 m 1,0,-1
 429 49 l 2,1,2
 477 49 477 49 526.5 63 c 128,-1,3
 576 77 576 77 612 112 c 0,4,5
 668 166 668 166 668 253 c 128,-1,6
 668 340 668 340 607 398.5 c 128,-1,7
 546 457 546 457 443 457 c 2,8,-1
 299 457 l 1,9,-1
 299 49 l 1,0,-1
299 515 m 1,10,-1
 462 515 l 1,11,12
 542 525 542 525 591 572 c 0,13,14
 638 617 638 617 638 695 c 0,15,16
 638 697 638 697 638 698 c 0,17,18
 638 778 638 778 584 830 c 128,-1,19
 530 882 530 882 435 882 c 2,20,-1
 299 882 l 1,21,-1
 299 515 l 1,10,-1
506 935 m 2,22,23
 572 935 572 935 642 912 c 0,24,25
 714 888 714 888 748 828 c 0,26,27
 781 770 781 770 781 699 c 0,28,29
 781 697 781 697 781 694 c 0,30,31
 781 622 781 622 746 572 c 128,-1,32
 711 522 711 522 652 496 c 1,33,34
 748 464 748 464 786 397 c 0,35,36
 823 332 823 332 823 254 c 0,37,38
 823 252 823 252 823 250 c 0,39,40
 823 170 823 170 781 110 c 0,41,42
 740 52 740 52 670.5 26 c 128,-1,43
 601 0 601 0 544 0 c 2,44,-1
 84 0 l 2,45,46
 71 0 71 0 71 15 c 128,-1,47
 71 30 71 30 104 42 c 128,-1,48
 137 54 137 54 137 97 c 2,49,-1
 137 837 l 2,50,51
 137 879 137 879 104 891 c 128,-1,52
 71 903 71 903 71 919 c 128,-1,53
 71 935 71 935 84 935 c 2,54,-1
 506 935 l 2,22,23
EndSplineSet
EndChar

StartChar: uni029C
Encoding: 668 668 541
Width: 1169
GlyphClass: 2
Flags: W
LayerCount: 2
Fore
SplineSet
318 528 m 1,0,-1
 839 528 l 1,1,-1
 839 785 l 2,2,3
 839 849 839 849 789 867 c 128,-1,4
 739 885 739 885 739 911 c 0,5,6
 739 931 739 931 760 931 c 2,7,-1
 1093 931 l 2,8,9
 1114 931 1114 931 1114 911 c 0,10,11
 1114 885 1114 885 1063.5 867 c 128,-1,12
 1013 849 1013 849 1013 785 c 2,13,-1
 1013 146 l 2,14,15
 1013 81 1013 81 1063.5 63.5 c 128,-1,16
 1114 46 1114 46 1114 21 c 0,17,18
 1114 0 1114 0 1093 0 c 2,19,-1
 760 0 l 2,20,21
 739 0 739 0 739 21 c 0,22,23
 739 46 739 46 789 63.5 c 128,-1,24
 839 81 839 81 839 146 c 2,25,-1
 839 458 l 1,26,-1
 318 458 l 1,27,-1
 318 146 l 2,28,29
 318 81 318 81 368 63.5 c 128,-1,30
 418 46 418 46 418 21 c 0,31,32
 418 0 418 0 398 0 c 2,33,-1
 65 0 l 2,34,35
 44 0 44 0 44 21 c 0,36,37
 44 46 44 46 94 63.5 c 128,-1,38
 144 81 144 81 144 146 c 2,39,-1
 144 785 l 2,40,41
 144 849 144 849 94 867 c 128,-1,42
 44 885 44 885 44 911 c 0,43,44
 44 931 44 931 65 931 c 2,45,-1
 398 931 l 2,46,47
 418 931 418 931 418 911 c 0,48,49
 418 885 418 885 368 867 c 128,-1,50
 318 849 318 849 318 785 c 2,51,-1
 318 528 l 1,0,-1
EndSplineSet
EndChar

StartChar: uni029F
Encoding: 671 671 542
Width: 865
GlyphClass: 2
Flags: W
LayerCount: 2
Fore
SplineSet
793 212 m 0,0,1
 815 212 815 212 816 189 c 0,2,3
 816 183 816 183 813 171 c 2,4,-1
 765 0 l 1,5,-1
 65 0 l 2,6,7
 44 0 44 0 44 23 c 128,-1,8
 44 46 44 46 94 63.5 c 128,-1,9
 144 81 144 81 144 146 c 2,10,-1
 144 785 l 2,11,12
 144 849 144 849 94 867 c 128,-1,13
 44 885 44 885 44 911 c 0,14,15
 44 931 44 931 65 931 c 2,16,-1
 398 931 l 2,17,18
 418 931 418 931 418 911 c 0,19,20
 418 885 418 885 368 867 c 128,-1,21
 318 849 318 849 318 785 c 2,22,-1
 318 83 l 1,23,-1
 613 83 l 2,24,25
 674 83 674 83 706.5 120 c 128,-1,26
 739 157 739 157 761 184.5 c 128,-1,27
 783 212 783 212 793 212 c 0,0,1
EndSplineSet
EndChar

StartChar: uni02C1
Encoding: 705 705 562
Width: 1000
GlyphClass: 2
Flags: W
LayerCount: 2
Fore
SplineSet
633 1499 m 1,0,-1
 633 1413 l 1,1,2
 590 1419 590 1419 555 1419 c 0,3,4
 552 1419 552 1419 550 1419 c 0,5,6
 406 1419 406 1419 406 1302 c 2,7,8
 406 1302 406 1302 406 1155 c 1,9,-1
 311 1155 l 1,10,11
 311 1246 311 1246 318 1313 c 0,12,13
 338 1504 338 1504 551 1504 c 0,14,15
 553 1504 553 1504 555 1504 c 0,16,17
 591 1504 591 1504 633 1499 c 1,0,-1
EndSplineSet
EndChar

StartChar: uni02C2
Encoding: 706 706 563
Width: 1000
GlyphClass: 2
Flags: W
LayerCount: 2
Fore
SplineSet
736 1062 m 1,0,-1
 264 1300 l 1,1,-1
 264 1386 l 1,2,-1
 736 1624 l 1,3,-1
 736 1536 l 1,4,-1
 350 1342 l 1,5,-1
 736 1148 l 1,6,-1
 736 1062 l 1,0,-1
EndSplineSet
EndChar

StartChar: circumflex
Encoding: 710 710 567
Width: 1000
GlyphClass: 2
Flags: W
LayerCount: 2
Fore
SplineSet
212 1096 m 1,0,-1
 442 1443 l 1,1,-1
 558 1443 l 1,2,-1
 787 1096 l 1,3,-1
 730 1096 l 1,4,-1
 500 1305 l 1,5,-1
 270 1096 l 1,6,-1
 212 1096 l 1,0,-1
EndSplineSet
EndChar

StartChar: uni02C8
Encoding: 712 712 569
Width: 626
GlyphClass: 2
Flags: W
LayerCount: 2
Fore
SplineSet
264 1270 m 1,0,-1
 264 1659 l 1,1,-1
 390 1659 l 1,2,-1
 390 1270 l 1,3,-1
 264 1270 l 1,0,-1
EndSplineSet
EndChar

StartChar: uni02D1
Encoding: 721 721 578
Width: 1000
GlyphClass: 2
Flags: W
LayerCount: 2
Fore
SplineSet
498 1135 m 1,0,-1
 348 1403 l 1,1,-1
 652 1403 l 1,2,-1
 498 1135 l 1,0,-1
EndSplineSet
EndChar

StartChar: uni02D4
Encoding: 724 724 581
Width: 1000
GlyphClass: 2
Flags: W
LayerCount: 2
Fore
SplineSet
732 1109 m 1,0,-1
 268 1109 l 1,1,-1
 268 1192 l 1,2,-1
 458 1192 l 1,3,-1
 458 1524 l 1,4,-1
 540 1524 l 1,5,-1
 540 1192 l 1,6,-1
 732 1192 l 1,7,-1
 732 1109 l 1,0,-1
EndSplineSet
EndChar

StartChar: breve
Encoding: 728 728 585
Width: 1000
GlyphClass: 2
Flags: W
LayerCount: 2
Fore
SplineSet
500 1115 m 0,0,1
 341 1115 341 1115 259 1227 c 0,2,3
 202 1303 202 1303 196 1412 c 1,4,-1
 196 1415 l 2,5,6
 196 1439 196 1439 223 1439 c 0,7,8
 242 1439 242 1439 250 1412 c 0,9,10
 293 1247 293 1247 499 1246 c 2,11,-1
 504 1246 l 2,12,13
 707 1246 707 1246 750 1412 c 0,14,15
 757 1439 757 1439 777 1439 c 0,16,17
 804 1439 804 1439 804 1414 c 2,18,-1
 804 1412 l 1,19,20
 797 1303 797 1303 741 1227 c 0,21,22
 658 1115 658 1115 500 1115 c 0,0,1
EndSplineSet
EndChar

StartChar: uni02ED
Encoding: 749 749 598
Width: 929
GlyphClass: 2
Flags: W
LayerCount: 2
Fore
SplineSet
300 1293 m 2,0,-1
 764 1293 l 2,1,2
 790 1293 790 1293 790 1275 c 2,3,-1
 790 1238 l 2,4,5
 790 1220 790 1220 764 1220 c 2,6,-1
 300 1220 l 2,7,8
 274 1220 274 1220 274 1238 c 2,9,-1
 274 1275 l 2,10,11
 274 1293 274 1293 300 1293 c 2,0,-1
300 1503 m 2,12,-1
 764 1503 l 2,13,14
 790 1503 790 1503 790 1485 c 2,15,-1
 790 1448 l 2,16,17
 790 1430 790 1430 764 1430 c 2,18,-1
 300 1430 l 2,19,20
 274 1430 274 1430 274 1448 c 2,21,-1
 274 1485 l 2,22,23
 274 1503 274 1503 300 1503 c 2,12,-1
EndSplineSet
EndChar

StartChar: uni02F8
Encoding: 760 760 609
Width: 307
GlyphClass: 2
Flags: W
LayerCount: 2
Fore
SplineSet
164 1611 m 128,-1,1
 234 1611 234 1611 235 1564 c 2,2,-1
 235 1520 l 2,3,4
 235 1474 235 1474 164 1474 c 0,5,6
 94 1474 94 1474 94 1520 c 2,7,-1
 94 1564 l 2,8,0
 94 1611 94 1611 164 1611 c 128,-1,1
164 1224 m 128,-1,10
 234 1224 234 1224 235 1177 c 2,11,-1
 235 1133 l 2,12,13
 235 1086 235 1086 164 1086 c 0,14,15
 94 1086 94 1086 94 1133 c 2,16,-1
 94 1177 l 2,17,9
 94 1224 94 1224 164 1224 c 128,-1,10
EndSplineSet
EndChar

StartChar: uni0305
Encoding: 773 773 615
Width: 0
GlyphClass: 2
Flags: W
LayerCount: 2
Fore
SplineSet
-1070 1221 m 1,0,-1
 -1070 1304 l 1,1,-1
 0 1304 l 1,2,-1
 0 1221 l 1,3,-1
 -1070 1221 l 1,0,-1
EndSplineSet
EndChar

StartChar: uni031A
Encoding: 794 794 636
Width: 0
GlyphClass: 2
Flags: W
LayerCount: 2
Fore
SplineSet
63 891 m 1,0,-1
 -18 891 l 1,1,-1
 -18 1158 l 1,2,-1
 -473 1158 l 1,3,-1
 -473 1241 l 1,4,-1
 63 1241 l 1,5,-1
 63 891 l 1,0,-1
EndSplineSet
EndChar

StartChar: uni0321
Encoding: 801 801 643
Width: 0
GlyphClass: 2
Flags: W
LayerCount: 2
Fore
SplineSet
-146 0 m 1,0,1
 -146 -192 -146 -192 -171.5 -279.5 c 128,-1,2
 -197 -367 -197 -367 -260 -433 c 0,3,4
 -351 -525 -351 -525 -457 -552 c 1,5,-1
 -457 -503 l 1,6,7
 -364 -447 -364 -447 -334 -347 c 0,8,9
 -322 -308 -322 -308 -321.5 -238.5 c 128,-1,10
 -321 -169 -321 -169 -321 0 c 1,11,-1
 -146 0 l 1,0,1
EndSplineSet
EndChar

StartChar: uni032A
Encoding: 810 810 652
Width: 0
GlyphClass: 2
Flags: W
LayerCount: 2
Fore
SplineSet
-197 -168 m 1,0,-1
 -197 -442 l 1,1,-1
 -280 -442 l 1,2,-1
 -280 -251 l 1,3,-1
 -867 -251 l 1,4,-1
 -867 -442 l 1,5,-1
 -949 -442 l 1,6,-1
 -949 -168 l 1,7,-1
 -197 -168 l 1,0,-1
EndSplineSet
EndChar

StartChar: uni0337
Encoding: 823 823 665
Width: 0
GlyphClass: 2
Flags: W
LayerCount: 2
Fore
SplineSet
-521 406 m 1,0,1
 -654 329 -654 329 -811 273 c 1,2,3
 -820 287 -820 287 -829 301 c 128,-1,4
 -838 315 -838 315 -847 330 c 1,5,6
 -708 384 -708 384 -576 461 c 1,7,8
 -338 625 -338 625 -253 695 c 1,9,10
 -241 682 -241 682 -229.5 669 c 128,-1,11
 -218 656 -218 656 -206 644 c 1,12,13
 -301 552 -301 552 -521 406 c 1,0,1
EndSplineSet
EndChar

StartChar: uni0338
Encoding: 824 824 666
Width: 0
GlyphClass: 2
Flags: W
LayerCount: 2
Fore
SplineSet
-396 -70 m 1,0,-1
 236 1474 l 1,1,-1
 347 1474 l 1,2,-1
 -283 -70 l 1,3,-1
 -396 -70 l 1,0,-1
EndSplineSet
EndChar

StartChar: uni033B
Encoding: 827 827 669
Width: 0
GlyphClass: 2
Flags: W
LayerCount: 2
Fore
SplineSet
-809 -92 m 1,0,-1
 -337 -92 l 1,1,-1
 -337 -564 l 1,2,-1
 -809 -564 l 1,3,-1
 -809 -92 l 1,0,-1
-726 -175 m 1,4,-1
 -726 -481 l 1,5,-1
 -420 -481 l 1,6,-1
 -420 -175 l 1,7,-1
 -726 -175 l 1,4,-1
EndSplineSet
EndChar

StartChar: uni033C
Encoding: 828 828 670
Width: 0
GlyphClass: 2
Flags: W
LayerCount: 2
Fore
SplineSet
-949 -180 m 1,0,1
 -804 -216 -804 -216 -692.5 -248 c 128,-1,2
 -581 -280 -581 -280 -546 -421 c 1,3,4
 -519 -281 -519 -281 -426 -252 c 128,-1,5
 -333 -223 -333 -223 -197 -176 c 1,6,-1
 -197 -231 l 1,7,8
 -305 -282 -305 -282 -390.5 -333 c 128,-1,9
 -476 -384 -476 -384 -511 -534 c 1,10,-1
 -593 -534 l 1,11,12
 -627 -408 -627 -408 -710.5 -344.5 c 128,-1,13
 -794 -281 -794 -281 -949 -231 c 1,14,-1
 -949 -180 l 1,0,1
EndSplineSet
EndChar

StartChar: uni0345
Encoding: 837 837 679
Width: 0
GlyphClass: 2
Flags: W
LayerCount: 2
Fore
SplineSet
-634 -185 m 1,0,-1
 -510 -185 l 1,1,-1
 -510 -423 l 2,2,3
 -510 -466 -510 -466 -469 -466 c 0,4,5
 -468 -466 -468 -466 -466 -465 c 0,6,7
 -423 -464 -423 -464 -423 -423 c 1,8,-1
 -366 -423 l 1,9,10
 -366 -471 -366 -471 -404.5 -511.5 c 128,-1,11
 -443 -552 -443 -552 -500 -552 c 0,12,13
 -558 -552 -558 -552 -596 -511.5 c 128,-1,14
 -634 -471 -634 -471 -634 -423 c 2,15,-1
 -634 -185 l 1,0,-1
EndSplineSet
EndChar

StartChar: uni0346
Encoding: 838 838 680
Width: 0
GlyphClass: 2
Flags: W
LayerCount: 2
Fore
SplineSet
-197 1454 m 1,0,-1
 -197 1180 l 1,1,-1
 -280 1180 l 1,2,-1
 -280 1371 l 1,3,-1
 -867 1371 l 1,4,-1
 -867 1180 l 1,5,-1
 -949 1180 l 1,6,-1
 -949 1454 l 1,7,-1
 -197 1454 l 1,0,-1
EndSplineSet
EndChar

StartChar: uni0347
Encoding: 839 839 681
Width: 0
GlyphClass: 2
Flags: W
LayerCount: 2
Fore
SplineSet
-781 -216 m 1,0,-1
 -280 -216 l 1,1,-1
 -280 -299 l 1,2,-1
 -781 -299 l 1,3,-1
 -781 -216 l 1,0,-1
-781 -385 m 1,4,-1
 -280 -385 l 1,5,-1
 -280 -467 l 1,6,-1
 -781 -467 l 1,7,-1
 -781 -385 l 1,4,-1
EndSplineSet
EndChar

StartChar: uni0348
Encoding: 840 840 682
Width: 0
GlyphClass: 2
Flags: W
LayerCount: 2
Fore
SplineSet
-491 -121 m 1,0,-1
 -365 -121 l 1,1,-1
 -365 -510 l 1,2,-1
 -491 -510 l 1,3,-1
 -491 -121 l 1,0,-1
-702 -121 m 1,4,-1
 -576 -121 l 1,5,-1
 -576 -510 l 1,6,-1
 -702 -510 l 1,7,-1
 -702 -121 l 1,4,-1
EndSplineSet
EndChar

StartChar: uni034A
Encoding: 842 842 684
Width: 0
GlyphClass: 2
Flags: W
LayerCount: 2
Fore
SplineSet
-237 1320 m 1,0,1
 -194 1296 -194 1296 -158 1296 c 0,2,3
 -119 1296 -119 1296 -87 1323 c 0,4,5
 -47 1354 -47 1354 -19 1430 c 0,6,7
 -14 1442 -14 1442 -5 1442 c 0,8,9
 -3 1442 -3 1442 -1 1441 c 0,10,11
 11 1438 11 1438 14 1420 c 2,12,-1
 14 1415 l 2,13,14
 14 1406 14 1406 11 1398 c 0,15,16
 -27 1286 -27 1286 -68 1234 c 0,17,18
 -110 1179 -110 1179 -156 1179 c 0,19,20
 -208 1179 -208 1179 -299.5 1234.5 c 128,-1,21
 -391 1290 -391 1290 -439 1318 c 0,22,23
 -488 1346 -488 1346 -508 1380 c 0,24,25
 -523 1406 -523 1406 -523 1433 c 0,26,27
 -523 1469 -523 1469 -494 1509 c 0,28,29
 -445 1576 -445 1576 -400 1641 c 0,30,31
 -386 1660 -386 1660 -371 1660 c 0,32,33
 -366 1660 -366 1660 -361 1659 c 0,34,35
 -349 1654 -349 1654 -349 1646 c 0,36,37
 -349 1642 -349 1642 -353 1636 c 0,38,39
 -381 1594 -381 1594 -394 1562 c 0,40,41
 -405 1534 -405 1534 -413 1498 c 0,42,43
 -415 1489 -415 1489 -415 1480 c 0,44,45
 -415 1424 -415 1424 -343 1378 c 1,46,-1
 -325 1368 l 1,47,48
 -306 1403 -306 1403 -278 1438 c 128,-1,49
 -250 1473 -250 1473 -226 1508 c 0,50,51
 -212 1527 -212 1527 -197 1527 c 0,52,53
 -192 1527 -192 1527 -187 1525 c 0,54,55
 -175 1520 -175 1520 -175 1512 c 0,56,57
 -175 1508 -175 1508 -179 1502 c 0,58,59
 -206 1463 -206 1463 -220 1428 c 0,60,61
 -232 1400 -232 1400 -239 1365 c 0,62,63
 -240 1360 -240 1360 -240 1353 c 0,64,65
 -240 1340 -240 1340 -237 1320 c 1,0,1
EndSplineSet
EndChar

StartChar: uni034D
Encoding: 845 845 687
Width: 0
GlyphClass: 2
Flags: W
LayerCount: 2
Fore
SplineSet
-889 -300 m 1,0,-1
 -178 -300 l 1,1,-1
 -202 -226 l 1,2,-1
 -44 -342 l 1,3,-1
 -202 -457 l 1,4,-1
 -178 -383 l 1,5,-1
 -889 -383 l 1,6,-1
 -865 -457 l 1,7,-1
 -1023 -342 l 1,8,-1
 -865 -226 l 1,9,-1
 -889 -300 l 1,0,-1
EndSplineSet
EndChar

StartChar: uni034E
Encoding: 846 846 688
Width: 0
GlyphClass: 2
Flags: W
LayerCount: 2
Fore
SplineSet
-492 -577 m 1,0,-1
 -575 -577 l 1,1,-1
 -575 -239 l 1,2,-1
 -649 -263 l 1,3,-1
 -533 -105 l 1,4,-1
 -418 -263 l 1,5,-1
 -492 -239 l 1,6,-1
 -492 -577 l 1,0,-1
EndSplineSet
EndChar

StartChar: uni035B
Encoding: 859 859 701
Width: 0
GlyphClass: 2
Flags: W
LayerCount: 2
Fore
SplineSet
-591 1347 m 1,0,-1
 -217 1347 l 2,1,2
 -207 1347 -207 1347 -207 1337 c 2,3,-1
 -207 1251 l 2,4,5
 -207 1227 -207 1227 -221 1195 c 0,6,7
 -245 1137 -245 1137 -323 1043 c 0,8,9
 -331 1033 -331 1033 -341 1029 c 0,10,11
 -348 1026 -348 1026 -354 1026 c 0,12,13
 -362 1026 -362 1026 -367 1032 c 0,14,15
 -371 1037 -371 1037 -371 1042 c 0,16,17
 -371 1048 -371 1048 -366 1054 c 0,18,19
 -316 1116 -316 1116 -307 1166 c 0,20,21
 -305 1177 -305 1177 -305 1188 c 0,22,23
 -305 1216 -305 1216 -318 1240 c 1,24,-1
 -690 1240 l 2,25,26
 -701 1240 -701 1240 -701 1251 c 2,27,-1
 -701 1327 l 2,28,29
 -701 1351 -701 1351 -686 1389 c 0,30,31
 -660 1448 -660 1448 -584 1541 c 0,32,33
 -574 1550 -574 1550 -566 1554 c 0,34,35
 -559 1556 -559 1556 -553 1556 c 0,36,37
 -545 1556 -545 1556 -539 1551 c 0,38,39
 -535 1546 -535 1546 -535 1541 c 256,40,41
 -535 1536 -535 1536 -541 1529 c 0,42,43
 -590 1466 -590 1466 -600 1417 c 0,44,45
 -602 1406 -602 1406 -602 1395 c 0,46,47
 -602 1369 -602 1369 -591 1347 c 1,0,-1
EndSplineSet
EndChar

StartChar: uni035C
Encoding: 860 860 702
Width: 0
GlyphClass: 2
Flags: W
LayerCount: 2
Fore
SplineSet
-235 -437 m 1,0,1
 -383 -430 -383 -430 -462 -324 c 0,2,3
 -519 -244 -519 -244 -524 -139 c 1,4,-1
 -524 -137 l 2,5,6
 -524 -113 -524 -113 -498 -113 c 0,7,8
 -476 -113 -476 -113 -471 -139 c 0,9,10
 -430 -296 -430 -296 -237 -306 c 1,11,-1
 211 -306 l 1,12,13
 408 -301 408 -301 450 -139 c 0,14,15
 457 -113 457 -113 477 -113 c 0,16,17
 504 -113 504 -113 504 -137 c 2,18,-1
 504 -139 l 1,19,20
 497 -247 497 -247 441 -324 c 0,21,22
 362 -432 362 -432 210 -437 c 1,23,-1
 -235 -437 l 1,0,1
EndSplineSet
EndChar

StartChar: uni035E
Encoding: 862 862 704
Width: 0
GlyphClass: 2
Flags: W
LayerCount: 2
Fore
SplineSet
-517 1347 m 2,0,-1
 503 1347 l 2,1,2
 513 1347 513 1347 513 1337 c 2,3,-1
 513 1251 l 2,4,5
 513 1240 513 1240 503 1240 c 2,6,-1
 -517 1240 l 2,7,8
 -528 1240 -528 1240 -528 1251 c 2,9,-1
 -528 1337 l 2,10,11
 -528 1347 -528 1347 -517 1347 c 2,0,-1
EndSplineSet
EndChar

StartChar: uni035F
Encoding: 863 863 705
Width: 0
GlyphClass: 2
Flags: W
LayerCount: 2
Fore
SplineSet
-517 -221 m 2,0,-1
 503 -221 l 2,1,2
 513 -221 513 -221 513 -232 c 2,3,-1
 513 -318 l 2,4,5
 513 -328 513 -328 503 -328 c 2,6,-1
 -517 -328 l 2,7,8
 -528 -328 -528 -328 -528 -318 c 2,9,-1
 -528 -232 l 2,10,11
 -528 -221 -528 -221 -517 -221 c 2,0,-1
EndSplineSet
EndChar

StartChar: uni0362
Encoding: 866 866 708
Width: 0
GlyphClass: 2
Flags: W
LayerCount: 2
Fore
SplineSet
-536 -258 m 1,0,-1
 456 -258 l 1,1,-1
 432 -184 l 1,2,-1
 590 -300 l 1,3,-1
 432 -415 l 1,4,-1
 456 -341 l 1,5,-1
 -536 -341 l 1,6,-1
 -536 -258 l 1,0,-1
EndSplineSet
EndChar

StartChar: uni0370
Encoding: 880 880 722
Width: 875
GlyphClass: 2
Flags: W
LayerCount: 2
Fore
SplineSet
834 677 m 1,0,-1
 423 677 l 1,1,-1
 423 142 l 2,2,3
 423 79 423 79 471.5 61.5 c 128,-1,4
 520 44 520 44 520 20 c 0,5,6
 520 0 520 0 500 0 c 2,7,-1
 171 0 l 2,8,9
 151 0 151 0 151 20 c 0,10,11
 151 44 151 44 199.5 61.5 c 128,-1,12
 248 79 248 79 248 142 c 2,13,-1
 248 1222 l 2,14,15
 248 1285 248 1285 199.5 1302.5 c 128,-1,16
 151 1320 151 1320 151 1344 c 0,17,18
 151 1365 151 1365 171 1365 c 2,19,-1
 500 1365 l 2,20,21
 520 1365 520 1365 520 1344 c 0,22,23
 520 1320 520 1320 471.5 1302.5 c 128,-1,24
 423 1285 423 1285 423 1222 c 2,25,-1
 423 767 l 1,26,-1
 834 767 l 1,27,-1
 834 677 l 1,0,-1
EndSplineSet
EndChar

StartChar: uni0371
Encoding: 881 881 723
Width: 961
GlyphClass: 2
Flags: W
LayerCount: 2
Fore
SplineSet
330 615 m 2,0,1
 330 729 330 729 286 775.5 c 128,-1,2
 242 822 242 822 189 837.5 c 128,-1,3
 136 853 136 853 92 857 c 128,-1,4
 48 861 48 861 48 890 c 0,5,6
 48 911 48 911 68 911 c 0,7,8
 130 914 130 914 183 914 c 0,9,10
 209 914 209 914 234 913 c 0,11,12
 306 911 306 911 358 894 c 0,13,14
 433 871 433 871 468 809 c 0,15,16
 499 755 499 755 505 666 c 1,17,-1
 505 583 l 1,18,-1
 916 583 l 1,19,-1
 916 493 l 1,20,-1
 505 493 l 1,21,-1
 505 142 l 2,22,23
 505 79 505 79 553.5 61.5 c 128,-1,24
 602 44 602 44 602 20 c 0,25,26
 602 0 602 0 582 0 c 2,27,-1
 253 0 l 2,28,29
 232 0 232 0 232 20 c 0,30,31
 232 44 232 44 281 61.5 c 128,-1,32
 330 79 330 79 330 142 c 2,33,-1
 330 615 l 2,0,1
EndSplineSet
EndChar

StartChar: uni0372
Encoding: 882 882 724
Width: 1220
GlyphClass: 2
Flags: W
LayerCount: 2
Fore
SplineSet
1162 905 m 1,0,-1
 1071 905 l 1,1,-1
 1071 1274 l 1,2,-1
 701 1274 l 1,3,-1
 701 142 l 2,4,5
 701 79 701 79 750 61.5 c 128,-1,6
 799 44 799 44 799 20 c 0,7,8
 799 0 799 0 778 0 c 2,9,-1
 449 0 l 2,10,11
 429 0 429 0 429 20 c 0,12,13
 429 44 429 44 477.5 61.5 c 128,-1,14
 526 79 526 79 526 142 c 2,15,-1
 526 1274 l 1,16,-1
 156 1274 l 1,17,-1
 156 905 l 1,18,-1
 66 905 l 1,19,-1
 66 1365 l 1,20,-1
 1162 1365 l 1,21,-1
 1162 905 l 1,0,-1
EndSplineSet
EndChar

StartChar: uni0373
Encoding: 883 883 725
Width: 1004
GlyphClass: 2
Flags: W
LayerCount: 2
Fore
SplineSet
957 568 m 1,0,-1
 866 568 l 1,1,-1
 866 814 l 1,2,-1
 599 814 l 1,3,-1
 599 142 l 2,4,5
 599 79 599 79 647.5 61.5 c 128,-1,6
 696 44 696 44 696 20 c 0,7,8
 696 0 696 0 676 0 c 2,9,-1
 347 0 l 2,10,11
 326 0 326 0 326 20 c 0,12,13
 326 44 326 44 375 61.5 c 128,-1,14
 424 79 424 79 424 142 c 2,15,-1
 424 814 l 1,16,-1
 218 814 l 2,17,18
 156 814 156 814 156 757 c 2,19,-1
 156 630 l 2,20,21
 157 584 157 584 191 569 c 1,22,-1
 191 563 l 1,23,-1
 150 563 l 2,24,25
 66 563 66 563 66 652 c 2,26,-1
 66 821 l 2,27,28
 66 905 66 905 150 905 c 2,29,-1
 957 905 l 1,30,-1
 957 568 l 1,0,-1
EndSplineSet
EndChar

StartChar: uni0376
Encoding: 886 886 728
Width: 1638
GlyphClass: 2
Flags: W
LayerCount: 2
Fore
SplineSet
435 0 m 1,0,-1
 176 0 l 2,1,2
 155 0 155 0 155 22 c 0,3,4
 155 48 155 48 205 66 c 128,-1,5
 255 84 255 84 255 148 c 0,6,7
 255 1257 255 1257 255 1257 c 2,8,9
 255 1322 255 1322 205 1340 c 128,-1,10
 155 1358 155 1358 155 1383 c 0,11,12
 155 1404 155 1404 176 1404 c 0,13,14
 515 1404 515 1404 515 1404 c 2,15,16
 535 1404 535 1404 535 1383 c 0,17,18
 535 1358 535 1358 485 1340.5 c 128,-1,19
 435 1323 435 1323 435 1259 c 2,20,21
 435 1259 435 1259 435 148 c 1,22,-1
 1282 1404 l 1,23,-1
 1541 1404 l 2,24,25
 1562 1404 1562 1404 1562 1382 c 0,26,27
 1562 1356 1562 1356 1512 1338 c 128,-1,28
 1462 1320 1462 1320 1462 1256 c 0,29,30
 1462 147 1462 147 1462 147 c 2,31,32
 1462 82 1462 82 1512 64 c 128,-1,33
 1562 46 1562 46 1562 21 c 0,34,35
 1562 0 1562 0 1541 0 c 0,36,37
 1202 0 1202 0 1202 0 c 2,38,39
 1182 0 1182 0 1182 21 c 0,40,41
 1182 46 1182 46 1232 63.5 c 128,-1,42
 1282 81 1282 81 1282 145 c 0,43,44
 1282 700 1282 700 1282 1256 c 1,45,-1
 435 0 l 1,0,-1
EndSplineSet
EndChar

StartChar: uni0377
Encoding: 887 887 729
Width: 1183
GlyphClass: 2
Flags: W
LayerCount: 2
Fore
SplineSet
816 739 m 1,0,-1
 956 905 l 1,1,-1
 991 905 l 1,2,-1
 991 553 l 2,3,4
 991 382 991 382 991.5 307.5 c 128,-1,5
 992 233 992 233 1004 194 c 0,6,7
 1035 92 1035 92 1127 38 c 1,8,-1
 1127 -10 l 1,9,10
 1019 15 1019 15 930 108 c 0,11,12
 867 174 867 174 841.5 267 c 128,-1,13
 816 360 816 360 816 553 c 2,14,-1
 816 630 l 1,15,-1
 267 2 l 2,16,17
 257 -9 257 -9 251 -14 c 0,18,19
 245 -18 245 -18 238 -18 c 2,20,-1
 156 -18 l 2,21,22
 149 -18 149 -18 148 -13 c 0,23,24
 147 -10 147 -10 147 -4 c 0,25,26
 147 5 147 5 149 21 c 2,27,-1
 153 777 l 2,28,29
 153 816 153 816 130 836 c 0,30,31
 115 849 115 849 99 857.5 c 128,-1,32
 83 866 83 866 74 875 c 0,33,34
 69 881 69 881 69 887 c 0,35,36
 69 895 69 895 74 900 c 256,37,38
 79 905 79 905 87 905 c 2,39,-1
 406 905 l 2,40,41
 414 905 414 905 419 900 c 256,42,43
 424 895 424 895 424 887 c 0,44,45
 424 876 424 876 406 865 c 0,46,47
 394 857 394 857 379 848 c 128,-1,48
 364 839 364 839 354 826 c 0,49,50
 338 806 338 806 338 783 c 2,51,-1
 328 161 l 1,52,-1
 816 739 l 1,0,-1
EndSplineSet
EndChar

StartChar: uni037A
Encoding: 890 890 730
Width: 1000
GlyphClass: 2
Flags: W
LayerCount: 2
Fore
SplineSet
366 -185 m 1,0,-1
 490 -185 l 1,1,-1
 490 -423 l 2,2,3
 490 -466 490 -466 531 -466 c 0,4,5
 532 -466 532 -466 534 -465 c 0,6,7
 577 -464 577 -464 577 -423 c 1,8,-1
 634 -423 l 1,9,10
 634 -471 634 -471 595.5 -511.5 c 128,-1,11
 557 -552 557 -552 500 -552 c 0,12,13
 442 -552 442 -552 404 -511.5 c 128,-1,14
 366 -471 366 -471 366 -423 c 2,15,-1
 366 -185 l 1,0,-1
EndSplineSet
EndChar

StartChar: Gamma
Encoding: 915 915 748
Width: 1153
GlyphClass: 2
Flags: W
LayerCount: 2
Fore
SplineSet
388 1311 m 1,0,-1
 387 148 l 2,1,2
 387 84 387 84 437 66 c 128,-1,3
 487 48 487 48 487 22 c 0,4,5
 487 0 487 0 467 0 c 2,6,7
 467 0 467 0 128 0 c 0,8,9
 107 0 107 0 107 22 c 0,10,11
 107 48 107 48 157 66 c 128,-1,12
 207 84 207 84 207 148 c 2,13,14
 207 148 207 148 207 1259 c 0,15,16
 207 1324 207 1324 157 1341.5 c 128,-1,17
 107 1359 107 1359 107 1384 c 0,18,19
 107 1405 107 1405 128 1405 c 2,20,21
 128 1405 128 1405 1044 1405 c 1,22,-1
 1117 1148 l 2,23,24
 1119 1140 1119 1140 1119 1127 c 0,25,26
 1119 1106 1119 1106 1098 1106 c 0,27,28
 1088 1106 1088 1106 1070 1128 c 0,29,30
 1037 1168 1037 1168 972.5 1239.5 c 128,-1,31
 908 1311 908 1311 815 1311 c 2,32,33
 815 1311 815 1311 388 1311 c 1,0,-1
EndSplineSet
EndChar

StartChar: uni0394
Encoding: 916 916 749
Width: 1090
GlyphClass: 2
Flags: W
LayerCount: 2
Fore
SplineSet
535 1174 m 1,0,-1
 129 102 l 1,1,-1
 930 102 l 1,2,-1
 535 1174 l 1,0,-1
547 1434 m 1,3,-1
 1073 0 l 1,4,-1
 6 0 l 1,5,-1
 547 1434 l 1,3,-1
EndSplineSet
EndChar

StartChar: Pi
Encoding: 928 928 761
Width: 1592
GlyphClass: 2
Flags: W
LayerCount: 2
Fore
SplineSet
423 1262 m 2,0,-1
 423 142 l 2,1,2
 423 79 423 79 471.5 61.5 c 128,-1,3
 520 44 520 44 520 20 c 0,4,5
 520 0 520 0 500 0 c 2,6,-1
 171 0 l 2,7,8
 151 0 151 0 151 20 c 0,9,10
 151 44 151 44 199.5 61.5 c 128,-1,11
 248 79 248 79 248 142 c 2,12,-1
 248 1262 l 2,13,14
 248 1325 248 1325 199.5 1342.5 c 128,-1,15
 151 1360 151 1360 151 1384 c 0,16,17
 151 1405 151 1405 171 1405 c 2,18,-1
 1497 1405 l 2,19,20
 1517 1405 1517 1405 1517 1384 c 0,21,22
 1517 1360 1517 1360 1468.5 1342.5 c 128,-1,23
 1420 1325 1420 1325 1420 1262 c 2,24,-1
 1420 142 l 2,25,26
 1420 79 1420 79 1468.5 61.5 c 128,-1,27
 1517 44 1517 44 1517 20 c 0,28,29
 1517 0 1517 0 1497 0 c 2,30,-1
 1168 0 l 2,31,32
 1147 0 1147 0 1147 20 c 0,33,34
 1147 44 1147 44 1196 61.5 c 128,-1,35
 1245 79 1245 79 1245 142 c 2,36,-1
 1245 1262 l 2,37,38
 1245 1291 1245 1291 1227 1315 c 1,39,-1
 441 1315 l 1,40,41
 423 1293 423 1293 423 1262 c 2,0,-1
EndSplineSet
EndChar

StartChar: Psi
Encoding: 936 936 768
Width: 1342
GlyphClass: 2
Flags: W
LayerCount: 2
Fore
SplineSet
751 1262 m 2,0,-1
 751 697 l 1,1,2
 886 733 886 733 968.5 879 c 128,-1,3
 1051 1025 1051 1025 1051 1192 c 2,4,-1
 1051 1232 l 2,5,6
 1051 1348 1051 1348 1119 1374 c 0,7,8
 1190 1400 1190 1400 1255 1406 c 0,9,10
 1279 1406 1279 1406 1279 1382 c 0,11,12
 1279 1367 1279 1367 1263 1360 c 128,-1,13
 1247 1353 1247 1353 1238 1344 c 0,14,15
 1196 1306 1196 1306 1196 1254 c 0,16,17
 1196 1247 1196 1247 1197 1239 c 0,18,19
 1197 1227 1197 1227 1198 1216 c 128,-1,20
 1199 1205 1199 1205 1200 1194 c 2,21,-1
 1200 1170 l 2,22,23
 1200 928 1200 928 1074 793 c 0,24,25
 940 650 940 650 751 629 c 1,26,-1
 751 143 l 2,27,28
 751 80 751 80 799.5 62 c 128,-1,29
 848 44 848 44 848 20 c 0,30,31
 848 0 848 0 828 0 c 2,32,-1
 498 0 l 2,33,34
 478 0 478 0 478 20 c 0,35,36
 478 44 478 44 526.5 61.5 c 128,-1,37
 575 79 575 79 575 142 c 2,38,-1
 575 629 l 1,39,40
 384 648 384 648 249 792 c 0,41,42
 121 926 121 926 121 1167 c 0,43,44
 121 1180 121 1180 122 1194 c 0,45,46
 122 1205 122 1205 123 1216 c 128,-1,47
 124 1227 124 1227 125 1239 c 0,48,49
 126 1246 126 1246 126 1253 c 0,50,51
 126 1310 126 1310 84 1344 c 0,52,53
 73 1353 73 1353 58 1360 c 256,54,55
 43 1367 43 1367 43 1380 c 2,56,-1
 43 1382 l 2,57,58
 43 1406 43 1406 66 1406 c 0,59,60
 131 1400 131 1400 203 1374 c 0,61,62
 271 1348 271 1348 271 1232 c 2,63,-1
 271 1222 l 2,64,65
 271 1214 271 1214 270.5 1206.5 c 128,-1,66
 270 1199 270 1199 270 1192 c 0,67,68
 270 1024 270 1024 353.5 877 c 128,-1,69
 437 730 437 730 575 696 c 1,70,-1
 575 1262 l 2,71,72
 575 1325 575 1325 526.5 1342.5 c 128,-1,73
 478 1360 478 1360 478 1385 c 0,74,75
 478 1405 478 1405 498 1405 c 2,76,-1
 828 1405 l 2,77,78
 848 1405 848 1405 848 1385 c 0,79,80
 848 1360 848 1360 799.5 1342.5 c 128,-1,81
 751 1325 751 1325 751 1262 c 2,0,-1
EndSplineSet
EndChar

StartChar: uni03A9
Encoding: 937 937 769
Width: 1621
GlyphClass: 2
Flags: W
LayerCount: 2
Fore
SplineSet
629 0 m 1,0,-1
 229 0 l 1,1,-1
 230 210 l 1,2,-1
 320 210 l 1,3,-1
 546 104 l 1,4,-1
 546 210 l 1,5,6
 329 261 329 261 183 418 c 0,7,8
 47 564 47 564 47 768 c 0,9,10
 47 783 47 783 48 799 c 0,11,12
 60 1078 60 1078 262.5 1240 c 128,-1,13
 465 1402 465 1402 786 1405 c 2,14,-1
 797 1405 l 2,15,16
 1111 1405 1111 1405 1326 1244 c 0,17,18
 1526 1093 1526 1093 1526 845 c 0,19,20
 1526 822 1526 822 1524 799 c 0,21,22
 1509 577 1509 577 1372.5 423 c 128,-1,23
 1236 269 1236 269 1029 210 c 1,24,-1
 1029 104 l 1,25,-1
 1255 210 l 1,26,-1
 1346 210 l 1,27,-1
 1346 0 l 1,28,-1
 945 0 l 1,29,-1
 945 281 l 1,30,31
 1115 335 1115 335 1219 483 c 0,32,33
 1321 630 1321 630 1321 793 c 2,34,-1
 1321 796 l 2,35,36
 1318 1000 1318 1000 1194 1167 c 128,-1,37
 1070 1334 1070 1334 785 1334 c 0,38,39
 486 1333 486 1333 368 1175.5 c 128,-1,40
 250 1018 250 1018 250 796 c 0,41,42
 250 613 250 613 353 471 c 128,-1,43
 456 329 456 329 629 281 c 1,44,-1
 629 0 l 1,0,-1
EndSplineSet
EndChar

StartChar: alpha
Encoding: 945 945 777
Width: 1297
GlyphClass: 2
Flags: W
LayerCount: 2
Fore
SplineSet
570 962 m 0,0,1
 803 951 803 951 905 726 c 1,2,3
 918 779 918 779 931 831.5 c 128,-1,4
 944 884 944 884 957 937 c 1,5,-1
 1116 937 l 1,6,-1
 997 460 l 1,7,8
 1001 431 1001 431 1014.5 348.5 c 128,-1,9
 1028 266 1028 266 1052.5 195 c 128,-1,10
 1077 124 1077 124 1113 99 c 0,11,12
 1121 93 1121 93 1129 93 c 0,13,14
 1159 93 1159 93 1197 159 c 1,15,-1
 1236 161 l 1,16,17
 1189 -12 1189 -12 1113 -12 c 0,18,19
 1089 -12 1089 -12 1064 4 c 0,20,21
 952 72 952 72 924 240 c 1,22,23
 868 124 868 124 779 53 c 0,24,25
 691 -16 691 -16 547 -21 c 1,26,-1
 533 -21 l 2,27,28
 340 -21 340 -21 205 120 c 0,29,30
 64 267 64 267 64 468 c 0,31,32
 64 687 64 687 226 839 c 0,33,34
 271 879 271 879 350.5 901.5 c 128,-1,35
 430 924 430 924 487 945 c 0,36,37
 531 962 531 962 570 962 c 0,0,1
851 507 m 1,38,39
 818 625 818 625 759.5 754.5 c 128,-1,40
 701 884 701 884 550 895 c 1,41,42
 392 895 392 895 323 756 c 128,-1,43
 254 617 254 617 254 485 c 0,44,45
 254 356 254 356 323.5 205 c 128,-1,46
 393 54 393 54 548 46 c 1,47,48
 672 46 672 46 733 164 c 0,49,50
 775 246 775 246 801 332 c 128,-1,51
 827 418 827 418 851 507 c 1,38,39
EndSplineSet
EndChar

StartChar: beta
Encoding: 946 946 778
Width: 1185
GlyphClass: 2
Flags: W
LayerCount: 2
Fore
SplineSet
905 65 m 0,0,1
 798 -10 798 -10 637 -27 c 0,2,3
 611 -30 611 -30 588 -30 c 0,4,5
 496 -30 496 -30 423 6 c 1,6,-1
 423 -442 l 2,7,8
 423 -504 423 -504 472 -523 c 0,9,10
 520 -541 520 -541 520 -565 c 0,11,12
 520 -586 520 -586 500 -586 c 2,13,-1
 171 -586 l 2,14,15
 150 -586 150 -586 150 -565 c 0,16,17
 150 -541 150 -541 199 -523 c 256,18,19
 248 -505 248 -505 248 -442 c 2,20,-1
 248 976 l 2,21,22
 248 1152 248 1152 371 1301 c 0,23,24
 492 1446 492 1446 727 1446 c 2,25,-1
 737 1446 l 1,26,27
 966 1442 966 1442 1041 1262 c 0,28,29
 1062 1213 1062 1213 1062 1157 c 0,30,31
 1062 1028 1062 1028 929 903 c 0,32,33
 908 882 908 882 863 848 c 1,34,35
 1008 776 1008 776 1072 664 c 0,36,37
 1129 565 1129 565 1129 458 c 0,38,39
 1129 438 1129 438 1128 428 c 0,40,41
 1109 211 1109 211 905 65 c 0,0,1
423 143 m 1,42,43
 478 94 478 94 570 73 c 0,44,45
 621 61 621 61 667 61 c 0,46,47
 749 61 749 61 818 97 c 0,48,49
 922 151 922 151 958 253 c 0,50,51
 978 309 978 309 978 363 c 0,52,53
 978 412 978 412 964 456 c 0,54,55
 933 556 933 556 831 634 c 0,56,57
 730 708 730 708 559 712 c 1,58,-1
 557 740 l 1,59,60
 623 761 623 761 715 802 c 0,61,62
 804 841 804 841 852 922 c 0,63,64
 890 984 890 984 890 1053 c 0,65,66
 890 1072 890 1072 887 1092 c 0,67,68
 871 1176 871 1176 817 1233 c 0,69,70
 743 1309 743 1309 642 1309 c 0,71,72
 503 1309 503 1309 463 1192.5 c 128,-1,73
 423 1076 423 1076 423 967 c 2,74,-1
 423 143 l 1,42,43
EndSplineSet
EndChar

StartChar: delta
Encoding: 948 948 780
Width: 1075
GlyphClass: 2
Flags: W
LayerCount: 2
Fore
SplineSet
547 869 m 1,0,-1
 535 869 l 2,1,2
 421 869 421 869 340 757 c 0,3,4
 254 638 254 638 254 464 c 2,5,-1
 254 460 l 2,6,7
 254 289 254 289 339 163 c 0,8,9
 424 35 424 35 545 29 c 1,10,-1
 558 29 l 2,11,12
 671 29 671 29 752 141 c 0,13,14
 838 259 838 259 839 433 c 0,15,16
 839 607 839 607 753 734.5 c 128,-1,17
 667 862 667 862 547 869 c 1,0,-1
429 1506 m 1,18,19
 484 1501 484 1501 555 1476 c 0,20,21
 593 1462 593 1462 628 1462 c 0,22,23
 657 1462 657 1462 684 1471 c 0,24,25
 736 1488 736 1488 736 1535 c 0,26,27
 736 1548 736 1548 732 1563 c 1,28,-1
 819 1596 l 1,29,30
 848 1547 848 1547 848 1505 c 0,31,32
 848 1465 848 1465 823 1431 c 0,33,34
 779 1373 779 1373 697 1370 c 2,35,-1
 683 1370 l 2,36,37
 603 1370 603 1370 529 1412 c 0,38,39
 473 1443 473 1443 429 1443 c 0,40,41
 410 1443 410 1443 394 1437 c 0,42,43
 391 1436 391 1436 387 1432 c 1,44,45
 674 1260 674 1260 845.5 1026.5 c 128,-1,46
 1017 793 1017 793 1022 449 c 1,47,-1
 1022 443 l 2,48,49
 1022 244 1022 244 885 107 c 0,50,51
 745 -33 745 -33 544 -39 c 1,52,-1
 531 -39 l 2,53,54
 342 -39 342 -39 206 102 c 0,55,56
 66 247 66 247 66 446 c 2,57,-1
 66 449 l 2,58,59
 67 665 67 665 227 814 c 0,60,61
 246 831 246 831 282.5 844 c 128,-1,62
 319 857 319 857 391 884 c 0,63,64
 433 900 433 900 485 919 c 0,65,66
 534 936 534 936 564 936 c 2,67,-1
 567 936 l 1,68,69
 680 931 680 931 776 876 c 1,70,71
 688 1041 688 1041 592 1158 c 128,-1,72
 496 1275 496 1275 313 1375 c 0,73,74
 294 1385 294 1385 294 1395 c 0,75,76
 294 1398 294 1398 296 1401 c 0,77,78
 303 1414 303 1414 315 1435 c 0,79,80
 352 1506 352 1506 418 1506 c 2,81,-1
 429 1506 l 1,18,19
EndSplineSet
EndChar

StartChar: zeta
Encoding: 950 950 782
Width: 907
GlyphClass: 2
Flags: W
LayerCount: 2
Fore
SplineSet
599 1199 m 1,0,1
 501 1118 501 1118 463 1051.5 c 128,-1,2
 425 985 425 985 374 875 c 0,3,4
 352 827 352 827 327 711 c 128,-1,5
 302 595 302 595 296 471 c 0,6,7
 295 445 295 445 295 421 c 0,8,9
 295 325 295 325 314 243 c 0,10,11
 337 140 337 140 412 119 c 2,12,-1
 685 41 l 2,13,14
 756 18 756 18 807 -48.5 c 128,-1,15
 858 -115 858 -115 860 -190 c 2,16,-1
 860 -192 l 2,17,18
 860 -305 860 -305 769 -400 c 0,19,20
 711 -460 711 -460 646.5 -501 c 128,-1,21
 582 -542 582 -542 489 -563 c 0,22,23
 455 -570 455 -570 406 -570 c 0,24,25
 387 -570 387 -570 365 -569 c 0,26,27
 339 -567 339 -567 312 -559 c 2,28,-1
 221 -531 l 1,29,-1
 273 -500 l 1,30,-1
 290 -500 l 1,31,32
 377 -494 377 -494 454 -452 c 128,-1,33
 531 -410 531 -410 587 -355 c 0,34,35
 672 -267 672 -267 683 -184 c 0,36,37
 684 -174 684 -174 684 -163 c 0,38,39
 684 -124 684 -124 666 -85 c 0,40,41
 643 -37 643 -37 581 -19 c 0,42,43
 386 38 386 38 257 107.5 c 128,-1,44
 128 177 128 177 128 449 c 0,45,46
 131 695 131 695 221 882.5 c 128,-1,47
 311 1070 311 1070 471 1218 c 1,48,-1
 291 1246 l 2,49,50
 254 1252 254 1252 220.5 1260.5 c 128,-1,51
 187 1269 187 1269 167 1296 c 0,52,53
 141 1330 141 1330 141 1370 c 0,54,55
 141 1412 141 1412 171 1461 c 1,56,-1
 257 1428 l 1,57,58
 250 1400 250 1400 234 1359 c 0,59,60
 228 1346 228 1346 228 1337 c 0,61,62
 228 1316 228 1316 254 1312 c 2,63,-1
 523 1266 l 1,64,65
 574 1300 574 1300 689.5 1374.5 c 128,-1,66
 805 1449 805 1449 863 1468 c 0,67,68
 894 1478 894 1478 923 1478 c 0,69,70
 971 1478 971 1478 1014 1450 c 0,71,72
 1082 1405 1082 1405 1091 1342 c 0,73,74
 1092 1334 1092 1334 1092 1326 c 0,75,76
 1092 1272 1092 1272 1044 1227 c 0,77,78
 989 1174 989 1174 903 1163 c 0,79,80
 882 1160 882 1160 862 1160 c 0,81,82
 837 1160 837 1160 814 1165 c 0,83,84
 772 1172 772 1172 736 1178 c 0,85,86
 711 1181 711 1181 671.5 1187 c 128,-1,87
 632 1193 632 1193 599 1199 c 1,0,1
653 1245 m 1,88,89
 696 1238 696 1238 805 1227 c 0,90,91
 829 1225 829 1225 850 1225 c 0,92,93
 925 1225 925 1225 962 1255 c 0,94,95
 1008 1292 1008 1292 1008 1331 c 0,96,97
 1008 1340 1008 1340 1006 1349 c 0,98,99
 992 1397 992 1397 932 1406 c 1,100,-1
 925 1406 l 2,101,102
 879 1406 879 1406 788 1340 c 0,103,104
 688 1268 688 1268 653 1245 c 1,88,89
EndSplineSet
EndChar

StartChar: iota
Encoding: 953 953 785
Width: 593
GlyphClass: 2
Flags: W
LayerCount: 2
Fore
SplineSet
384 287 m 2,0,1
 384 212 384 212 396 173 c 0,2,3
 427 71 427 71 519 17 c 1,4,-1
 519 -31 l 1,5,6
 411 -6 411 -6 322 87 c 0,7,8
 259 153 259 153 233.5 246 c 128,-1,9
 208 339 208 339 208 532 c 2,10,-1
 208 783 l 2,11,12
 208 846 208 846 159.5 863.5 c 128,-1,13
 111 881 111 881 111 905 c 0,14,15
 111 926 111 926 131 926 c 0,16,17
 195 929 195 929 258 945.5 c 128,-1,18
 321 962 321 962 384 984 c 1,19,-1
 384 287 l 2,0,1
EndSplineSet
EndChar

StartChar: lambda
Encoding: 955 955 787
Width: 1107
GlyphClass: 2
Flags: W
LayerCount: 2
Fore
SplineSet
576 702 m 1,0,1
 339 115 339 115 339 102 c 0,2,3
 339 65 339 65 370 50 c 1,4,5
 370 53 370 53 370 50 c 1,6,7
 387 40 387 40 386.5 31.5 c 128,-1,8
 386 23 386 23 385 20 c 0,9,10
 376 0 376 0 357 0 c 2,11,-1
 46 0 l 2,12,13
 31 0 31 0 31 8 c 128,-1,14
 31 16 31 16 35.5 26 c 128,-1,15
 40 36 40 36 66 47 c 0,16,17
 140 77 140 77 161 129 c 0,18,19
 324 517 324 517 488 904 c 1,20,21
 385 1128 385 1128 343 1227 c 0,22,23
 320 1282 320 1282 255 1282 c 2,24,25
 255 1282 255 1282 210 1282 c 1,26,27
 210 1282 210 1282 210 1396 c 0,28,29
 210 1416 210 1416 227 1416 c 2,30,31
 227 1416 227 1416 308 1416 c 0,32,33
 350 1416 350 1416 371 1374 c 0,34,35
 932 184 932 184 947 150 c 0,36,37
 958 124 958 124 1015 123 c 2,38,-1
 1062 123 l 1,39,40
 1062 123 1062 123 1062 13 c 0,41,42
 1062 -12 1062 -12 1046 -12 c 2,43,44
 1046 -12 1046 -12 962 -12 c 0,45,46
 912 -12 912 -12 876 66 c 0,47,48
 727 387 727 387 576 702 c 1,0,1
EndSplineSet
EndChar

StartChar: xi
Encoding: 958 958 790
Width: 1088
GlyphClass: 2
Flags: W
LayerCount: 2
Fore
SplineSet
429 1443 m 1,0,-1
 250 1471 l 2,1,2
 213 1477 213 1477 179 1485.5 c 128,-1,3
 145 1494 145 1494 125 1521 c 0,4,5
 100 1555 100 1555 100 1595 c 0,6,7
 100 1637 100 1637 129 1686 c 1,8,-1
 215 1653 l 1,9,10
 208 1625 208 1625 192 1584 c 0,11,12
 186 1571 186 1571 186 1562 c 0,13,14
 186 1541 186 1541 212 1537 c 2,15,-1
 481 1491 l 1,16,17
 532 1525 532 1525 647.5 1599.5 c 128,-1,18
 763 1674 763 1674 821 1693 c 0,19,20
 852 1703 852 1703 881 1703 c 0,21,22
 929 1703 929 1703 972 1676 c 0,23,24
 1040 1631 1040 1631 1049 1568 c 0,25,26
 1050 1560 1050 1560 1050 1552 c 0,27,28
 1050 1497 1050 1497 1002 1452 c 0,29,30
 947 1399 947 1399 861 1388 c 0,31,32
 840 1385 840 1385 820 1385 c 0,33,34
 795 1385 795 1385 772 1390 c 0,35,36
 730 1397 730 1397 694 1403 c 0,37,38
 670 1406 670 1406 630 1412 c 128,-1,39
 590 1418 590 1418 557 1424 c 1,40,41
 527 1399 527 1399 472 1346.5 c 128,-1,42
 417 1294 417 1294 383 1241 c 0,43,44
 354 1197 354 1197 354 1162 c 0,45,46
 354 1154 354 1154 356 1146 c 0,47,48
 364 1105 364 1105 461 1102 c 1,49,50
 511 1136 511 1136 627 1210.5 c 128,-1,51
 743 1285 743 1285 800 1304 c 0,52,53
 831 1314 831 1314 861 1314 c 0,54,55
 909 1314 909 1314 952 1287 c 0,56,57
 1020 1242 1020 1242 1029 1179 c 0,58,59
 1030 1171 1030 1171 1030 1163 c 0,60,61
 1030 1108 1030 1108 982 1063 c 0,62,63
 926 1010 926 1010 840 999 c 0,64,65
 820 996 820 996 800 996 c 0,66,67
 775 996 775 996 752 1001 c 0,68,69
 710 1008 710 1008 674 1014 c 0,70,71
 649 1017 649 1017 609 1023 c 128,-1,72
 569 1029 569 1029 536 1035 c 1,73,74
 472 956 472 956 457.5 895.5 c 128,-1,75
 443 835 443 835 409 718 c 0,76,77
 394 669 394 669 381 576 c 0,78,79
 369 498 369 498 369 418 c 0,80,81
 369 403 369 403 370 388 c 0,82,83
 372 293 372 293 399 215 c 128,-1,84
 426 137 426 137 493 119 c 2,85,-1
 766 41 l 2,86,87
 837 18 837 18 888 -48.5 c 128,-1,88
 939 -115 939 -115 941 -190 c 2,89,-1
 941 -192 l 2,90,91
 941 -305 941 -305 850 -400 c 0,92,93
 792 -460 792 -460 727.5 -501 c 128,-1,94
 663 -542 663 -542 570 -563 c 0,95,96
 536 -570 536 -570 487 -570 c 0,97,98
 468 -570 468 -570 446 -569 c 0,99,100
 420 -567 420 -567 393 -559 c 2,101,-1
 302 -531 l 1,102,-1
 354 -500 l 1,103,-1
 371 -500 l 1,104,105
 458 -494 458 -494 535 -452 c 128,-1,106
 612 -410 612 -410 668 -355 c 0,107,108
 753 -267 753 -267 764 -184 c 0,109,110
 765 -174 765 -174 765 -163 c 0,111,112
 765 -124 765 -124 747 -85 c 0,113,114
 724 -37 724 -37 662 -19 c 0,115,116
 467 38 467 38 339 88.5 c 128,-1,117
 211 139 211 139 211 390 c 0,118,119
 214 636 214 636 253 770 c 128,-1,120
 292 904 292 904 408 1054 c 1,121,-1
 351 1065 l 2,122,123
 250 1084 250 1084 236 1133 c 0,124,125
 231 1149 231 1149 231 1165 c 0,126,127
 231 1201 231 1201 252 1240 c 0,128,129
 282 1297 282 1297 336.5 1352.5 c 128,-1,130
 391 1408 391 1408 429 1443 c 1,0,-1
611 1470 m 1,131,132
 654 1463 654 1463 764 1452 c 0,133,134
 788 1450 788 1450 809 1450 c 0,135,136
 883 1450 883 1450 920 1480 c 0,137,138
 966 1518 966 1518 966 1556 c 0,139,140
 966 1565 966 1565 964 1575 c 0,141,142
 950 1622 950 1622 890 1632 c 1,143,-1
 883 1632 l 2,144,145
 837 1632 837 1632 746 1566 c 0,146,147
 646 1493 646 1493 611 1470 c 1,131,132
591 1081 m 1,148,149
 634 1074 634 1074 743 1064 c 0,150,151
 766 1061 766 1061 786 1061 c 0,152,153
 862 1061 862 1061 900 1092 c 0,154,155
 945 1129 945 1129 945 1167 c 0,156,157
 945 1176 945 1176 943 1186 c 0,158,159
 929 1233 929 1233 869 1243 c 1,160,-1
 862 1243 l 2,161,162
 817 1243 817 1243 726 1177 c 0,163,164
 626 1104 626 1104 591 1081 c 1,148,149
EndSplineSet
EndChar

StartChar: sigma1
Encoding: 962 962 794
Width: 904
GlyphClass: 2
Flags: W
LayerCount: 2
Fore
SplineSet
416 -24 m 0,0,1
 278 -19 278 -19 178 88 c 0,2,3
 80 193 80 193 65 349 c 0,4,5
 61 391 61 391 61 430 c 0,6,7
 61 500 61 500 68 546 c 0,8,9
 79 628 79 628 131 711 c 0,10,11
 156 753 156 753 217 800 c 0,12,13
 239 817 239 817 266 827 c 2,14,15
 266 827 266 827 422 885 c 0,16,17
 527 921 527 921 578 943 c 0,18,19
 594 950 594 950 615 950 c 0,20,21
 678 947 678 947 765 918 c 0,22,23
 771 916 771 916 775 915 c 1,24,-1
 775 768 l 1,25,26
 735 804 735 804 670 835.5 c 128,-1,27
 605 867 605 867 554 870 c 0,28,29
 533 870 533 870 512 862 c 0,30,31
 476 849 476 849 441.5 836 c 128,-1,32
 407 823 407 823 372 811 c 0,33,34
 347 801 347 801 333 785 c 0,35,36
 273 721 273 721 252 630 c 0,37,38
 236 561 236 561 236 493 c 0,39,40
 236 451 236 451 238 428 c 0,41,42
 249 289 249 289 314 201 c 0,43,44
 380 110 380 110 480 84 c 0,45,46
 567 61 567 61 685 41 c 0,47,48
 751 30 751 30 804.5 -42.5 c 128,-1,49
 858 -115 858 -115 860 -190 c 2,50,-1
 860 -192 l 2,51,52
 860 -305 860 -305 769 -400 c 0,53,54
 710 -460 710 -460 646 -501 c 0,55,56
 577 -545 577 -545 489 -563 c 0,57,58
 455 -570 455 -570 406 -570 c 0,59,60
 387 -570 387 -570 365 -569 c 0,61,62
 338 -567 338 -567 312 -559 c 2,63,-1
 221 -531 l 1,64,-1
 273 -500 l 1,65,-1
 290 -500 l 1,66,67
 377 -494 377 -494 454 -452 c 128,-1,68
 531 -410 531 -410 587 -355 c 0,69,70
 672 -267 672 -267 683 -184 c 0,71,72
 686 -160 686 -160 686 -139 c 0,73,74
 686 -33 686 -33 605 -30 c 0,75,76
 507 -27 507 -27 416 -24 c 0,0,1
EndSplineSet
EndChar

StartChar: sigma
Encoding: 963 963 795
Width: 1051
GlyphClass: 2
Flags: W
LayerCount: 2
Fore
SplineSet
537 801 m 2,0,1
 417 801 417 801 378.5 792 c 128,-1,2
 340 783 340 783 312 732 c 0,3,4
 254 626 254 626 254 484 c 2,5,-1
 254 480 l 2,6,7
 254 289 254 289 339 163 c 0,8,9
 424 35 424 35 545 29 c 1,10,-1
 558 29 l 2,11,12
 671 29 671 29 752 141 c 0,13,14
 838 259 838 259 839 433 c 0,15,16
 839 561 839 561 793.5 653.5 c 128,-1,17
 748 746 748 746 709 801 c 1,18,-1
 537 801 l 2,0,1
902 925 m 1,19,-1
 902 801 l 1,20,-1
 787 801 l 1,21,22
 847 745 847 745 919.5 667 c 128,-1,23
 992 589 992 589 996 465 c 1,24,-1
 996 430 l 2,25,26
 996 238 996 238 873 105 c 0,27,28
 745 -33 745 -33 544 -39 c 1,29,-1
 531 -39 l 2,30,31
 342 -39 342 -39 206 102 c 0,32,33
 66 247 66 247 66 466 c 2,34,-1
 66 469 l 2,35,36
 67 643 67 643 176 779 c 0,37,38
 216 829 216 829 268 877 c 128,-1,39
 320 925 320 925 391 925 c 2,40,-1
 902 925 l 1,19,-1
EndSplineSet
EndChar

StartChar: upsilon
Encoding: 965 965 797
Width: 1088
GlyphClass: 2
Flags: W
LayerCount: 2
Fore
SplineSet
319 86 m 1,0,1
 234 109 234 109 204 131 c 0,2,3
 174 152 174 152 164 190 c 0,4,5
 155 224 155 224 155 295 c 2,6,-1
 156 641 l 2,7,8
 156 710 156 710 155 745 c 0,9,10
 152 805 152 805 148 846 c 128,-1,11
 144 887 144 887 144 944 c 0,12,13
 144 955 144 955 163 964 c 0,14,15
 167 966 167 966 172 966 c 0,16,17
 182 966 182 966 196 955 c 1,18,19
 275 824 275 824 300 727 c 0,20,21
 316 656 316 656 319 575 c 0,22,23
 320 543 320 543 320 508 c 2,24,-1
 320 423 l 2,25,26
 319 368 319 368 319 299 c 2,27,-1
 319 273 l 2,28,29
 319 231 319 231 324 207 c 0,30,31
 331 163 331 163 362 138 c 0,32,33
 390 114 390 114 466 87 c 0,34,35
 493 76 493 76 517 74 c 0,36,37
 529 73 529 73 541 73 c 0,38,39
 578 73 578 73 616 84 c 0,40,41
 712 110 712 110 779 201 c 0,42,43
 848 296 848 296 855 428 c 0,44,45
 856 448 856 448 856 519 c 0,46,47
 856 589 856 589 841 660 c 0,48,49
 824 736 824 736 760 815 c 0,50,51
 756 820 756 820 748 826 c 1,52,-1
 735 891 l 1,53,-1
 828 857 l 2,54,55
 852 847 852 847 876 830 c 0,56,57
 936 783 936 783 962 741 c 0,58,59
 1013 658 1013 658 1025 576 c 0,60,61
 1032 527 1032 527 1032 423 c 0,62,63
 1032 387 1032 387 1029 349 c 0,64,65
 1014 195 1014 195 915 88 c 0,66,67
 819 -14 819 -14 677 -24 c 0,68,69
 663 -25 663 -25 637 -25 c 0,70,71
 609 -23 609 -23 586 -14 c 2,72,-1
 319 86 l 1,0,1
EndSplineSet
EndChar

StartChar: phi
Encoding: 966 966 798
Width: 1075
GlyphClass: 2
Flags: W
LayerCount: 2
Fore
SplineSet
589 41 m 5,0,1
 680 73 680 73 759 191 c 132,-1,2
 838 309 838 309 839 453 c 4,3,4
 839 668 839 668 722 796 c 4,5,6
 680 842 680 842 618 847 c 5,7,-1
 614 847 l 6,8,9
 589 847 589 847 589 805 c 6,10,-1
 589 41 l 5,0,1
589 -30 m 5,11,-1
 589 -585 l 5,12,-1
 485 -585 l 5,13,-1
 485 -34 l 5,14,15
 297 -8 297 -8 181 131 c 4,16,17
 66 268 66 268 66 466 c 6,18,-1
 66 469 l 6,19,20
 66 688 66 688 227 834 c 4,21,22
 269 872 269 872 322 872 c 4,23,24
 336 872 336 872 351 870 c 4,25,26
 404 860 404 860 404 847 c 4,27,28
 404 843 404 843 398 838 c 4,29,30
 254 724 254 724 254 484 c 6,31,-1
 254 479 l 6,32,33
 254 321 254 321 323 206 c 132,-1,34
 392 91 392 91 485 49 c 5,35,-1
 485 738 l 6,36,37
 485 865 485 865 521 913 c 4,38,39
 548 948 548 948 604 948 c 4,40,41
 629 948 629 948 659 944 c 4,42,43
 818 924 818 924 918 782 c 4,44,45
 1022 636 1022 636 1022 469 c 6,46,-1
 1022 463 l 6,47,48
 1022 265 1022 265 911 134 c 4,49,50
 797 1 797 1 589 -30 c 5,11,-1
EndSplineSet
EndChar

StartChar: psi
Encoding: 968 968 800
Width: 1278
GlyphClass: 2
Flags: W
LayerCount: 2
Fore
SplineSet
561 -587 m 1,0,-1
 561 34 l 1,1,2
 121 96 121 96 121 725 c 0,3,4
 121 739 121 739 122 753 c 0,5,6
 122 764 122 764 123 775 c 128,-1,7
 124 786 124 786 125 798 c 0,8,9
 126 805 126 805 126 812 c 0,10,11
 126 870 126 870 84 904 c 0,12,13
 73 913 73 913 58 920 c 0,14,15
 43 926 43 926 43 939 c 2,16,-1
 43 941 l 2,17,18
 43 965 43 965 63 965 c 2,19,-1
 66 965 l 1,20,21
 131 960 131 960 203 934 c 0,22,23
 271 908 271 908 271 791 c 2,24,-1
 271 781 l 2,25,26
 271 773 271 773 270.5 765.5 c 128,-1,27
 270 758 270 758 270 751 c 0,28,29
 270 244 270 244 561 142 c 1,30,-1
 561 924 l 1,31,-1
 703 924 l 1,32,-1
 703 142 l 1,33,34
 990 227 990 227 990 751 c 2,35,-1
 990 794 l 2,36,37
 990 908 990 908 1057 934 c 0,38,39
 1128 960 1128 960 1194 965 c 1,40,-1
 1197 965 l 2,41,42
 1216 965 1216 965 1218 941 c 0,43,44
 1218 926 1218 926 1202 919.5 c 128,-1,45
 1186 913 1186 913 1177 904 c 0,46,47
 1134 866 1134 866 1134 813 c 0,48,49
 1134 806 1134 806 1135 798 c 0,50,51
 1138 775 1138 775 1138 753 c 2,52,-1
 1138 728 l 2,53,54
 1138 103 1138 103 703 32 c 1,55,-1
 703 -587 l 1,56,-1
 561 -587 l 1,0,-1
EndSplineSet
EndChar

StartChar: omega
Encoding: 969 969 801
Width: 1414
GlyphClass: 2
Flags: W
LayerCount: 2
Fore
SplineSet
395 -30 m 0,0,1
 317 -30 317 -30 256.5 2.5 c 128,-1,2
 196 35 196 35 157 74 c 0,3,4
 118 110 118 110 90 177 c 128,-1,5
 62 244 62 244 62 318 c 0,6,7
 62 420 62 420 100 518.5 c 128,-1,8
 138 617 138 617 202 701 c 0,9,10
 302 831 302 831 465 918 c 0,11,12
 497 935 497 935 505 938 c 0,13,14
 508 939 508 939 511 939 c 0,15,16
 519 939 519 939 519 925 c 1,17,18
 517 925 517 925 487 898 c 0,19,20
 373 797 373 797 300 642 c 0,21,22
 234 501 234 501 234 320 c 0,23,24
 234 261 234 261 252 210 c 0,25,26
 268 164 268 164 294 122 c 0,27,28
 340 46 340 46 428 46 c 0,29,30
 546 46 546 46 591 111 c 0,31,32
 621 155 621 155 629 198.5 c 128,-1,33
 637 242 637 242 637 314 c 2,34,-1
 637 424 l 2,35,36
 637 464 637 464 604 475.5 c 128,-1,37
 571 487 571 487 571 503 c 0,38,39
 571 516 571 516 585 516 c 2,40,-1
 811 513 l 2,41,42
 825 513 825 513 825 500 c 0,43,44
 825 484 825 484 792 472.5 c 128,-1,45
 759 461 759 461 759 421 c 2,46,-1
 759 297 l 2,47,48
 759 173 759 173 814 104 c 0,49,50
 859 46 859 46 980 46 c 0,51,52
 1054 46 1054 46 1107 121 c 0,53,54
 1168 207 1168 207 1168 320 c 0,55,56
 1168 513 1168 513 1087 675 c 1,57,58
 1001 832 1001 832 921 898 c 0,59,60
 889 921 889 921 889 925 c 0,61,62
 889 939 889 939 897 939 c 0,63,64
 900 939 900 939 903 938 c 0,65,66
 923 927 923 927 943 918 c 0,67,68
 1099 844 1099 844 1206 701 c 0,69,70
 1269 617 1269 617 1308 518.5 c 128,-1,71
 1347 420 1347 420 1347 318 c 0,72,73
 1347 244 1347 244 1318.5 177 c 128,-1,74
 1290 110 1290 110 1252 74 c 0,75,76
 1212 35 1212 35 1151.5 2.5 c 128,-1,77
 1091 -30 1091 -30 1014 -30 c 2,78,-1
 1010 -30 l 2,79,80
 891 -30 891 -30 831 10 c 0,81,82
 822 16 822 16 772 57 c 0,83,84
 766 62 766 62 744.5 87 c 128,-1,85
 723 112 723 112 720 112 c 2,86,-1
 713 112 l 1,87,88
 710 102 710 102 693.5 83 c 128,-1,89
 677 64 677 64 669 57 c 0,90,91
 613 3 613 3 542 -13.5 c 128,-1,92
 471 -30 471 -30 395 -30 c 0,0,1
EndSplineSet
EndChar

StartChar: uni03CF
Encoding: 975 975 807
Width: 1355
GlyphClass: 2
Flags: W
LayerCount: 2
Fore
SplineSet
1228 181 m 1,0,-1
 1001 -45 l 2,1,2
 971 -75 971 -75 971 -105 c 0,3,4
 971 -120 971 -120 978 -135 c 0,5,6
 990 -162 990 -162 990 -179 c 0,7,8
 990 -192 990 -192 983 -200 c 0,9,10
 976 -207 976 -207 968 -207 c 0,11,12
 961 -207 961 -207 954 -200 c 2,13,-1
 721 32 l 2,14,15
 714 39 714 39 714 46 c 0,16,17
 714 54 714 54 721 61 c 0,18,19
 729 68 729 68 742 68 c 0,20,21
 759 68 759 68 786 56 c 0,22,23
 801 48 801 48 816 48 c 0,24,25
 847 48 847 48 877 78 c 2,26,-1
 969 171 l 1,27,-1
 423 674 l 1,28,-1
 423 142 l 2,29,30
 423 79 423 79 471.5 61.5 c 128,-1,31
 520 44 520 44 520 20 c 0,32,33
 520 0 520 0 500 0 c 2,34,-1
 171 0 l 2,35,36
 151 0 151 0 151 20 c 0,37,38
 151 44 151 44 199.5 61.5 c 128,-1,39
 248 79 248 79 248 142 c 2,40,-1
 248 1262 l 2,41,42
 248 1325 248 1325 199.5 1342.5 c 128,-1,43
 151 1360 151 1360 151 1384 c 0,44,45
 151 1405 151 1405 171 1405 c 2,46,-1
 500 1405 l 2,47,48
 520 1405 520 1405 520 1384 c 0,49,50
 520 1360 520 1360 471.5 1342.5 c 128,-1,51
 423 1325 423 1325 423 1262 c 2,52,-1
 423 725 l 1,53,-1
 932 1246 l 2,54,55
 1028 1339 1028 1339 1060 1370 c 0,56,57
 1095 1404 1095 1404 1130 1404 c 0,58,59
 1147 1404 1147 1404 1165 1395 c 2,60,-1
 1267 1345 l 2,61,62
 1284 1334 1284 1334 1284 1320 c 0,63,64
 1284 1315 1284 1315 1282 1309 c 2,65,-1
 1231 1166 l 1,66,-1
 1163 1195 l 2,67,68
 1128 1210 1128 1210 1094 1210 c 0,69,70
 1039 1210 1039 1210 1005 1173 c 2,71,-1
 613 751 l 1,72,-1
 1228 181 l 1,0,-1
EndSplineSet
EndChar

StartChar: uni03D0
Encoding: 976 976 808
Width: 1168
GlyphClass: 2
Flags: W
LayerCount: 2
Fore
SplineSet
557 893 m 1,0,1
 432 887 432 887 344 756 c 0,2,3
 257 625 257 625 257 450 c 2,4,-1
 257 446 l 2,5,6
 257 266 257 266 345 145 c 0,7,8
 428 30 428 30 544 30 c 2,9,-1
 558 30 l 1,10,11
 683 36 683 36 771 167 c 128,-1,12
 859 298 859 298 859 478 c 0,13,14
 858 656 858 656 770 778 c 0,15,16
 685 893 685 893 569 893 c 2,17,-1
 557 893 l 1,0,1
321 901 m 1,18,19
 422 958 422 958 536 963 c 1,20,-1
 539 963 l 2,21,22
 570 963 570 963 620 945 c 0,23,24
 673 926 673 926 717 910 c 0,25,26
 791 881 791 881 828.5 868 c 128,-1,27
 866 855 866 855 886 837 c 0,28,29
 961 767 961 767 1006 670 c 128,-1,30
 1051 573 1051 573 1051 461 c 0,31,32
 1051 255 1051 255 906 105 c 0,33,34
 766 -40 766 -40 573 -40 c 2,35,-1
 560 -40 l 1,36,37
 352 -34 352 -34 209 110 c 0,38,39
 68 250 68 250 68 452 c 2,40,-1
 68 461 l 2,41,42
 70 650 70 650 141 828 c 0,43,44
 186 942 186 942 253.5 1044.5 c 128,-1,45
 321 1147 321 1147 400 1243 c 0,46,47
 438 1291 438 1291 497 1357 c 0,48,49
 555 1423 555 1423 637 1444 c 0,50,51
 715 1464 715 1464 795 1464 c 2,52,-1
 803 1464 l 2,53,54
 874 1463 874 1463 990.5 1428 c 128,-1,55
 1107 1393 1107 1393 1110 1297 c 2,56,-1
 1110 1292 l 2,57,58
 1110 1197 1110 1197 994 1160 c 0,59,60
 874 1122 874 1122 802 1122 c 0,61,62
 720 1122 720 1122 642.5 1143 c 128,-1,63
 565 1164 565 1164 504 1221 c 1,64,65
 452 1164 452 1164 401.5 1061 c 128,-1,66
 351 958 351 958 321 901 c 1,18,19
576 1309 m 1,67,68
 592 1264 592 1264 666.5 1213.5 c 128,-1,69
 741 1163 741 1163 814 1163 c 0,70,71
 886 1163 886 1163 937.5 1200.5 c 128,-1,72
 989 1238 989 1238 989 1292 c 0,73,74
 989 1418 989 1418 814 1420 c 2,75,-1
 808 1420 l 2,76,77
 685 1420 685 1420 576 1309 c 1,67,68
EndSplineSet
EndChar

StartChar: theta1
Encoding: 977 977 809
Width: 1140
GlyphClass: 2
Flags: W
LayerCount: 2
Fore
SplineSet
737 1243 m 0,0,1
 801 1164 801 1164 866.5 1062 c 128,-1,2
 932 960 932 960 983 846 c 0,3,4
 1033 732 1033 732 1060 613 c 0,5,6
 1077 532 1077 532 1077 455 c 0,7,8
 1077 417 1077 417 1073 380 c 0,9,10
 1053 212 1053 212 941 91 c 0,11,12
 839 -18 839 -18 697 -25 c 1,13,-1
 655 -25 l 2,14,15
 632 -25 632 -25 603 -14 c 2,16,-1
 328 88 l 1,17,18
 240 112 240 112 210 135 c 0,19,20
 179 156 179 156 169 195 c 0,21,22
 160 229 160 229 160 303 c 2,23,-1
 161 608 l 2,24,25
 161 655 161 655 159 715 c 0,26,27
 156 776 156 776 152 818.5 c 128,-1,28
 148 861 148 861 148 920 c 0,29,30
 148 932 148 932 168 940 c 0,31,32
 172 942 172 942 176 942 c 0,33,34
 187 942 187 942 202 930 c 1,35,36
 283 795 283 795 308 696 c 0,37,38
 324 631 324 631 328 540 c 0,39,40
 329 507 329 507 329 471 c 2,41,-1
 329 435 l 2,42,43
 328 378 328 378 328 308 c 256,44,45
 328 238 328 238 333 213 c 0,46,47
 341 168 341 168 372 142 c 0,48,49
 402 118 402 118 479 89 c 0,50,51
 508 78 508 78 531 76 c 0,52,53
 544 75 544 75 557 75 c 0,54,55
 595 75 595 75 633 86 c 0,56,57
 732 114 732 114 802 207 c 0,58,59
 877 309 877 309 888 454 c 0,60,61
 891 490 891 490 891 526 c 0,62,63
 891 635 891 635 866 746 c 0,64,65
 799 1039 799 1039 633 1221 c 1,66,67
 570 1164 570 1164 493 1143 c 128,-1,68
 416 1122 416 1122 335 1122 c 0,69,70
 262 1122 262 1122 143 1160 c 0,71,72
 26 1197 26 1197 26 1292 c 2,73,-1
 26 1297 l 2,74,75
 29 1393 29 1393 145 1428 c 128,-1,76
 261 1463 261 1463 333 1464 c 2,77,-1
 342 1464 l 2,78,79
 410 1464 410 1464 479 1450 c 0,80,81
 551 1434 551 1434 608 1388 c 1,82,83
 622 1419 622 1419 630 1440 c 1,84,-1
 762 1425 l 1,85,86
 742 1364 742 1364 693 1296 c 1,87,88
 704 1282 704 1282 715 1269 c 128,-1,89
 726 1256 726 1256 737 1243 c 0,0,1
560 1309 m 1,90,91
 451 1420 451 1420 329 1420 c 2,92,-1
 323 1420 l 2,93,94
 148 1418 148 1418 148 1292 c 0,95,96
 148 1238 148 1238 199 1200.5 c 128,-1,97
 250 1163 250 1163 323 1163 c 0,98,99
 395 1163 395 1163 469.5 1213.5 c 128,-1,100
 544 1264 544 1264 560 1309 c 1,90,91
EndSplineSet
EndChar

StartChar: phi1
Encoding: 981 981 810
Width: 1350
GlyphClass: 2
Flags: W
LayerCount: 2
Fore
SplineSet
606 47 m 1,0,1
 606 889 606 889 606 889 c 1,2,3
 462 889 462 889 367 775 c 0,4,5
 245 630 245 630 245 481 c 0,6,7
 245 176 245 176 494 69 c 0,8,9
 545 47 545 47 606 47 c 1,0,1
747 954 m 1,10,11
 995 932 995 932 1132 805 c 0,12,13
 1290 660 1290 660 1290 461 c 0,14,15
 1290 460 1290 460 1290 458 c 0,16,17
 1289 254 1289 254 1127 120 c 0,18,19
 984 1 984 1 747 -21 c 1,20,21
 747 -21 747 -21 747 -585 c 1,22,-1
 606 -585 l 1,23,-1
 606 -24 l 1,24,25
 395 -9 395 -9 231 119 c 0,26,27
 60 251 60 251 60 459 c 0,28,29
 60 700 60 700 261 833 c 0,30,31
 288 851 288 851 333 863 c 0,32,33
 361 871 361 871 606 939 c 1,34,35
 606 939 606 939 606 1405 c 1,36,-1
 747 1405 l 1,37,-1
 747 954 l 1,10,11
747 42 m 1,38,39
 900 42 900 42 996 156 c 0,40,41
 1108 287 1108 287 1108 450 c 0,42,43
 1108 637 1108 637 993 756 c 0,44,45
 866 887 866 887 747 887 c 1,46,47
 747 860 747 860 747 42 c 1,38,39
EndSplineSet
EndChar

StartChar: uni03D8
Encoding: 984 984 812
Width: 1621
GlyphClass: 2
Flags: W
LayerCount: 2
Fore
SplineSet
785 1343 m 0,0,1
 486 1342 486 1342 368 1183.5 c 128,-1,2
 250 1025 250 1025 250 792 c 0,3,4
 250 569 250 569 399 411 c 128,-1,5
 548 253 548 253 785 252 c 2,6,-1
 791 252 l 2,7,8
 1024 252 1024 252 1172 419 c 0,9,10
 1321 587 1321 587 1321 789 c 2,11,-1
 1321 792 l 2,12,13
 1318 1007 1318 1007 1194 1175 c 128,-1,14
 1070 1343 1070 1343 785 1343 c 0,0,1
699 184 m 1,15,16
 427 197 427 197 232 365 c 0,17,18
 47 523 47 523 47 765 c 0,19,20
 47 780 47 780 48 795 c 0,21,22
 60 1087 60 1087 262 1249 c 0,23,24
 464 1412 464 1412 786 1415 c 2,25,-1
 797 1415 l 2,26,27
 1111 1415 1111 1415 1326 1253 c 0,28,29
 1526 1101 1526 1101 1526 851 c 0,30,31
 1526 819 1526 819 1524 795 c 0,32,33
 1506 533 1506 533 1322.5 378.5 c 128,-1,34
 1139 224 1139 224 874 191 c 1,35,-1
 874 143 l 2,36,37
 874 80 874 80 922.5 62 c 128,-1,38
 971 44 971 44 971 20 c 0,39,40
 971 0 971 0 951 0 c 2,41,-1
 622 0 l 2,42,43
 601 0 601 0 601 20 c 0,44,45
 601 44 601 44 650 61.5 c 128,-1,46
 699 79 699 79 699 142 c 2,47,-1
 699 184 l 1,15,16
EndSplineSet
EndChar

StartChar: uni03DA
Encoding: 986 986 814
Width: 1372
GlyphClass: 2
Flags: W
LayerCount: 2
Fore
SplineSet
874 143 m 2,0,1
 874 80 874 80 922.5 62 c 128,-1,2
 971 44 971 44 971 20 c 0,3,4
 971 0 971 0 951 0 c 2,5,-1
 622 0 l 2,6,7
 601 0 601 0 601 20 c 0,8,9
 601 44 601 44 650 61.5 c 128,-1,10
 699 79 699 79 699 142 c 2,11,-1
 699 184 l 1,12,13
 427 197 427 197 232 365 c 0,14,15
 47 523 47 523 47 765 c 0,16,17
 47 780 47 780 48 795 c 0,18,19
 60 1076 60 1076 262.5 1239 c 128,-1,20
 465 1402 465 1402 786 1405 c 2,21,-1
 795 1405 l 2,22,23
 1028 1405 1028 1405 1141 1303 c 0,24,25
 1255 1198 1255 1198 1307 1054 c 1,26,-1
 1265 1054 l 1,27,28
 1224 1144 1224 1144 1100.5 1238.5 c 128,-1,29
 977 1333 977 1333 785 1333 c 0,30,31
 486 1332 486 1332 368 1173.5 c 128,-1,32
 250 1015 250 1015 250 792 c 256,33,34
 250 569 250 569 399 411 c 128,-1,35
 548 253 548 253 785 252 c 2,36,-1
 800 252 l 2,37,38
 832 252 832 252 874 258 c 1,39,-1
 874 143 l 2,0,1
EndSplineSet
EndChar

StartChar: uni03DB
Encoding: 987 987 815
Width: 1282
GlyphClass: 2
Flags: W
LayerCount: 2
Fore
SplineSet
892 905 m 2,0,1
 1060 905 1060 905 1110 917 c 128,-1,2
 1160 929 1160 929 1210 982 c 0,3,4
 1215 987 1215 987 1217 987 c 256,5,6
 1219 987 1219 987 1219 982 c 0,7,8
 1220 964 1220 964 1220 946 c 2,9,-1
 1220 928 l 2,10,11
 1219 901 1219 901 1219 874 c 0,12,13
 1216 817 1216 817 1109 800.5 c 128,-1,14
 1002 784 1002 784 915 784 c 0,15,16
 634 781 634 781 475 748 c 0,17,18
 324 717 324 717 324 467 c 0,19,20
 324 452 324 452 325 435 c 0,21,22
 328 322 328 322 353.5 225 c 128,-1,23
 379 128 379 128 412 119 c 2,24,-1
 685 41 l 2,25,26
 756 18 756 18 807 -48.5 c 128,-1,27
 858 -115 858 -115 860 -190 c 2,28,-1
 860 -192 l 2,29,30
 860 -305 860 -305 769 -400 c 0,31,32
 711 -460 711 -460 646.5 -501 c 128,-1,33
 582 -542 582 -542 489 -563 c 0,34,35
 455 -570 455 -570 406 -570 c 0,36,37
 387 -570 387 -570 365 -569 c 0,38,39
 339 -567 339 -567 312 -559 c 2,40,-1
 221 -531 l 1,41,-1
 273 -500 l 1,42,-1
 290 -500 l 1,43,44
 377 -494 377 -494 454 -452 c 128,-1,45
 531 -410 531 -410 587 -355 c 0,46,47
 672 -267 672 -267 683 -184 c 0,48,49
 684 -174 684 -174 684 -163 c 0,50,51
 684 -124 684 -124 666 -85 c 0,52,53
 643 -37 643 -37 581 -19 c 0,54,55
 386 38 386 38 257 107.5 c 128,-1,56
 128 177 128 177 128 449 c 0,57,58
 128 477 128 477 137.5 552 c 128,-1,59
 147 627 147 627 202.5 705 c 128,-1,60
 258 783 258 783 378 844 c 128,-1,61
 498 905 498 905 719 905 c 2,62,-1
 892 905 l 2,0,1
EndSplineSet
EndChar

StartChar: uni0404
Encoding: 1028 1028 840
Width: 1405
GlyphClass: 2
Flags: W
LayerCount: 2
Fore
SplineSet
848 -37 m 0,0,1
 541 -37 541 -37 304 159 c 128,-1,2
 67 355 67 355 67 701 c 0,3,4
 67 1038 67 1038 297.5 1241.5 c 128,-1,5
 528 1445 528 1445 848 1445 c 0,6,7
 963 1445 963 1445 1092.5 1419.5 c 128,-1,8
 1222 1394 1222 1394 1339 1319 c 1,9,-1
 1315 1109 l 2,10,11
 1311 1091 1311 1091 1295 1091 c 2,12,-1
 1292 1091 l 2,13,14
 1280 1092 1280 1092 1266 1119 c 0,15,16
 1208 1244 1208 1244 1092 1303 c 0,17,18
 984 1356 984 1356 862 1356 c 2,19,-1
 841 1356 l 1,20,21
 571 1344 571 1344 419 1140 c 0,22,23
 292 971 292 971 283 768 c 1,24,-1
 738 768 l 2,25,26
 802 768 802 768 822 819.5 c 128,-1,27
 842 871 842 871 868 871 c 0,28,29
 888 871 888 871 888 850 c 2,30,-1
 888 596 l 2,31,32
 888 575 888 575 868 575 c 0,33,34
 842 575 842 575 819 626 c 128,-1,35
 796 677 796 677 732 677 c 2,36,-1
 285 677 l 1,37,38
 301 452 301 452 446 266 c 0,39,40
 594 77 594 77 848 65 c 0,41,42
 872 64 872 64 894 64 c 0,43,44
 1022 64 1022 64 1105 103 c 0,45,46
 1201 149 1201 149 1266 288 c 0,47,48
 1279 316 1279 316 1298 316 c 0,49,50
 1302 316 1302 316 1306 315 c 0,51,52
 1322 309 1322 309 1322 292 c 0,53,54
 1322 284 1322 284 1318 274 c 2,55,-1
 1231 31 l 1,56,57
 1135 -9 1135 -9 1036 -23 c 128,-1,58
 937 -37 937 -37 848 -37 c 0,0,1
EndSplineSet
EndChar

StartChar: uni0409
Encoding: 1033 1033 845
Width: 2084
GlyphClass: 2
Flags: W
LayerCount: 2
Fore
SplineSet
1015 0 m 0,0,1
 995 0 995 0 995 20 c 0,2,3
 995 45 995 45 1045 62.5 c 128,-1,4
 1095 80 1095 80 1095 145 c 2,5,-1
 1095 1255 l 2,6,7
 1095 1291 1095 1291 1055 1311 c 1,8,-1
 507 1311 l 1,9,10
 458 1291 458 1291 458 1244 c 2,11,-1
 458 578 l 2,12,13
 458 361 458 361 435 255.5 c 128,-1,14
 412 150 412 150 347 76 c 0,15,16
 256 -26 256 -26 144 -59 c 1,17,-1
 144 -4 l 1,18,19
 241 61 241 61 271 172 c 0,20,21
 283 217 283 217 283.5 298.5 c 128,-1,22
 284 380 284 380 284 572 c 2,23,-1
 284 1244 l 2,24,25
 284 1314 284 1314 234 1334 c 128,-1,26
 184 1354 184 1354 184 1382 c 0,27,28
 184 1404 184 1404 205 1404 c 0,29,30
 543 1404 543 1404 1354 1403 c 0,31,32
 1375 1403 1375 1403 1375 1381 c 0,33,34
 1375 1355 1375 1355 1325 1337.5 c 128,-1,35
 1275 1320 1275 1320 1275 1255 c 2,36,-1
 1275 789 l 1,37,-1
 1565 789 l 2,38,39
 1666 789 1666 789 1795 751 c 0,40,41
 1914 716 1914 716 1980 599 c 0,42,43
 2032 508 2032 508 2032 380 c 0,44,45
 2032 261 2032 261 1962 163 c 0,46,47
 1902 80 1902 80 1797 40 c 0,48,49
 1689 0 1689 0 1604 0 c 0,50,51
 1309 0 1309 0 1015 0 c 0,0,1
1275 75 m 1,52,-1
 1459 75 l 2,53,54
 1462 75 1462 75 1465 75 c 0,55,56
 1536 75 1536 75 1609 96 c 0,57,58
 1681 116 1681 116 1740 173 c 0,59,60
 1825 254 1825 254 1825 388 c 0,61,62
 1825 390 1825 390 1825 391 c 0,63,64
 1825 523 1825 523 1736 609 c 0,65,66
 1641 700 1641 700 1481 700 c 2,67,-1
 1275 700 l 1,68,-1
 1275 75 l 1,52,-1
EndSplineSet
EndChar

StartChar: uni0414
Encoding: 1044 1044 856
Width: 1514
GlyphClass: 2
Flags: W
LayerCount: 2
Fore
SplineSet
1335 1255 m 2,0,-1
 1335 146 l 2,1,2
 1335 87 1335 87 1374 67 c 1,3,-1
 1436 67 l 1,4,-1
 1439 67 l 1,5,-1
 1439 -322 l 1,6,-1
 1313 -322 l 1,7,-1
 1313 -4 l 1,8,-1
 188 -4 l 1,9,-1
 188 -322 l 1,10,-1
 62 -322 l 1,11,-1
 62 -4 l 1,12,-1
 62 67 l 1,13,-1
 188 67 l 1,14,-1
 203 67 l 1,15,16
 281 125 281 125 309 222 c 0,17,18
 321 265 321 265 321.5 343 c 128,-1,19
 322 421 322 421 322 605 c 2,20,-1
 322 1250 l 2,21,22
 322 1318 322 1318 272 1337 c 128,-1,23
 222 1356 222 1356 222 1383 c 0,24,25
 222 1404 222 1404 243 1404 c 2,26,-1
 576 1404 l 2,27,28
 579 1404 579 1404 581 1404 c 2,29,-1
 1357 1404 l 1,30,-1
 1357 1403 l 1,31,-1
 1414 1403 l 2,32,33
 1435 1403 1435 1403 1435 1381 c 0,34,35
 1435 1355 1435 1355 1385 1337.5 c 128,-1,36
 1335 1320 1335 1320 1335 1255 c 2,0,-1
496 611 m 2,37,38
 496 404 496 404 473 302 c 0,39,40
 449 198 449 198 385 129 c 0,41,42
 352 94 352 94 317 67 c 1,43,-1
 1116 67 l 1,44,45
 1155 87 1155 87 1155 145 c 2,46,-1
 1155 1255 l 2,47,48
 1155 1298 1155 1298 1115 1318 c 1,49,-1
 539 1318 l 1,50,51
 496 1297 496 1297 496 1250 c 2,52,-1
 496 611 l 2,37,38
EndSplineSet
EndChar

StartChar: uni041B
Encoding: 1051 1051 863
Width: 1514
GlyphClass: 2
Flags: W
LayerCount: 2
Fore
SplineSet
1335 1256 m 2,0,-1
 1335 147 l 2,1,2
 1335 81 1335 81 1385 63.5 c 128,-1,3
 1435 46 1435 46 1435 21 c 0,4,5
 1435 0 1435 0 1414 0 c 2,6,-1
 1075 0 l 2,7,8
 1055 0 1055 0 1055 21 c 0,9,10
 1055 46 1055 46 1105 63.5 c 128,-1,11
 1155 81 1155 81 1155 146 c 2,12,-1
 1155 1256 l 2,13,14
 1155 1302 1155 1302 1116 1322 c 1,15,-1
 507 1322 l 1,16,17
 458 1302 458 1302 458 1244 c 2,18,-1
 458 578 l 2,19,20
 458 361 458 361 435 255.5 c 128,-1,21
 412 150 412 150 347 76 c 0,22,23
 256 -26 256 -26 144 -59 c 1,24,-1
 144 -4 l 1,25,26
 241 61 241 61 271 172 c 0,27,28
 283 217 283 217 283.5 298.5 c 128,-1,29
 284 380 284 380 284 572 c 2,30,-1
 284 1244 l 2,31,32
 284 1314 284 1314 234 1334 c 128,-1,33
 184 1354 184 1354 184 1382 c 0,34,35
 184 1404 184 1404 205 1404 c 0,36,37
 1076 1404 1076 1404 1414 1404 c 0,38,39
 1435 1404 1435 1404 1435 1382 c 0,40,41
 1435 1356 1435 1356 1385 1338.5 c 128,-1,42
 1335 1321 1335 1321 1335 1256 c 2,0,-1
EndSplineSet
EndChar

StartChar: uni0420
Encoding: 1056 1056 868
Width: 1237
GlyphClass: 2
Flags: W
LayerCount: 2
Fore
SplineSet
521 737 m 1,0,-1
 646 737 l 2,1,2
 817 737 817 737 908 828 c 0,3,4
 988 905 988 905 988 1029.5 c 128,-1,5
 988 1154 988 1154 902 1237.5 c 128,-1,6
 816 1321 816 1321 666 1321 c 2,7,8
 666 1321 666 1321 414 1321 c 1,9,10
 414 1321 414 1321 414 146 c 0,11,12
 414 81 414 81 464 63.5 c 128,-1,13
 514 46 514 46 514 23 c 128,-1,14
 514 0 514 0 494 0 c 2,15,16
 494 0 494 0 155 0 c 0,17,18
 134 0 134 0 134 23 c 128,-1,19
 134 46 134 46 184 63.5 c 128,-1,20
 234 81 234 81 234 146 c 2,21,22
 234 146 234 146 234 1257 c 0,23,24
 234 1321 234 1321 184 1339 c 128,-1,25
 134 1357 134 1357 134 1381 c 128,-1,26
 134 1405 134 1405 155 1405 c 2,27,28
 155 1405 155 1405 745 1405 c 0,29,30
 848 1405 848 1405 960 1368 c 128,-1,31
 1072 1331 1072 1331 1126 1236 c 0,32,33
 1180 1143 1180 1143 1180 1029 c 0,34,35
 1180 1027 1180 1027 1180 1025 c 0,36,37
 1179 909 1179 909 1120.5 825.5 c 128,-1,38
 1062 742 1062 742 962.5 704.5 c 128,-1,39
 863 667 863 667 781 667 c 2,40,41
 781 667 781 667 521 667 c 1,42,43
 521 667 521 667 521 737 c 1,0,-1
EndSplineSet
EndChar

StartChar: uni0428
Encoding: 1064 1064 876
Width: 1846
GlyphClass: 2
Flags: W
LayerCount: 2
Fore
SplineSet
1070 1256 m 2,0,-1
 1070 164 l 2,1,2
 1070 109 1070 109 1105 88 c 1,3,4
 1105 88 1105 88 1487 87 c 1,5,6
 1522 108 1522 108 1522 163 c 2,7,-1
 1522 1256 l 2,8,9
 1522 1321 1522 1321 1472 1338.5 c 128,-1,10
 1422 1356 1422 1356 1422 1382 c 0,11,12
 1422 1404 1422 1404 1443 1404 c 2,13,-1
 1781 1404 l 2,14,15
 1802 1404 1802 1404 1802 1382 c 0,16,17
 1802 1356 1802 1356 1752 1338.5 c 128,-1,18
 1702 1321 1702 1321 1702 1256 c 2,19,-1
 1702 147 l 2,20,21
 1702 81 1702 81 1752 63.5 c 128,-1,22
 1802 46 1802 46 1802 21 c 0,23,24
 1802 0 1802 0 1781 0 c 0,25,26
 978 0 978 0 175 0 c 0,27,28
 155 0 155 0 155 21 c 0,29,30
 155 46 155 46 205 63.5 c 128,-1,31
 255 81 255 81 255 146 c 2,32,-1
 255 1256 l 2,33,34
 255 1321 255 1321 205 1338.5 c 128,-1,35
 155 1356 155 1356 155 1382 c 0,36,37
 155 1404 155 1404 176 1404 c 2,38,-1
 514 1404 l 2,39,40
 535 1404 535 1404 535 1382 c 0,41,42
 535 1356 535 1356 485 1338.5 c 128,-1,43
 435 1321 435 1321 435 1256 c 2,44,-1
 435 164 l 2,45,46
 435 109 435 109 470 87 c 1,47,-1
 855 87 l 1,48,49
 890 108 890 108 890 163 c 2,50,-1
 890 1256 l 2,51,52
 890 1321 890 1321 840 1338.5 c 128,-1,53
 790 1356 790 1356 790 1382 c 0,54,55
 790 1404 790 1404 811 1404 c 2,56,-1
 1149 1404 l 2,57,58
 1170 1404 1170 1404 1170 1382 c 0,59,60
 1170 1356 1170 1356 1120 1338.5 c 128,-1,61
 1070 1321 1070 1321 1070 1256 c 2,0,-1
EndSplineSet
EndChar

StartChar: uni0433
Encoding: 1075 1075 887
Width: 818
GlyphClass: 2
Flags: W
LayerCount: 2
Fore
SplineSet
340 840 m 1,0,-1
 339 98 l 2,1,2
 339 55 339 55 389 43.5 c 128,-1,3
 439 32 439 32 439 15 c 0,4,5
 439 0 439 0 419 0 c 2,6,7
 419 0 419 0 87 0 c 0,8,9
 66 0 66 0 66 15 c 0,10,11
 66 32 66 32 116 43.5 c 128,-1,12
 166 55 166 55 166 98 c 2,13,14
 166 98 166 98 166 831 c 0,15,16
 166 874 166 874 116 885 c 0,17,18
 66 897 66 897 66 913 c 0,19,20
 66 927 66 927 87 927 c 2,21,22
 87 927 87 927 752 927 c 1,23,-1
 793 733 l 2,24,25
 795 724 795 724 795 719 c 0,26,27
 795 705 795 705 774 705 c 0,28,29
 764 705 764 705 746 719 c 0,30,31
 713 746 713 746 648.5 793 c 128,-1,32
 584 840 584 840 491 840 c 2,33,34
 491 840 491 840 340 840 c 1,0,-1
EndSplineSet
EndChar

StartChar: uni0434
Encoding: 1076 1076 888
Width: 1077
GlyphClass: 2
Flags: W
LayerCount: 2
Fore
SplineSet
374 847 m 1,0,-1
 374 403 l 2,1,2
 374 265 374 265 351 198 c 0,3,4
 327 129 327 129 263 83 c 0,5,6
 251 75 251 75 239 67 c 1,7,-1
 707 67 l 1,8,9
 748 87 748 87 748 146 c 2,10,-1
 748 774 l 2,11,12
 748 825 748 825 715 847 c 1,13,-1
 374 847 l 1,0,-1
46 -322 m 1,14,-1
 46 67 l 1,15,-1
 69 67 l 1,16,-1
 122 67 l 1,17,18
 168 100 168 100 187 145 c 0,19,20
 199 174 199 174 199.5 225.5 c 128,-1,21
 200 277 200 277 200 399 c 2,22,-1
 200 817 l 2,23,24
 200 862 200 862 150 874.5 c 128,-1,25
 100 887 100 887 100 905 c 0,26,27
 100 929 100 929 121 929 c 2,28,-1
 1002 929 l 2,29,30
 1022 929 1022 929 1022 911 c 0,31,32
 1022 885 1022 885 972 867 c 128,-1,33
 922 849 922 849 922 785 c 2,34,-1
 922 146 l 2,35,36
 922 87 922 87 963 67 c 1,37,-1
 1030 67 l 1,38,-1
 1031 67 l 1,39,-1
 1031 -322 l 1,40,-1
 905 -322 l 1,41,-1
 905 -4 l 1,42,-1
 172 -4 l 1,43,-1
 172 -322 l 1,44,-1
 46 -322 l 1,14,-1
EndSplineSet
EndChar

StartChar: uni0438
Encoding: 1080 1080 892
Width: 1142
GlyphClass: 2
Flags: W
LayerCount: 2
Fore
SplineSet
318 146 m 1,0,1
 318 146 318 146 839 931 c 1,2,-1
 1093 931 l 2,3,4
 1114 931 1114 931 1114 911 c 0,5,6
 1114 885 1114 885 1063.5 867 c 128,-1,7
 1013 849 1013 849 1013 785 c 2,8,-1
 1013 146 l 2,9,10
 1013 81 1013 81 1063.5 63.5 c 128,-1,11
 1114 46 1114 46 1114 21 c 0,12,13
 1114 0 1114 0 1093 0 c 2,14,-1
 760 0 l 2,15,16
 739 0 739 0 739 21 c 0,17,18
 739 46 739 46 789 63.5 c 128,-1,19
 839 81 839 81 839 146 c 2,20,-1
 839 785 l 1,21,22
 318 0 318 0 318 0 c 1,23,-1
 65 0 l 2,24,25
 44 0 44 0 44 21 c 0,26,27
 44 46 44 46 94 63.5 c 128,-1,28
 144 81 144 81 144 146 c 2,29,-1
 144 785 l 2,30,31
 144 849 144 849 94 867 c 128,-1,32
 44 885 44 885 44 911 c 0,33,34
 44 931 44 931 65 931 c 2,35,-1
 398 931 l 2,36,37
 418 931 418 931 418 911 c 0,38,39
 418 885 418 885 368 867 c 128,-1,40
 318 849 318 849 318 785 c 2,41,-1
 318 146 l 1,0,1
EndSplineSet
EndChar

StartChar: uni043B
Encoding: 1083 1083 895
Width: 1041
GlyphClass: 2
Flags: W
LayerCount: 2
Fore
SplineSet
374 847 m 1,0,1
 374 847 374 847 374 403 c 0,2,3
 374 265 374 265 351 198 c 0,4,5
 327 129 327 129 263 83 c 0,6,7
 172 18 172 18 60 -2 c 1,8,-1
 60 33 l 1,9,10
 158 74 158 74 187 145 c 0,11,12
 199 174 199 174 199.5 225.5 c 128,-1,13
 200 277 200 277 200 399 c 2,14,-1
 200 817 l 2,15,16
 200 862 200 862 150 874.5 c 128,-1,17
 100 887 100 887 100 905 c 0,18,19
 100 929 100 929 121 929 c 0,20,21
 1002 929 1002 929 1002 929 c 2,22,23
 1022 929 1022 929 1022 911 c 0,24,25
 1022 885 1022 885 972 867 c 128,-1,26
 922 849 922 849 922 785 c 2,27,-1
 922 146 l 2,28,29
 922 81 922 81 972 63.5 c 128,-1,30
 1022 46 1022 46 1022 21 c 0,31,32
 1022 0 1022 0 1002 0 c 2,33,-1
 669 0 l 2,34,35
 648 0 648 0 648 21 c 0,36,37
 648 46 648 46 698 63.5 c 128,-1,38
 748 81 748 81 748 146 c 2,39,-1
 748 774 l 2,40,41
 748 825 748 825 715 847 c 1,42,-1
 374 847 l 1,0,1
EndSplineSet
EndChar

StartChar: uni043C
Encoding: 1084 1084 896
Width: 1401
GlyphClass: 2
Flags: W
LayerCount: 2
Fore
SplineSet
279 745 m 1,0,-1
 279 146 l 2,1,2
 279 81 279 81 329 63.5 c 128,-1,3
 379 46 379 46 379 21 c 0,4,5
 379 0 379 0 359 0 c 2,6,-1
 104 0 l 2,7,8
 83 0 83 0 83 21 c 0,9,10
 83 46 83 46 133 63.5 c 128,-1,11
 183 81 183 81 183 146 c 2,12,-1
 183 785 l 2,13,14
 183 849 183 849 133 867 c 128,-1,15
 83 885 83 885 83 911 c 0,16,17
 83 931 83 931 104 931 c 2,18,-1
 369 931 l 1,19,-1
 714 223 l 1,20,-1
 1049 931 l 1,21,-1
 1314 931 l 2,22,23
 1335 931 1335 931 1335 911 c 0,24,25
 1335 885 1335 885 1285 867 c 128,-1,26
 1235 849 1235 849 1235 785 c 2,27,-1
 1235 146 l 2,28,29
 1235 81 1235 81 1285 63.5 c 128,-1,30
 1335 46 1335 46 1335 21 c 0,31,32
 1335 0 1335 0 1314 0 c 2,33,-1
 981 0 l 2,34,35
 961 0 961 0 961 21 c 0,36,37
 961 46 961 46 1011 63.5 c 128,-1,38
 1061 81 1061 81 1061 146 c 2,39,-1
 1061 759 l 1,40,-1
 695 -30 l 1,41,-1
 648 -30 l 1,42,-1
 279 745 l 1,0,-1
EndSplineSet
EndChar

StartChar: uni043F
Encoding: 1087 1087 899
Width: 1133
GlyphClass: 2
Flags: W
LayerCount: 2
Fore
SplineSet
1014 146 m 2,0,1
 1014 81 1014 81 1064 63.5 c 128,-1,2
 1114 46 1114 46 1114 21 c 0,3,4
 1114 0 1114 0 1094 0 c 2,5,-1
 761 0 l 2,6,7
 740 0 740 0 740 21 c 0,8,9
 740 46 740 46 790 63.5 c 128,-1,10
 840 81 840 81 840 146 c 2,11,-1
 840 769 l 2,12,13
 840 822 840 822 804 844 c 1,14,-1
 354 844 l 1,15,16
 318 823 318 823 318 769 c 2,17,-1
 318 146 l 2,18,19
 318 81 318 81 368 63.5 c 128,-1,20
 418 46 418 46 418 21 c 0,21,22
 418 0 418 0 398 0 c 2,23,-1
 65 0 l 2,24,25
 44 0 44 0 44 21 c 0,26,27
 44 46 44 46 94 63.5 c 128,-1,28
 144 81 144 81 144 146 c 2,29,-1
 144 784 l 2,30,31
 144 848 144 848 94 866 c 128,-1,32
 44 884 44 884 44 910 c 0,33,34
 44 930 44 930 65 930 c 0,35,36
 1094 930 1094 930 1094 930 c 2,37,38
 1114 930 1114 930 1114 910 c 0,39,40
 1114 884 1114 884 1064 866 c 128,-1,41
 1014 848 1014 848 1014 784 c 2,42,-1
 1014 146 l 2,0,1
EndSplineSet
EndChar

StartChar: uni0442
Encoding: 1090 1090 902
Width: 880
GlyphClass: 2
Flags: W
LayerCount: 2
Fore
SplineSet
839 737 m 2,0,1
 839 723 839 723 829 723 c 128,-1,2
 819 723 819 723 793 758.5 c 128,-1,3
 767 794 767 794 742 819.5 c 128,-1,4
 717 845 717 845 678 845 c 2,5,-1
 538 845 l 1,6,-1
 538 146 l 2,7,8
 538 81 538 81 588 63.5 c 128,-1,9
 638 46 638 46 638 23 c 128,-1,10
 638 0 638 0 617 0 c 2,11,-1
 285 0 l 2,12,13
 264 0 264 0 264 23 c 128,-1,14
 264 46 264 46 314 63.5 c 128,-1,15
 364 81 364 81 364 146 c 2,16,-1
 364 845 l 1,17,-1
 225 845 l 2,18,19
 184 845 184 845 160 819.5 c 128,-1,20
 136 794 136 794 109.5 758.5 c 128,-1,21
 83 723 83 723 73.5 723 c 128,-1,22
 64 723 64 723 64 737 c 2,23,-1
 64 859 l 2,24,25
 64 895 64 895 76 913 c 128,-1,26
 88 931 88 931 139 931 c 2,27,-1
 763 931 l 2,28,29
 818 931 818 931 828.5 914 c 128,-1,30
 839 897 839 897 839 859 c 2,31,-1
 839 737 l 2,0,1
EndSplineSet
EndChar

StartChar: uni0448
Encoding: 1096 1096 908
Width: 1510
GlyphClass: 2
Flags: W
LayerCount: 2
Fore
SplineSet
1354 146 m 2,0,1
 1354 81 1354 81 1404 63.5 c 128,-1,2
 1454 46 1454 46 1454 21 c 0,3,4
 1454 0 1454 0 1434 0 c 0,5,6
 133 0 133 0 89 0 c 0,7,8
 68 0 68 0 68 21 c 0,9,10
 68 46 68 46 118 63.5 c 128,-1,11
 168 81 168 81 168 146 c 2,12,-1
 168 785 l 2,13,14
 168 849 168 849 118 867 c 128,-1,15
 68 885 68 885 68 911 c 0,16,17
 68 931 68 931 89 931 c 2,18,-1
 422 931 l 2,19,20
 442 931 442 931 442 911 c 0,21,22
 442 885 442 885 392 867 c 128,-1,23
 342 849 342 849 342 785 c 2,24,-1
 342 146 l 2,25,26
 342 92 342 92 376 71 c 1,27,-1
 638 71 l 1,28,29
 672 92 672 92 672 146 c 2,30,-1
 672 785 l 2,31,32
 672 849 672 849 622 867 c 128,-1,33
 572 885 572 885 572 911 c 0,34,35
 572 931 572 931 593 931 c 2,36,-1
 926 931 l 2,37,38
 946 931 946 931 946 911 c 0,39,40
 946 885 946 885 896 867 c 128,-1,41
 846 849 846 849 846 785 c 2,42,-1
 846 146 l 2,43,44
 846 92 846 92 880 71 c 1,45,-1
 1146 71 l 1,46,47
 1180 92 1180 92 1180 146 c 2,48,-1
 1180 785 l 2,49,50
 1180 849 1180 849 1130 867 c 128,-1,51
 1080 885 1080 885 1080 911 c 0,52,53
 1080 931 1080 931 1101 931 c 2,54,-1
 1434 931 l 2,55,56
 1454 931 1454 931 1454 911 c 0,57,58
 1454 885 1454 885 1404 867 c 128,-1,59
 1354 849 1354 849 1354 785 c 2,60,-1
 1354 146 l 2,0,1
EndSplineSet
EndChar

StartChar: uni044C
Encoding: 1100 1100 912
Width: 833
GlyphClass: 2
Flags: W
LayerCount: 2
Fore
SplineSet
337 77 m 1,0,1
 338 77 338 77 343 77 c 0,2,3
 392 77 392 77 480.5 78 c 128,-1,4
 569 79 569 79 605 115 c 0,5,6
 662 172 662 172 662 261 c 0,7,8
 662 349 662 349 603 407 c 0,9,10
 539 468 539 468 432 468 c 2,11,-1
 337 468 l 1,12,-1
 337 77 l 1,0,1
84 0 m 2,13,14
 63 0 63 0 63 21 c 0,15,16
 63 46 63 46 113 63.5 c 128,-1,17
 163 81 163 81 163 146 c 2,18,-1
 163 785 l 2,19,20
 163 849 163 849 113 867 c 128,-1,21
 63 885 63 885 63 911 c 0,22,23
 63 931 63 931 84 931 c 2,24,-1
 417 931 l 2,25,26
 437 931 437 931 437 911 c 0,27,28
 437 885 437 885 387 867 c 128,-1,29
 337 849 337 849 337 785 c 2,30,-1
 337 527 l 1,31,-1
 489 527 l 2,32,33
 556 527 556 527 642 501 c 0,34,35
 724 476 724 476 766 400 c 0,36,37
 800 339 800 339 800 254 c 0,38,39
 800 174 800 174 754 109 c 0,40,41
 713 51 713 51 644 26 c 0,42,43
 573 0 573 0 514 0 c 2,44,-1
 84 0 l 2,13,14
EndSplineSet
EndChar

StartChar: uni0459
Encoding: 1113 1113 925
Width: 1409
GlyphClass: 2
Flags: W
LayerCount: 2
Fore
SplineSet
374 847 m 1,0,-1
 374 403 l 2,1,2
 374 265 374 265 351 198 c 0,3,4
 327 129 327 129 263 83 c 0,5,6
 172 18 172 18 60 -2 c 1,7,-1
 60 33 l 1,8,9
 158 74 158 74 187 145 c 0,10,11
 199 174 199 174 199.5 225.5 c 128,-1,12
 200 277 200 277 200 399 c 2,13,-1
 200 817 l 2,14,15
 200 862 200 862 150 874.5 c 128,-1,16
 100 887 100 887 100 905 c 0,17,18
 100 929 100 929 121 929 c 2,19,-1
 1002 929 l 2,20,21
 1022 929 1022 929 1022 911 c 0,22,23
 1022 885 1022 885 972 867 c 128,-1,24
 922 849 922 849 922 785 c 2,25,-1
 922 527 l 1,26,-1
 1074 527 l 2,27,28
 1142 527 1142 527 1227 501 c 0,29,30
 1306 478 1306 478 1351 400 c 0,31,32
 1385 339 1385 339 1385 254 c 0,33,34
 1385 171 1385 171 1339 109 c 0,35,36
 1305 62 1305 62 1229 26 c 0,37,38
 1172 0 1172 0 1099 0 c 0,39,40
 884 0 884 0 669 0 c 0,41,42
 648 0 648 0 648 21 c 0,43,44
 648 46 648 46 698 63.5 c 128,-1,45
 748 81 748 81 748 146 c 2,46,-1
 748 774 l 2,47,48
 748 825 748 825 715 847 c 1,49,-1
 374 847 l 1,0,-1
922 80 m 1,50,51
 970 57 970 57 1019 57 c 0,52,53
 1130 57 1130 57 1190 115 c 0,54,55
 1247 170 1247 170 1247 261 c 0,56,57
 1247 349 1247 349 1188 407 c 0,58,59
 1124 468 1124 468 1029 468 c 0,60,61
 1023 468 1023 468 1017 468 c 0,62,63
 1015 469 1015 469 1005 469 c 0,64,65
 983 469 983 469 922 464 c 1,66,-1
 922 80 l 1,50,51
EndSplineSet
EndChar

